%TF.GenerationSoftware,KiCad,Pcbnew,(5.1.6)-1*%
%TF.CreationDate,2021-04-01T20:33:04-06:00*%
%TF.ProjectId,radar_flight,72616461-725f-4666-9c69-6768742e6b69,rev?*%
%TF.SameCoordinates,Original*%
%TF.FileFunction,Legend,Bot*%
%TF.FilePolarity,Positive*%
%FSLAX46Y46*%
G04 Gerber Fmt 4.6, Leading zero omitted, Abs format (unit mm)*
G04 Created by KiCad (PCBNEW (5.1.6)-1) date 2021-04-01 20:33:04*
%MOMM*%
%LPD*%
G01*
G04 APERTURE LIST*
%ADD10C,0.150000*%
%ADD11C,0.120000*%
G04 APERTURE END LIST*
D10*
X84011904Y-173952380D02*
X84011904Y-172952380D01*
X83773809Y-172952380D01*
X83630952Y-173000000D01*
X83535714Y-173095238D01*
X83488095Y-173190476D01*
X83440476Y-173380952D01*
X83440476Y-173523809D01*
X83488095Y-173714285D01*
X83535714Y-173809523D01*
X83630952Y-173904761D01*
X83773809Y-173952380D01*
X84011904Y-173952380D01*
X82630952Y-173904761D02*
X82726190Y-173952380D01*
X82916666Y-173952380D01*
X83011904Y-173904761D01*
X83059523Y-173809523D01*
X83059523Y-173428571D01*
X83011904Y-173333333D01*
X82916666Y-173285714D01*
X82726190Y-173285714D01*
X82630952Y-173333333D01*
X82583333Y-173428571D01*
X82583333Y-173523809D01*
X83059523Y-173619047D01*
X82202380Y-173904761D02*
X82107142Y-173952380D01*
X81916666Y-173952380D01*
X81821428Y-173904761D01*
X81773809Y-173809523D01*
X81773809Y-173761904D01*
X81821428Y-173666666D01*
X81916666Y-173619047D01*
X82059523Y-173619047D01*
X82154761Y-173571428D01*
X82202380Y-173476190D01*
X82202380Y-173428571D01*
X82154761Y-173333333D01*
X82059523Y-173285714D01*
X81916666Y-173285714D01*
X81821428Y-173333333D01*
X81345238Y-173952380D02*
X81345238Y-173285714D01*
X81345238Y-172952380D02*
X81392857Y-173000000D01*
X81345238Y-173047619D01*
X81297619Y-173000000D01*
X81345238Y-172952380D01*
X81345238Y-173047619D01*
X80440476Y-173285714D02*
X80440476Y-174095238D01*
X80488095Y-174190476D01*
X80535714Y-174238095D01*
X80630952Y-174285714D01*
X80773809Y-174285714D01*
X80869047Y-174238095D01*
X80440476Y-173904761D02*
X80535714Y-173952380D01*
X80726190Y-173952380D01*
X80821428Y-173904761D01*
X80869047Y-173857142D01*
X80916666Y-173761904D01*
X80916666Y-173476190D01*
X80869047Y-173380952D01*
X80821428Y-173333333D01*
X80726190Y-173285714D01*
X80535714Y-173285714D01*
X80440476Y-173333333D01*
X79964285Y-173285714D02*
X79964285Y-173952380D01*
X79964285Y-173380952D02*
X79916666Y-173333333D01*
X79821428Y-173285714D01*
X79678571Y-173285714D01*
X79583333Y-173333333D01*
X79535714Y-173428571D01*
X79535714Y-173952380D01*
X78678571Y-173904761D02*
X78773809Y-173952380D01*
X78964285Y-173952380D01*
X79059523Y-173904761D01*
X79107142Y-173809523D01*
X79107142Y-173428571D01*
X79059523Y-173333333D01*
X78964285Y-173285714D01*
X78773809Y-173285714D01*
X78678571Y-173333333D01*
X78630952Y-173428571D01*
X78630952Y-173523809D01*
X79107142Y-173619047D01*
X77773809Y-173952380D02*
X77773809Y-172952380D01*
X77773809Y-173904761D02*
X77869047Y-173952380D01*
X78059523Y-173952380D01*
X78154761Y-173904761D01*
X78202380Y-173857142D01*
X78250000Y-173761904D01*
X78250000Y-173476190D01*
X78202380Y-173380952D01*
X78154761Y-173333333D01*
X78059523Y-173285714D01*
X77869047Y-173285714D01*
X77773809Y-173333333D01*
X76535714Y-173952380D02*
X76535714Y-172952380D01*
X76535714Y-173333333D02*
X76440476Y-173285714D01*
X76250000Y-173285714D01*
X76154761Y-173333333D01*
X76107142Y-173380952D01*
X76059523Y-173476190D01*
X76059523Y-173761904D01*
X76107142Y-173857142D01*
X76154761Y-173904761D01*
X76250000Y-173952380D01*
X76440476Y-173952380D01*
X76535714Y-173904761D01*
X75726190Y-173285714D02*
X75488095Y-173952380D01*
X75250000Y-173285714D02*
X75488095Y-173952380D01*
X75583333Y-174190476D01*
X75630952Y-174238095D01*
X75726190Y-174285714D01*
X74107142Y-173952380D02*
X74107142Y-172952380D01*
X74107142Y-173428571D02*
X73535714Y-173428571D01*
X73535714Y-173952380D02*
X73535714Y-172952380D01*
X72630952Y-173952380D02*
X72630952Y-173428571D01*
X72678571Y-173333333D01*
X72773809Y-173285714D01*
X72964285Y-173285714D01*
X73059523Y-173333333D01*
X72630952Y-173904761D02*
X72726190Y-173952380D01*
X72964285Y-173952380D01*
X73059523Y-173904761D01*
X73107142Y-173809523D01*
X73107142Y-173714285D01*
X73059523Y-173619047D01*
X72964285Y-173571428D01*
X72726190Y-173571428D01*
X72630952Y-173523809D01*
X72154761Y-173285714D02*
X72154761Y-173952380D01*
X72154761Y-173380952D02*
X72107142Y-173333333D01*
X72011904Y-173285714D01*
X71869047Y-173285714D01*
X71773809Y-173333333D01*
X71726190Y-173428571D01*
X71726190Y-173952380D01*
X71297619Y-173904761D02*
X71202380Y-173952380D01*
X71011904Y-173952380D01*
X70916666Y-173904761D01*
X70869047Y-173809523D01*
X70869047Y-173761904D01*
X70916666Y-173666666D01*
X71011904Y-173619047D01*
X71154761Y-173619047D01*
X71250000Y-173571428D01*
X71297619Y-173476190D01*
X71297619Y-173428571D01*
X71250000Y-173333333D01*
X71154761Y-173285714D01*
X71011904Y-173285714D01*
X70916666Y-173333333D01*
X69154761Y-173000000D02*
X69250000Y-172952380D01*
X69392857Y-172952380D01*
X69535714Y-173000000D01*
X69630952Y-173095238D01*
X69678571Y-173190476D01*
X69726190Y-173380952D01*
X69726190Y-173523809D01*
X69678571Y-173714285D01*
X69630952Y-173809523D01*
X69535714Y-173904761D01*
X69392857Y-173952380D01*
X69297619Y-173952380D01*
X69154761Y-173904761D01*
X69107142Y-173857142D01*
X69107142Y-173523809D01*
X69297619Y-173523809D01*
X68250000Y-173952380D02*
X68250000Y-173428571D01*
X68297619Y-173333333D01*
X68392857Y-173285714D01*
X68583333Y-173285714D01*
X68678571Y-173333333D01*
X68250000Y-173904761D02*
X68345238Y-173952380D01*
X68583333Y-173952380D01*
X68678571Y-173904761D01*
X68726190Y-173809523D01*
X68726190Y-173714285D01*
X68678571Y-173619047D01*
X68583333Y-173571428D01*
X68345238Y-173571428D01*
X68250000Y-173523809D01*
X67392857Y-173904761D02*
X67488095Y-173952380D01*
X67678571Y-173952380D01*
X67773809Y-173904761D01*
X67821428Y-173809523D01*
X67821428Y-173428571D01*
X67773809Y-173333333D01*
X67678571Y-173285714D01*
X67488095Y-173285714D01*
X67392857Y-173333333D01*
X67345238Y-173428571D01*
X67345238Y-173523809D01*
X67821428Y-173619047D01*
X66916666Y-173285714D02*
X66916666Y-173952380D01*
X66916666Y-173380952D02*
X66869047Y-173333333D01*
X66773809Y-173285714D01*
X66630952Y-173285714D01*
X66535714Y-173333333D01*
X66488095Y-173428571D01*
X66488095Y-173952380D01*
X66059523Y-173904761D02*
X65964285Y-173952380D01*
X65773809Y-173952380D01*
X65678571Y-173904761D01*
X65630952Y-173809523D01*
X65630952Y-173761904D01*
X65678571Y-173666666D01*
X65773809Y-173619047D01*
X65916666Y-173619047D01*
X66011904Y-173571428D01*
X66059523Y-173476190D01*
X66059523Y-173428571D01*
X66011904Y-173333333D01*
X65916666Y-173285714D01*
X65773809Y-173285714D01*
X65678571Y-173333333D01*
X65202380Y-173952380D02*
X65202380Y-172952380D01*
X65202380Y-173333333D02*
X65107142Y-173285714D01*
X64916666Y-173285714D01*
X64821428Y-173333333D01*
X64773809Y-173380952D01*
X64726190Y-173476190D01*
X64726190Y-173761904D01*
X64773809Y-173857142D01*
X64821428Y-173904761D01*
X64916666Y-173952380D01*
X65107142Y-173952380D01*
X65202380Y-173904761D01*
X63869047Y-173952380D02*
X63869047Y-173428571D01*
X63916666Y-173333333D01*
X64011904Y-173285714D01*
X64202380Y-173285714D01*
X64297619Y-173333333D01*
X63869047Y-173904761D02*
X63964285Y-173952380D01*
X64202380Y-173952380D01*
X64297619Y-173904761D01*
X64345238Y-173809523D01*
X64345238Y-173714285D01*
X64297619Y-173619047D01*
X64202380Y-173571428D01*
X63964285Y-173571428D01*
X63869047Y-173523809D01*
X62964285Y-173285714D02*
X62964285Y-173952380D01*
X63392857Y-173285714D02*
X63392857Y-173809523D01*
X63345238Y-173904761D01*
X63250000Y-173952380D01*
X63107142Y-173952380D01*
X63011904Y-173904761D01*
X62964285Y-173857142D01*
X62107142Y-173904761D02*
X62202380Y-173952380D01*
X62392857Y-173952380D01*
X62488095Y-173904761D01*
X62535714Y-173809523D01*
X62535714Y-173428571D01*
X62488095Y-173333333D01*
X62392857Y-173285714D01*
X62202380Y-173285714D01*
X62107142Y-173333333D01*
X62059523Y-173428571D01*
X62059523Y-173523809D01*
X62535714Y-173619047D01*
X61630952Y-173952380D02*
X61630952Y-173285714D01*
X61630952Y-173476190D02*
X61583333Y-173380952D01*
X61535714Y-173333333D01*
X61440476Y-173285714D01*
X61345238Y-173285714D01*
D11*
X102500000Y-138250000D02*
X102000000Y-137750000D01*
X102500000Y-133750000D02*
X102500000Y-138250000D01*
X102500000Y-138250000D02*
X103000000Y-137750000D01*
X114500000Y-138250000D02*
X114000000Y-137750000D01*
X114500000Y-138250000D02*
X115000000Y-137750000D01*
X114500000Y-133750000D02*
X114500000Y-138250000D01*
D10*
X104952380Y-131690476D02*
X104952380Y-131214285D01*
X103952380Y-131214285D01*
X104952380Y-132023809D02*
X103952380Y-132023809D01*
X104952380Y-132595238D01*
X103952380Y-132595238D01*
X104666666Y-133023809D02*
X104666666Y-133500000D01*
X104952380Y-132928571D02*
X103952380Y-133261904D01*
X104952380Y-133595238D01*
X104047619Y-133880952D02*
X104000000Y-133928571D01*
X103952380Y-134023809D01*
X103952380Y-134261904D01*
X104000000Y-134357142D01*
X104047619Y-134404761D01*
X104142857Y-134452380D01*
X104238095Y-134452380D01*
X104380952Y-134404761D01*
X104952380Y-133833333D01*
X104952380Y-134452380D01*
X104428571Y-135976190D02*
X104476190Y-136119047D01*
X104523809Y-136166666D01*
X104619047Y-136214285D01*
X104761904Y-136214285D01*
X104857142Y-136166666D01*
X104904761Y-136119047D01*
X104952380Y-136023809D01*
X104952380Y-135642857D01*
X103952380Y-135642857D01*
X103952380Y-135976190D01*
X104000000Y-136071428D01*
X104047619Y-136119047D01*
X104142857Y-136166666D01*
X104238095Y-136166666D01*
X104333333Y-136119047D01*
X104380952Y-136071428D01*
X104428571Y-135976190D01*
X104428571Y-135642857D01*
X104476190Y-136833333D02*
X104952380Y-136833333D01*
X103952380Y-136500000D02*
X104476190Y-136833333D01*
X103952380Y-137166666D01*
X104952380Y-137500000D02*
X103952380Y-137500000D01*
X103952380Y-137880952D01*
X104000000Y-137976190D01*
X104047619Y-138023809D01*
X104142857Y-138071428D01*
X104285714Y-138071428D01*
X104380952Y-138023809D01*
X104428571Y-137976190D01*
X104476190Y-137880952D01*
X104476190Y-137500000D01*
X104666666Y-138452380D02*
X104666666Y-138928571D01*
X104952380Y-138357142D02*
X103952380Y-138690476D01*
X104952380Y-139023809D01*
X104904761Y-139309523D02*
X104952380Y-139452380D01*
X104952380Y-139690476D01*
X104904761Y-139785714D01*
X104857142Y-139833333D01*
X104761904Y-139880952D01*
X104666666Y-139880952D01*
X104571428Y-139833333D01*
X104523809Y-139785714D01*
X104476190Y-139690476D01*
X104428571Y-139500000D01*
X104380952Y-139404761D01*
X104333333Y-139357142D01*
X104238095Y-139309523D01*
X104142857Y-139309523D01*
X104047619Y-139357142D01*
X104000000Y-139404761D01*
X103952380Y-139500000D01*
X103952380Y-139738095D01*
X104000000Y-139880952D01*
X104904761Y-140261904D02*
X104952380Y-140404761D01*
X104952380Y-140642857D01*
X104904761Y-140738095D01*
X104857142Y-140785714D01*
X104761904Y-140833333D01*
X104666666Y-140833333D01*
X104571428Y-140785714D01*
X104523809Y-140738095D01*
X104476190Y-140642857D01*
X104428571Y-140452380D01*
X104380952Y-140357142D01*
X104333333Y-140309523D01*
X104238095Y-140261904D01*
X104142857Y-140261904D01*
X104047619Y-140309523D01*
X104000000Y-140357142D01*
X103952380Y-140452380D01*
X103952380Y-140690476D01*
X104000000Y-140833333D01*
X116952380Y-131690476D02*
X116952380Y-131214285D01*
X115952380Y-131214285D01*
X116952380Y-132023809D02*
X115952380Y-132023809D01*
X116952380Y-132595238D01*
X115952380Y-132595238D01*
X116666666Y-133023809D02*
X116666666Y-133500000D01*
X116952380Y-132928571D02*
X115952380Y-133261904D01*
X116952380Y-133595238D01*
X116952380Y-134452380D02*
X116952380Y-133880952D01*
X116952380Y-134166666D02*
X115952380Y-134166666D01*
X116095238Y-134071428D01*
X116190476Y-133976190D01*
X116238095Y-133880952D01*
X116428571Y-135976190D02*
X116476190Y-136119047D01*
X116523809Y-136166666D01*
X116619047Y-136214285D01*
X116761904Y-136214285D01*
X116857142Y-136166666D01*
X116904761Y-136119047D01*
X116952380Y-136023809D01*
X116952380Y-135642857D01*
X115952380Y-135642857D01*
X115952380Y-135976190D01*
X116000000Y-136071428D01*
X116047619Y-136119047D01*
X116142857Y-136166666D01*
X116238095Y-136166666D01*
X116333333Y-136119047D01*
X116380952Y-136071428D01*
X116428571Y-135976190D01*
X116428571Y-135642857D01*
X116476190Y-136833333D02*
X116952380Y-136833333D01*
X115952380Y-136500000D02*
X116476190Y-136833333D01*
X115952380Y-137166666D01*
X116952380Y-137500000D02*
X115952380Y-137500000D01*
X115952380Y-137880952D01*
X116000000Y-137976190D01*
X116047619Y-138023809D01*
X116142857Y-138071428D01*
X116285714Y-138071428D01*
X116380952Y-138023809D01*
X116428571Y-137976190D01*
X116476190Y-137880952D01*
X116476190Y-137500000D01*
X116666666Y-138452380D02*
X116666666Y-138928571D01*
X116952380Y-138357142D02*
X115952380Y-138690476D01*
X116952380Y-139023809D01*
X116904761Y-139309523D02*
X116952380Y-139452380D01*
X116952380Y-139690476D01*
X116904761Y-139785714D01*
X116857142Y-139833333D01*
X116761904Y-139880952D01*
X116666666Y-139880952D01*
X116571428Y-139833333D01*
X116523809Y-139785714D01*
X116476190Y-139690476D01*
X116428571Y-139500000D01*
X116380952Y-139404761D01*
X116333333Y-139357142D01*
X116238095Y-139309523D01*
X116142857Y-139309523D01*
X116047619Y-139357142D01*
X116000000Y-139404761D01*
X115952380Y-139500000D01*
X115952380Y-139738095D01*
X116000000Y-139880952D01*
X116904761Y-140261904D02*
X116952380Y-140404761D01*
X116952380Y-140642857D01*
X116904761Y-140738095D01*
X116857142Y-140785714D01*
X116761904Y-140833333D01*
X116666666Y-140833333D01*
X116571428Y-140785714D01*
X116523809Y-140738095D01*
X116476190Y-140642857D01*
X116428571Y-140452380D01*
X116380952Y-140357142D01*
X116333333Y-140309523D01*
X116238095Y-140261904D01*
X116142857Y-140261904D01*
X116047619Y-140309523D01*
X116000000Y-140357142D01*
X115952380Y-140452380D01*
X115952380Y-140690476D01*
X116000000Y-140833333D01*
X137797619Y-155202380D02*
X137702380Y-155202380D01*
X137607142Y-155250000D01*
X137559523Y-155297619D01*
X137511904Y-155392857D01*
X137464285Y-155583333D01*
X137464285Y-155821428D01*
X137511904Y-156011904D01*
X137559523Y-156107142D01*
X137607142Y-156154761D01*
X137702380Y-156202380D01*
X137797619Y-156202380D01*
X137892857Y-156154761D01*
X137940476Y-156107142D01*
X137988095Y-156011904D01*
X138035714Y-155821428D01*
X138035714Y-155583333D01*
X137988095Y-155392857D01*
X137940476Y-155297619D01*
X137892857Y-155250000D01*
X137797619Y-155202380D01*
X142964285Y-156202380D02*
X143535714Y-156202380D01*
X143250000Y-156202380D02*
X143250000Y-155202380D01*
X143345238Y-155345238D01*
X143440476Y-155440476D01*
X143535714Y-155488095D01*
X135714285Y-156202380D02*
X136285714Y-156202380D01*
X136000000Y-156202380D02*
X136000000Y-155202380D01*
X136095238Y-155345238D01*
X136190476Y-155440476D01*
X136285714Y-155488095D01*
X130547619Y-155202380D02*
X130452380Y-155202380D01*
X130357142Y-155250000D01*
X130309523Y-155297619D01*
X130261904Y-155392857D01*
X130214285Y-155583333D01*
X130214285Y-155821428D01*
X130261904Y-156011904D01*
X130309523Y-156107142D01*
X130357142Y-156154761D01*
X130452380Y-156202380D01*
X130547619Y-156202380D01*
X130642857Y-156154761D01*
X130690476Y-156107142D01*
X130738095Y-156011904D01*
X130785714Y-155821428D01*
X130785714Y-155583333D01*
X130738095Y-155392857D01*
X130690476Y-155297619D01*
X130642857Y-155250000D01*
X130547619Y-155202380D01*
X141654761Y-166678571D02*
X141511904Y-166726190D01*
X141464285Y-166773809D01*
X141416666Y-166869047D01*
X141416666Y-167011904D01*
X141464285Y-167107142D01*
X141511904Y-167154761D01*
X141607142Y-167202380D01*
X141988095Y-167202380D01*
X141988095Y-166202380D01*
X141654761Y-166202380D01*
X141559523Y-166250000D01*
X141511904Y-166297619D01*
X141464285Y-166392857D01*
X141464285Y-166488095D01*
X141511904Y-166583333D01*
X141559523Y-166630952D01*
X141654761Y-166678571D01*
X141988095Y-166678571D01*
X141035714Y-167154761D02*
X140892857Y-167202380D01*
X140654761Y-167202380D01*
X140559523Y-167154761D01*
X140511904Y-167107142D01*
X140464285Y-167011904D01*
X140464285Y-166916666D01*
X140511904Y-166821428D01*
X140559523Y-166773809D01*
X140654761Y-166726190D01*
X140845238Y-166678571D01*
X140940476Y-166630952D01*
X140988095Y-166583333D01*
X141035714Y-166488095D01*
X141035714Y-166392857D01*
X140988095Y-166297619D01*
X140940476Y-166250000D01*
X140845238Y-166202380D01*
X140607142Y-166202380D01*
X140464285Y-166250000D01*
X129714285Y-164952380D02*
X129714285Y-163952380D01*
X129380952Y-164666666D01*
X129047619Y-163952380D01*
X129047619Y-164952380D01*
X128714285Y-163952380D02*
X128142857Y-163952380D01*
X128428571Y-164952380D02*
X128428571Y-163952380D01*
D11*
%TO.C,C53*%
X121049721Y-153740000D02*
X121375279Y-153740000D01*
X121049721Y-154760000D02*
X121375279Y-154760000D01*
%TO.C,C49*%
X118200279Y-154760000D02*
X117874721Y-154760000D01*
X118200279Y-153740000D02*
X117874721Y-153740000D01*
%TO.C,D5*%
X102000000Y-166550000D02*
X100000000Y-166550000D01*
X100000000Y-166550000D02*
X100000000Y-162650000D01*
X102000000Y-166550000D02*
X102000000Y-162650000D01*
%TO.C,D4*%
X104500000Y-166550000D02*
X102500000Y-166550000D01*
X102500000Y-166550000D02*
X102500000Y-162650000D01*
X104500000Y-166550000D02*
X104500000Y-162650000D01*
%TO.C,SW9*%
X116200000Y-128150000D02*
X116200000Y-128150000D01*
X116200000Y-127350000D02*
X116200000Y-128150000D01*
X116200000Y-127050000D02*
X116200000Y-127050000D01*
X116200000Y-126550000D02*
X116200000Y-127050000D01*
X116200000Y-128450000D02*
X116200000Y-128450000D01*
X116200000Y-128950000D02*
X116200000Y-128450000D01*
X117500000Y-129750000D02*
X117500000Y-129750000D01*
X117000000Y-129750000D02*
X117500000Y-129750000D01*
X117500000Y-125750000D02*
X117500000Y-125750000D01*
X117000000Y-125750000D02*
X117500000Y-125750000D01*
X116700000Y-125750000D02*
X116700000Y-125750000D01*
X116200000Y-125750000D02*
X116700000Y-125750000D01*
X116200000Y-126250000D02*
X116200000Y-126250000D01*
X116200000Y-125750000D02*
X116200000Y-126250000D01*
X116200000Y-129250000D02*
X116200000Y-129250000D01*
X116200000Y-129750000D02*
X116200000Y-129250000D01*
X116700000Y-129750000D02*
X116700000Y-129750000D01*
X116200000Y-129750000D02*
X116700000Y-129750000D01*
X118100000Y-132350000D02*
X118100000Y-132350000D01*
X118100000Y-130650000D02*
X118100000Y-132350000D01*
X117800000Y-130650000D02*
X118100000Y-130650000D01*
X117800000Y-129850000D02*
X117800000Y-130650000D01*
X118100000Y-129850000D02*
X117800000Y-129850000D01*
X118100000Y-128150000D02*
X118100000Y-129850000D01*
X117800000Y-128150000D02*
X118100000Y-128150000D01*
X117800000Y-127350000D02*
X117800000Y-128150000D01*
X118100000Y-127350000D02*
X117800000Y-127350000D01*
X118100000Y-125650000D02*
X118100000Y-127350000D01*
X117800000Y-125650000D02*
X118100000Y-125650000D01*
X117800000Y-124850000D02*
X117800000Y-125650000D01*
X118100000Y-124850000D02*
X117800000Y-124850000D01*
X118100000Y-123150000D02*
X118100000Y-124850000D01*
X121900000Y-129550000D02*
X121900000Y-129550000D01*
X121900000Y-128450000D02*
X121900000Y-129550000D01*
X121900000Y-127050000D02*
X121900000Y-127050000D01*
X121900000Y-125950000D02*
X121900000Y-127050000D01*
X121900000Y-132350000D02*
X121900000Y-130950000D01*
X118100000Y-132350000D02*
X121900000Y-132350000D01*
X121900000Y-123150000D02*
X118100000Y-123150000D01*
X121900000Y-124550000D02*
X121900000Y-123150000D01*
%TO.C,SW6*%
X104200000Y-128150000D02*
X104200000Y-128150000D01*
X104200000Y-127350000D02*
X104200000Y-128150000D01*
X104200000Y-127050000D02*
X104200000Y-127050000D01*
X104200000Y-126550000D02*
X104200000Y-127050000D01*
X104200000Y-128450000D02*
X104200000Y-128450000D01*
X104200000Y-128950000D02*
X104200000Y-128450000D01*
X105500000Y-129750000D02*
X105500000Y-129750000D01*
X105000000Y-129750000D02*
X105500000Y-129750000D01*
X105500000Y-125750000D02*
X105500000Y-125750000D01*
X105000000Y-125750000D02*
X105500000Y-125750000D01*
X104700000Y-125750000D02*
X104700000Y-125750000D01*
X104200000Y-125750000D02*
X104700000Y-125750000D01*
X104200000Y-126250000D02*
X104200000Y-126250000D01*
X104200000Y-125750000D02*
X104200000Y-126250000D01*
X104200000Y-129250000D02*
X104200000Y-129250000D01*
X104200000Y-129750000D02*
X104200000Y-129250000D01*
X104700000Y-129750000D02*
X104700000Y-129750000D01*
X104200000Y-129750000D02*
X104700000Y-129750000D01*
X106100000Y-132350000D02*
X106100000Y-132350000D01*
X106100000Y-130650000D02*
X106100000Y-132350000D01*
X105800000Y-130650000D02*
X106100000Y-130650000D01*
X105800000Y-129850000D02*
X105800000Y-130650000D01*
X106100000Y-129850000D02*
X105800000Y-129850000D01*
X106100000Y-128150000D02*
X106100000Y-129850000D01*
X105800000Y-128150000D02*
X106100000Y-128150000D01*
X105800000Y-127350000D02*
X105800000Y-128150000D01*
X106100000Y-127350000D02*
X105800000Y-127350000D01*
X106100000Y-125650000D02*
X106100000Y-127350000D01*
X105800000Y-125650000D02*
X106100000Y-125650000D01*
X105800000Y-124850000D02*
X105800000Y-125650000D01*
X106100000Y-124850000D02*
X105800000Y-124850000D01*
X106100000Y-123150000D02*
X106100000Y-124850000D01*
X109900000Y-129550000D02*
X109900000Y-129550000D01*
X109900000Y-128450000D02*
X109900000Y-129550000D01*
X109900000Y-127050000D02*
X109900000Y-127050000D01*
X109900000Y-125950000D02*
X109900000Y-127050000D01*
X109900000Y-132350000D02*
X109900000Y-130950000D01*
X106100000Y-132350000D02*
X109900000Y-132350000D01*
X109900000Y-123150000D02*
X106100000Y-123150000D01*
X109900000Y-124550000D02*
X109900000Y-123150000D01*
%TO.C,SW5*%
X139069000Y-157040000D02*
X137329000Y-157040000D01*
X139069000Y-163360000D02*
X137329000Y-163360000D01*
X143470000Y-157040000D02*
X141731000Y-157040000D01*
X143470000Y-163360000D02*
X143470000Y-157040000D01*
X143470000Y-163360000D02*
X142521000Y-163360000D01*
X142521000Y-165400000D02*
X142521000Y-163360000D01*
X137329000Y-163360000D02*
X137329000Y-157040000D01*
%TO.C,SW3*%
X131869000Y-157040000D02*
X130129000Y-157040000D01*
X131869000Y-163360000D02*
X130129000Y-163360000D01*
X136270000Y-157040000D02*
X134531000Y-157040000D01*
X136270000Y-163360000D02*
X136270000Y-157040000D01*
X136270000Y-163360000D02*
X135321000Y-163360000D01*
X135321000Y-165400000D02*
X135321000Y-163360000D01*
X130129000Y-163360000D02*
X130129000Y-157040000D01*
%TO.C,R22*%
X100490000Y-160450279D02*
X100490000Y-160124721D01*
X101510000Y-160450279D02*
X101510000Y-160124721D01*
%TO.C,R21*%
X102990000Y-160462779D02*
X102990000Y-160137221D01*
X104010000Y-160462779D02*
X104010000Y-160137221D01*
%TO.C,R15*%
X139610000Y-152924721D02*
X139610000Y-153250279D01*
X138590000Y-152924721D02*
X138590000Y-153250279D01*
%TO.C,R14*%
X142310000Y-152949721D02*
X142310000Y-153275279D01*
X141290000Y-152949721D02*
X141290000Y-153275279D01*
%TO.C,R12*%
X132410000Y-152824721D02*
X132410000Y-153150279D01*
X131390000Y-152824721D02*
X131390000Y-153150279D01*
%TO.C,R11*%
X135010000Y-152837221D02*
X135010000Y-153162779D01*
X133990000Y-152837221D02*
X133990000Y-153162779D01*
%TO.C,R5*%
X77624721Y-118690000D02*
X77950279Y-118690000D01*
X77624721Y-119710000D02*
X77950279Y-119710000D01*
%TO.C,R4*%
X81049721Y-118740000D02*
X81375279Y-118740000D01*
X81049721Y-119760000D02*
X81375279Y-119760000D01*
%TO.C,R2*%
X78990000Y-126850279D02*
X78990000Y-126524721D01*
X80010000Y-126850279D02*
X80010000Y-126524721D01*
%TO.C,R1*%
X71949721Y-128390000D02*
X72275279Y-128390000D01*
X71949721Y-129410000D02*
X72275279Y-129410000D01*
%TO.C,FB2*%
X74690000Y-122696078D02*
X74690000Y-122178922D01*
X76110000Y-122696078D02*
X76110000Y-122178922D01*
%TO.C,C35*%
X114375279Y-159110000D02*
X114049721Y-159110000D01*
X114375279Y-158090000D02*
X114049721Y-158090000D01*
%TO.C,C29*%
X83790000Y-153302064D02*
X83790000Y-152097936D01*
X85610000Y-153302064D02*
X85610000Y-152097936D01*
%TO.C,C27*%
X81390000Y-153302064D02*
X81390000Y-152097936D01*
X83210000Y-153302064D02*
X83210000Y-152097936D01*
%TO.C,C17*%
X82990000Y-130625279D02*
X82990000Y-130299721D01*
X84010000Y-130625279D02*
X84010000Y-130299721D01*
%TO.C,C15*%
X72450279Y-134260000D02*
X72124721Y-134260000D01*
X72450279Y-133240000D02*
X72124721Y-133240000D01*
%TO.C,C14*%
X70990000Y-136950279D02*
X70990000Y-136624721D01*
X72010000Y-136950279D02*
X72010000Y-136624721D01*
%TO.C,C13*%
X72875279Y-139760000D02*
X72549721Y-139760000D01*
X72875279Y-138740000D02*
X72549721Y-138740000D01*
%TO.C,C12*%
X113349721Y-154090000D02*
X113675279Y-154090000D01*
X113349721Y-155110000D02*
X113675279Y-155110000D01*
%TO.C,C11*%
X72950279Y-123710000D02*
X72624721Y-123710000D01*
X72950279Y-122690000D02*
X72624721Y-122690000D01*
%TO.C,C10*%
X81275279Y-139410000D02*
X80949721Y-139410000D01*
X81275279Y-138390000D02*
X80949721Y-138390000D01*
%TO.C,C9*%
X82990000Y-133700279D02*
X82990000Y-133374721D01*
X84010000Y-133700279D02*
X84010000Y-133374721D01*
%TO.C,C8*%
X72637221Y-121090000D02*
X72962779Y-121090000D01*
X72637221Y-122110000D02*
X72962779Y-122110000D01*
%TO.C,C5*%
X76410000Y-126549721D02*
X76410000Y-126875279D01*
X75390000Y-126549721D02*
X75390000Y-126875279D01*
%TO.C,C4*%
X71924721Y-126790000D02*
X72250279Y-126790000D01*
X71924721Y-127810000D02*
X72250279Y-127810000D01*
%TO.C,C3*%
X73890000Y-128250279D02*
X73890000Y-127924721D01*
X74910000Y-128250279D02*
X74910000Y-127924721D01*
%TO.C,C53*%
D10*
X121855357Y-156037142D02*
X121902976Y-156084761D01*
X122045833Y-156132380D01*
X122141071Y-156132380D01*
X122283928Y-156084761D01*
X122379166Y-155989523D01*
X122426785Y-155894285D01*
X122474404Y-155703809D01*
X122474404Y-155560952D01*
X122426785Y-155370476D01*
X122379166Y-155275238D01*
X122283928Y-155180000D01*
X122141071Y-155132380D01*
X122045833Y-155132380D01*
X121902976Y-155180000D01*
X121855357Y-155227619D01*
X120950595Y-155132380D02*
X121426785Y-155132380D01*
X121474404Y-155608571D01*
X121426785Y-155560952D01*
X121331547Y-155513333D01*
X121093452Y-155513333D01*
X120998214Y-155560952D01*
X120950595Y-155608571D01*
X120902976Y-155703809D01*
X120902976Y-155941904D01*
X120950595Y-156037142D01*
X120998214Y-156084761D01*
X121093452Y-156132380D01*
X121331547Y-156132380D01*
X121426785Y-156084761D01*
X121474404Y-156037142D01*
X120569642Y-155132380D02*
X119950595Y-155132380D01*
X120283928Y-155513333D01*
X120141071Y-155513333D01*
X120045833Y-155560952D01*
X119998214Y-155608571D01*
X119950595Y-155703809D01*
X119950595Y-155941904D01*
X119998214Y-156037142D01*
X120045833Y-156084761D01*
X120141071Y-156132380D01*
X120426785Y-156132380D01*
X120522023Y-156084761D01*
X120569642Y-156037142D01*
%TO.C,C49*%
X118680357Y-153177142D02*
X118727976Y-153224761D01*
X118870833Y-153272380D01*
X118966071Y-153272380D01*
X119108928Y-153224761D01*
X119204166Y-153129523D01*
X119251785Y-153034285D01*
X119299404Y-152843809D01*
X119299404Y-152700952D01*
X119251785Y-152510476D01*
X119204166Y-152415238D01*
X119108928Y-152320000D01*
X118966071Y-152272380D01*
X118870833Y-152272380D01*
X118727976Y-152320000D01*
X118680357Y-152367619D01*
X117823214Y-152605714D02*
X117823214Y-153272380D01*
X118061309Y-152224761D02*
X118299404Y-152939047D01*
X117680357Y-152939047D01*
X117251785Y-153272380D02*
X117061309Y-153272380D01*
X116966071Y-153224761D01*
X116918452Y-153177142D01*
X116823214Y-153034285D01*
X116775595Y-152843809D01*
X116775595Y-152462857D01*
X116823214Y-152367619D01*
X116870833Y-152320000D01*
X116966071Y-152272380D01*
X117156547Y-152272380D01*
X117251785Y-152320000D01*
X117299404Y-152367619D01*
X117347023Y-152462857D01*
X117347023Y-152700952D01*
X117299404Y-152796190D01*
X117251785Y-152843809D01*
X117156547Y-152891428D01*
X116966071Y-152891428D01*
X116870833Y-152843809D01*
X116823214Y-152796190D01*
X116775595Y-152700952D01*
%TO.C,D5*%
X99452380Y-163511904D02*
X98452380Y-163511904D01*
X98452380Y-163750000D01*
X98500000Y-163892857D01*
X98595238Y-163988095D01*
X98690476Y-164035714D01*
X98880952Y-164083333D01*
X99023809Y-164083333D01*
X99214285Y-164035714D01*
X99309523Y-163988095D01*
X99404761Y-163892857D01*
X99452380Y-163750000D01*
X99452380Y-163511904D01*
X98452380Y-164988095D02*
X98452380Y-164511904D01*
X98928571Y-164464285D01*
X98880952Y-164511904D01*
X98833333Y-164607142D01*
X98833333Y-164845238D01*
X98880952Y-164940476D01*
X98928571Y-164988095D01*
X99023809Y-165035714D01*
X99261904Y-165035714D01*
X99357142Y-164988095D01*
X99404761Y-164940476D01*
X99452380Y-164845238D01*
X99452380Y-164607142D01*
X99404761Y-164511904D01*
X99357142Y-164464285D01*
%TO.C,D4*%
X105952380Y-163561904D02*
X104952380Y-163561904D01*
X104952380Y-163800000D01*
X105000000Y-163942857D01*
X105095238Y-164038095D01*
X105190476Y-164085714D01*
X105380952Y-164133333D01*
X105523809Y-164133333D01*
X105714285Y-164085714D01*
X105809523Y-164038095D01*
X105904761Y-163942857D01*
X105952380Y-163800000D01*
X105952380Y-163561904D01*
X105285714Y-164990476D02*
X105952380Y-164990476D01*
X104904761Y-164752380D02*
X105619047Y-164514285D01*
X105619047Y-165133333D01*
%TO.C,SW9*%
X125204761Y-126416666D02*
X125252380Y-126559523D01*
X125252380Y-126797619D01*
X125204761Y-126892857D01*
X125157142Y-126940476D01*
X125061904Y-126988095D01*
X124966666Y-126988095D01*
X124871428Y-126940476D01*
X124823809Y-126892857D01*
X124776190Y-126797619D01*
X124728571Y-126607142D01*
X124680952Y-126511904D01*
X124633333Y-126464285D01*
X124538095Y-126416666D01*
X124442857Y-126416666D01*
X124347619Y-126464285D01*
X124300000Y-126511904D01*
X124252380Y-126607142D01*
X124252380Y-126845238D01*
X124300000Y-126988095D01*
X124252380Y-127321428D02*
X125252380Y-127559523D01*
X124538095Y-127750000D01*
X125252380Y-127940476D01*
X124252380Y-128178571D01*
X125252380Y-128607142D02*
X125252380Y-128797619D01*
X125204761Y-128892857D01*
X125157142Y-128940476D01*
X125014285Y-129035714D01*
X124823809Y-129083333D01*
X124442857Y-129083333D01*
X124347619Y-129035714D01*
X124300000Y-128988095D01*
X124252380Y-128892857D01*
X124252380Y-128702380D01*
X124300000Y-128607142D01*
X124347619Y-128559523D01*
X124442857Y-128511904D01*
X124680952Y-128511904D01*
X124776190Y-128559523D01*
X124823809Y-128607142D01*
X124871428Y-128702380D01*
X124871428Y-128892857D01*
X124823809Y-128988095D01*
X124776190Y-129035714D01*
X124680952Y-129083333D01*
%TO.C,SW6*%
X113204761Y-126416666D02*
X113252380Y-126559523D01*
X113252380Y-126797619D01*
X113204761Y-126892857D01*
X113157142Y-126940476D01*
X113061904Y-126988095D01*
X112966666Y-126988095D01*
X112871428Y-126940476D01*
X112823809Y-126892857D01*
X112776190Y-126797619D01*
X112728571Y-126607142D01*
X112680952Y-126511904D01*
X112633333Y-126464285D01*
X112538095Y-126416666D01*
X112442857Y-126416666D01*
X112347619Y-126464285D01*
X112300000Y-126511904D01*
X112252380Y-126607142D01*
X112252380Y-126845238D01*
X112300000Y-126988095D01*
X112252380Y-127321428D02*
X113252380Y-127559523D01*
X112538095Y-127750000D01*
X113252380Y-127940476D01*
X112252380Y-128178571D01*
X112252380Y-128988095D02*
X112252380Y-128797619D01*
X112300000Y-128702380D01*
X112347619Y-128654761D01*
X112490476Y-128559523D01*
X112680952Y-128511904D01*
X113061904Y-128511904D01*
X113157142Y-128559523D01*
X113204761Y-128607142D01*
X113252380Y-128702380D01*
X113252380Y-128892857D01*
X113204761Y-128988095D01*
X113157142Y-129035714D01*
X113061904Y-129083333D01*
X112823809Y-129083333D01*
X112728571Y-129035714D01*
X112680952Y-128988095D01*
X112633333Y-128892857D01*
X112633333Y-128702380D01*
X112680952Y-128607142D01*
X112728571Y-128559523D01*
X112823809Y-128511904D01*
%TO.C,SW5*%
X144904761Y-158916666D02*
X144952380Y-159059523D01*
X144952380Y-159297619D01*
X144904761Y-159392857D01*
X144857142Y-159440476D01*
X144761904Y-159488095D01*
X144666666Y-159488095D01*
X144571428Y-159440476D01*
X144523809Y-159392857D01*
X144476190Y-159297619D01*
X144428571Y-159107142D01*
X144380952Y-159011904D01*
X144333333Y-158964285D01*
X144238095Y-158916666D01*
X144142857Y-158916666D01*
X144047619Y-158964285D01*
X144000000Y-159011904D01*
X143952380Y-159107142D01*
X143952380Y-159345238D01*
X144000000Y-159488095D01*
X143952380Y-159821428D02*
X144952380Y-160059523D01*
X144238095Y-160250000D01*
X144952380Y-160440476D01*
X143952380Y-160678571D01*
X143952380Y-161535714D02*
X143952380Y-161059523D01*
X144428571Y-161011904D01*
X144380952Y-161059523D01*
X144333333Y-161154761D01*
X144333333Y-161392857D01*
X144380952Y-161488095D01*
X144428571Y-161535714D01*
X144523809Y-161583333D01*
X144761904Y-161583333D01*
X144857142Y-161535714D01*
X144904761Y-161488095D01*
X144952380Y-161392857D01*
X144952380Y-161154761D01*
X144904761Y-161059523D01*
X144857142Y-161011904D01*
%TO.C,SW3*%
X129654761Y-158666666D02*
X129702380Y-158809523D01*
X129702380Y-159047619D01*
X129654761Y-159142857D01*
X129607142Y-159190476D01*
X129511904Y-159238095D01*
X129416666Y-159238095D01*
X129321428Y-159190476D01*
X129273809Y-159142857D01*
X129226190Y-159047619D01*
X129178571Y-158857142D01*
X129130952Y-158761904D01*
X129083333Y-158714285D01*
X128988095Y-158666666D01*
X128892857Y-158666666D01*
X128797619Y-158714285D01*
X128750000Y-158761904D01*
X128702380Y-158857142D01*
X128702380Y-159095238D01*
X128750000Y-159238095D01*
X128702380Y-159571428D02*
X129702380Y-159809523D01*
X128988095Y-160000000D01*
X129702380Y-160190476D01*
X128702380Y-160428571D01*
X128702380Y-160714285D02*
X128702380Y-161333333D01*
X129083333Y-161000000D01*
X129083333Y-161142857D01*
X129130952Y-161238095D01*
X129178571Y-161285714D01*
X129273809Y-161333333D01*
X129511904Y-161333333D01*
X129607142Y-161285714D01*
X129654761Y-161238095D01*
X129702380Y-161142857D01*
X129702380Y-160857142D01*
X129654761Y-160761904D01*
X129607142Y-160714285D01*
%TO.C,R22*%
X99952380Y-159644642D02*
X99476190Y-159311309D01*
X99952380Y-159073214D02*
X98952380Y-159073214D01*
X98952380Y-159454166D01*
X99000000Y-159549404D01*
X99047619Y-159597023D01*
X99142857Y-159644642D01*
X99285714Y-159644642D01*
X99380952Y-159597023D01*
X99428571Y-159549404D01*
X99476190Y-159454166D01*
X99476190Y-159073214D01*
X99047619Y-160025595D02*
X99000000Y-160073214D01*
X98952380Y-160168452D01*
X98952380Y-160406547D01*
X99000000Y-160501785D01*
X99047619Y-160549404D01*
X99142857Y-160597023D01*
X99238095Y-160597023D01*
X99380952Y-160549404D01*
X99952380Y-159977976D01*
X99952380Y-160597023D01*
X99047619Y-160977976D02*
X99000000Y-161025595D01*
X98952380Y-161120833D01*
X98952380Y-161358928D01*
X99000000Y-161454166D01*
X99047619Y-161501785D01*
X99142857Y-161549404D01*
X99238095Y-161549404D01*
X99380952Y-161501785D01*
X99952380Y-160930357D01*
X99952380Y-161549404D01*
%TO.C,R21*%
X105382380Y-159657142D02*
X104906190Y-159323809D01*
X105382380Y-159085714D02*
X104382380Y-159085714D01*
X104382380Y-159466666D01*
X104430000Y-159561904D01*
X104477619Y-159609523D01*
X104572857Y-159657142D01*
X104715714Y-159657142D01*
X104810952Y-159609523D01*
X104858571Y-159561904D01*
X104906190Y-159466666D01*
X104906190Y-159085714D01*
X104477619Y-160038095D02*
X104430000Y-160085714D01*
X104382380Y-160180952D01*
X104382380Y-160419047D01*
X104430000Y-160514285D01*
X104477619Y-160561904D01*
X104572857Y-160609523D01*
X104668095Y-160609523D01*
X104810952Y-160561904D01*
X105382380Y-159990476D01*
X105382380Y-160609523D01*
X105382380Y-161561904D02*
X105382380Y-160990476D01*
X105382380Y-161276190D02*
X104382380Y-161276190D01*
X104525238Y-161180952D01*
X104620476Y-161085714D01*
X104668095Y-160990476D01*
%TO.C,R15*%
X139702380Y-149357142D02*
X139226190Y-149023809D01*
X139702380Y-148785714D02*
X138702380Y-148785714D01*
X138702380Y-149166666D01*
X138750000Y-149261904D01*
X138797619Y-149309523D01*
X138892857Y-149357142D01*
X139035714Y-149357142D01*
X139130952Y-149309523D01*
X139178571Y-149261904D01*
X139226190Y-149166666D01*
X139226190Y-148785714D01*
X139702380Y-150309523D02*
X139702380Y-149738095D01*
X139702380Y-150023809D02*
X138702380Y-150023809D01*
X138845238Y-149928571D01*
X138940476Y-149833333D01*
X138988095Y-149738095D01*
X138702380Y-151214285D02*
X138702380Y-150738095D01*
X139178571Y-150690476D01*
X139130952Y-150738095D01*
X139083333Y-150833333D01*
X139083333Y-151071428D01*
X139130952Y-151166666D01*
X139178571Y-151214285D01*
X139273809Y-151261904D01*
X139511904Y-151261904D01*
X139607142Y-151214285D01*
X139654761Y-151166666D01*
X139702380Y-151071428D01*
X139702380Y-150833333D01*
X139654761Y-150738095D01*
X139607142Y-150690476D01*
%TO.C,R14*%
X142202380Y-149357142D02*
X141726190Y-149023809D01*
X142202380Y-148785714D02*
X141202380Y-148785714D01*
X141202380Y-149166666D01*
X141250000Y-149261904D01*
X141297619Y-149309523D01*
X141392857Y-149357142D01*
X141535714Y-149357142D01*
X141630952Y-149309523D01*
X141678571Y-149261904D01*
X141726190Y-149166666D01*
X141726190Y-148785714D01*
X142202380Y-150309523D02*
X142202380Y-149738095D01*
X142202380Y-150023809D02*
X141202380Y-150023809D01*
X141345238Y-149928571D01*
X141440476Y-149833333D01*
X141488095Y-149738095D01*
X141535714Y-151166666D02*
X142202380Y-151166666D01*
X141154761Y-150928571D02*
X141869047Y-150690476D01*
X141869047Y-151309523D01*
%TO.C,R12*%
X132452380Y-149357142D02*
X131976190Y-149023809D01*
X132452380Y-148785714D02*
X131452380Y-148785714D01*
X131452380Y-149166666D01*
X131500000Y-149261904D01*
X131547619Y-149309523D01*
X131642857Y-149357142D01*
X131785714Y-149357142D01*
X131880952Y-149309523D01*
X131928571Y-149261904D01*
X131976190Y-149166666D01*
X131976190Y-148785714D01*
X132452380Y-150309523D02*
X132452380Y-149738095D01*
X132452380Y-150023809D02*
X131452380Y-150023809D01*
X131595238Y-149928571D01*
X131690476Y-149833333D01*
X131738095Y-149738095D01*
X131547619Y-150690476D02*
X131500000Y-150738095D01*
X131452380Y-150833333D01*
X131452380Y-151071428D01*
X131500000Y-151166666D01*
X131547619Y-151214285D01*
X131642857Y-151261904D01*
X131738095Y-151261904D01*
X131880952Y-151214285D01*
X132452380Y-150642857D01*
X132452380Y-151261904D01*
%TO.C,R11*%
X134952380Y-149357142D02*
X134476190Y-149023809D01*
X134952380Y-148785714D02*
X133952380Y-148785714D01*
X133952380Y-149166666D01*
X134000000Y-149261904D01*
X134047619Y-149309523D01*
X134142857Y-149357142D01*
X134285714Y-149357142D01*
X134380952Y-149309523D01*
X134428571Y-149261904D01*
X134476190Y-149166666D01*
X134476190Y-148785714D01*
X134952380Y-150309523D02*
X134952380Y-149738095D01*
X134952380Y-150023809D02*
X133952380Y-150023809D01*
X134095238Y-149928571D01*
X134190476Y-149833333D01*
X134238095Y-149738095D01*
X134952380Y-151261904D02*
X134952380Y-150690476D01*
X134952380Y-150976190D02*
X133952380Y-150976190D01*
X134095238Y-150880952D01*
X134190476Y-150785714D01*
X134238095Y-150690476D01*
%TO.C,R5*%
X77954166Y-121082380D02*
X78287500Y-120606190D01*
X78525595Y-121082380D02*
X78525595Y-120082380D01*
X78144642Y-120082380D01*
X78049404Y-120130000D01*
X78001785Y-120177619D01*
X77954166Y-120272857D01*
X77954166Y-120415714D01*
X78001785Y-120510952D01*
X78049404Y-120558571D01*
X78144642Y-120606190D01*
X78525595Y-120606190D01*
X77049404Y-120082380D02*
X77525595Y-120082380D01*
X77573214Y-120558571D01*
X77525595Y-120510952D01*
X77430357Y-120463333D01*
X77192261Y-120463333D01*
X77097023Y-120510952D01*
X77049404Y-120558571D01*
X77001785Y-120653809D01*
X77001785Y-120891904D01*
X77049404Y-120987142D01*
X77097023Y-121034761D01*
X77192261Y-121082380D01*
X77430357Y-121082380D01*
X77525595Y-121034761D01*
X77573214Y-120987142D01*
%TO.C,R4*%
X81379166Y-121132380D02*
X81712500Y-120656190D01*
X81950595Y-121132380D02*
X81950595Y-120132380D01*
X81569642Y-120132380D01*
X81474404Y-120180000D01*
X81426785Y-120227619D01*
X81379166Y-120322857D01*
X81379166Y-120465714D01*
X81426785Y-120560952D01*
X81474404Y-120608571D01*
X81569642Y-120656190D01*
X81950595Y-120656190D01*
X80522023Y-120465714D02*
X80522023Y-121132380D01*
X80760119Y-120084761D02*
X80998214Y-120799047D01*
X80379166Y-120799047D01*
%TO.C,R2*%
X81382380Y-126520833D02*
X80906190Y-126187500D01*
X81382380Y-125949404D02*
X80382380Y-125949404D01*
X80382380Y-126330357D01*
X80430000Y-126425595D01*
X80477619Y-126473214D01*
X80572857Y-126520833D01*
X80715714Y-126520833D01*
X80810952Y-126473214D01*
X80858571Y-126425595D01*
X80906190Y-126330357D01*
X80906190Y-125949404D01*
X80477619Y-126901785D02*
X80430000Y-126949404D01*
X80382380Y-127044642D01*
X80382380Y-127282738D01*
X80430000Y-127377976D01*
X80477619Y-127425595D01*
X80572857Y-127473214D01*
X80668095Y-127473214D01*
X80810952Y-127425595D01*
X81382380Y-126854166D01*
X81382380Y-127473214D01*
%TO.C,R1*%
X72279166Y-130782380D02*
X72612500Y-130306190D01*
X72850595Y-130782380D02*
X72850595Y-129782380D01*
X72469642Y-129782380D01*
X72374404Y-129830000D01*
X72326785Y-129877619D01*
X72279166Y-129972857D01*
X72279166Y-130115714D01*
X72326785Y-130210952D01*
X72374404Y-130258571D01*
X72469642Y-130306190D01*
X72850595Y-130306190D01*
X71326785Y-130782380D02*
X71898214Y-130782380D01*
X71612500Y-130782380D02*
X71612500Y-129782380D01*
X71707738Y-129925238D01*
X71802976Y-130020476D01*
X71898214Y-130068095D01*
%TO.C,FB2*%
X76978571Y-121604166D02*
X76978571Y-121270833D01*
X77502380Y-121270833D02*
X76502380Y-121270833D01*
X76502380Y-121747023D01*
X76978571Y-122461309D02*
X77026190Y-122604166D01*
X77073809Y-122651785D01*
X77169047Y-122699404D01*
X77311904Y-122699404D01*
X77407142Y-122651785D01*
X77454761Y-122604166D01*
X77502380Y-122508928D01*
X77502380Y-122127976D01*
X76502380Y-122127976D01*
X76502380Y-122461309D01*
X76550000Y-122556547D01*
X76597619Y-122604166D01*
X76692857Y-122651785D01*
X76788095Y-122651785D01*
X76883333Y-122604166D01*
X76930952Y-122556547D01*
X76978571Y-122461309D01*
X76978571Y-122127976D01*
X76597619Y-123080357D02*
X76550000Y-123127976D01*
X76502380Y-123223214D01*
X76502380Y-123461309D01*
X76550000Y-123556547D01*
X76597619Y-123604166D01*
X76692857Y-123651785D01*
X76788095Y-123651785D01*
X76930952Y-123604166D01*
X77502380Y-123032738D01*
X77502380Y-123651785D01*
%TO.C,C35*%
X114855357Y-157527142D02*
X114902976Y-157574761D01*
X115045833Y-157622380D01*
X115141071Y-157622380D01*
X115283928Y-157574761D01*
X115379166Y-157479523D01*
X115426785Y-157384285D01*
X115474404Y-157193809D01*
X115474404Y-157050952D01*
X115426785Y-156860476D01*
X115379166Y-156765238D01*
X115283928Y-156670000D01*
X115141071Y-156622380D01*
X115045833Y-156622380D01*
X114902976Y-156670000D01*
X114855357Y-156717619D01*
X114522023Y-156622380D02*
X113902976Y-156622380D01*
X114236309Y-157003333D01*
X114093452Y-157003333D01*
X113998214Y-157050952D01*
X113950595Y-157098571D01*
X113902976Y-157193809D01*
X113902976Y-157431904D01*
X113950595Y-157527142D01*
X113998214Y-157574761D01*
X114093452Y-157622380D01*
X114379166Y-157622380D01*
X114474404Y-157574761D01*
X114522023Y-157527142D01*
X112998214Y-156622380D02*
X113474404Y-156622380D01*
X113522023Y-157098571D01*
X113474404Y-157050952D01*
X113379166Y-157003333D01*
X113141071Y-157003333D01*
X113045833Y-157050952D01*
X112998214Y-157098571D01*
X112950595Y-157193809D01*
X112950595Y-157431904D01*
X112998214Y-157527142D01*
X113045833Y-157574761D01*
X113141071Y-157622380D01*
X113379166Y-157622380D01*
X113474404Y-157574761D01*
X113522023Y-157527142D01*
%TO.C,C29*%
X86877142Y-152057142D02*
X86924761Y-152009523D01*
X86972380Y-151866666D01*
X86972380Y-151771428D01*
X86924761Y-151628571D01*
X86829523Y-151533333D01*
X86734285Y-151485714D01*
X86543809Y-151438095D01*
X86400952Y-151438095D01*
X86210476Y-151485714D01*
X86115238Y-151533333D01*
X86020000Y-151628571D01*
X85972380Y-151771428D01*
X85972380Y-151866666D01*
X86020000Y-152009523D01*
X86067619Y-152057142D01*
X86067619Y-152438095D02*
X86020000Y-152485714D01*
X85972380Y-152580952D01*
X85972380Y-152819047D01*
X86020000Y-152914285D01*
X86067619Y-152961904D01*
X86162857Y-153009523D01*
X86258095Y-153009523D01*
X86400952Y-152961904D01*
X86972380Y-152390476D01*
X86972380Y-153009523D01*
X86972380Y-153485714D02*
X86972380Y-153676190D01*
X86924761Y-153771428D01*
X86877142Y-153819047D01*
X86734285Y-153914285D01*
X86543809Y-153961904D01*
X86162857Y-153961904D01*
X86067619Y-153914285D01*
X86020000Y-153866666D01*
X85972380Y-153771428D01*
X85972380Y-153580952D01*
X86020000Y-153485714D01*
X86067619Y-153438095D01*
X86162857Y-153390476D01*
X86400952Y-153390476D01*
X86496190Y-153438095D01*
X86543809Y-153485714D01*
X86591428Y-153580952D01*
X86591428Y-153771428D01*
X86543809Y-153866666D01*
X86496190Y-153914285D01*
X86400952Y-153961904D01*
%TO.C,C27*%
X84477142Y-152057142D02*
X84524761Y-152009523D01*
X84572380Y-151866666D01*
X84572380Y-151771428D01*
X84524761Y-151628571D01*
X84429523Y-151533333D01*
X84334285Y-151485714D01*
X84143809Y-151438095D01*
X84000952Y-151438095D01*
X83810476Y-151485714D01*
X83715238Y-151533333D01*
X83620000Y-151628571D01*
X83572380Y-151771428D01*
X83572380Y-151866666D01*
X83620000Y-152009523D01*
X83667619Y-152057142D01*
X83667619Y-152438095D02*
X83620000Y-152485714D01*
X83572380Y-152580952D01*
X83572380Y-152819047D01*
X83620000Y-152914285D01*
X83667619Y-152961904D01*
X83762857Y-153009523D01*
X83858095Y-153009523D01*
X84000952Y-152961904D01*
X84572380Y-152390476D01*
X84572380Y-153009523D01*
X83572380Y-153342857D02*
X83572380Y-154009523D01*
X84572380Y-153580952D01*
%TO.C,C17*%
X84572857Y-131105357D02*
X84525238Y-131152976D01*
X84477619Y-131295833D01*
X84477619Y-131391071D01*
X84525238Y-131533928D01*
X84620476Y-131629166D01*
X84715714Y-131676785D01*
X84906190Y-131724404D01*
X85049047Y-131724404D01*
X85239523Y-131676785D01*
X85334761Y-131629166D01*
X85430000Y-131533928D01*
X85477619Y-131391071D01*
X85477619Y-131295833D01*
X85430000Y-131152976D01*
X85382380Y-131105357D01*
X84477619Y-130152976D02*
X84477619Y-130724404D01*
X84477619Y-130438690D02*
X85477619Y-130438690D01*
X85334761Y-130533928D01*
X85239523Y-130629166D01*
X85191904Y-130724404D01*
X85477619Y-129819642D02*
X85477619Y-129152976D01*
X84477619Y-129581547D01*
%TO.C,C15*%
X72930357Y-132677142D02*
X72977976Y-132724761D01*
X73120833Y-132772380D01*
X73216071Y-132772380D01*
X73358928Y-132724761D01*
X73454166Y-132629523D01*
X73501785Y-132534285D01*
X73549404Y-132343809D01*
X73549404Y-132200952D01*
X73501785Y-132010476D01*
X73454166Y-131915238D01*
X73358928Y-131820000D01*
X73216071Y-131772380D01*
X73120833Y-131772380D01*
X72977976Y-131820000D01*
X72930357Y-131867619D01*
X71977976Y-132772380D02*
X72549404Y-132772380D01*
X72263690Y-132772380D02*
X72263690Y-131772380D01*
X72358928Y-131915238D01*
X72454166Y-132010476D01*
X72549404Y-132058095D01*
X71073214Y-131772380D02*
X71549404Y-131772380D01*
X71597023Y-132248571D01*
X71549404Y-132200952D01*
X71454166Y-132153333D01*
X71216071Y-132153333D01*
X71120833Y-132200952D01*
X71073214Y-132248571D01*
X71025595Y-132343809D01*
X71025595Y-132581904D01*
X71073214Y-132677142D01*
X71120833Y-132724761D01*
X71216071Y-132772380D01*
X71454166Y-132772380D01*
X71549404Y-132724761D01*
X71597023Y-132677142D01*
%TO.C,C14*%
X70107142Y-135857142D02*
X70154761Y-135809523D01*
X70202380Y-135666666D01*
X70202380Y-135571428D01*
X70154761Y-135428571D01*
X70059523Y-135333333D01*
X69964285Y-135285714D01*
X69773809Y-135238095D01*
X69630952Y-135238095D01*
X69440476Y-135285714D01*
X69345238Y-135333333D01*
X69250000Y-135428571D01*
X69202380Y-135571428D01*
X69202380Y-135666666D01*
X69250000Y-135809523D01*
X69297619Y-135857142D01*
X70202380Y-136809523D02*
X70202380Y-136238095D01*
X70202380Y-136523809D02*
X69202380Y-136523809D01*
X69345238Y-136428571D01*
X69440476Y-136333333D01*
X69488095Y-136238095D01*
X69535714Y-137666666D02*
X70202380Y-137666666D01*
X69154761Y-137428571D02*
X69869047Y-137190476D01*
X69869047Y-137809523D01*
%TO.C,C13*%
X73392857Y-141357142D02*
X73440476Y-141404761D01*
X73583333Y-141452380D01*
X73678571Y-141452380D01*
X73821428Y-141404761D01*
X73916666Y-141309523D01*
X73964285Y-141214285D01*
X74011904Y-141023809D01*
X74011904Y-140880952D01*
X73964285Y-140690476D01*
X73916666Y-140595238D01*
X73821428Y-140500000D01*
X73678571Y-140452380D01*
X73583333Y-140452380D01*
X73440476Y-140500000D01*
X73392857Y-140547619D01*
X72440476Y-141452380D02*
X73011904Y-141452380D01*
X72726190Y-141452380D02*
X72726190Y-140452380D01*
X72821428Y-140595238D01*
X72916666Y-140690476D01*
X73011904Y-140738095D01*
X72107142Y-140452380D02*
X71488095Y-140452380D01*
X71821428Y-140833333D01*
X71678571Y-140833333D01*
X71583333Y-140880952D01*
X71535714Y-140928571D01*
X71488095Y-141023809D01*
X71488095Y-141261904D01*
X71535714Y-141357142D01*
X71583333Y-141404761D01*
X71678571Y-141452380D01*
X71964285Y-141452380D01*
X72059523Y-141404761D01*
X72107142Y-141357142D01*
%TO.C,C12*%
X114142857Y-153357142D02*
X114190476Y-153404761D01*
X114333333Y-153452380D01*
X114428571Y-153452380D01*
X114571428Y-153404761D01*
X114666666Y-153309523D01*
X114714285Y-153214285D01*
X114761904Y-153023809D01*
X114761904Y-152880952D01*
X114714285Y-152690476D01*
X114666666Y-152595238D01*
X114571428Y-152500000D01*
X114428571Y-152452380D01*
X114333333Y-152452380D01*
X114190476Y-152500000D01*
X114142857Y-152547619D01*
X113190476Y-153452380D02*
X113761904Y-153452380D01*
X113476190Y-153452380D02*
X113476190Y-152452380D01*
X113571428Y-152595238D01*
X113666666Y-152690476D01*
X113761904Y-152738095D01*
X112809523Y-152547619D02*
X112761904Y-152500000D01*
X112666666Y-152452380D01*
X112428571Y-152452380D01*
X112333333Y-152500000D01*
X112285714Y-152547619D01*
X112238095Y-152642857D01*
X112238095Y-152738095D01*
X112285714Y-152880952D01*
X112857142Y-153452380D01*
X112238095Y-153452380D01*
%TO.C,C11*%
X70392857Y-123607142D02*
X70440476Y-123654761D01*
X70583333Y-123702380D01*
X70678571Y-123702380D01*
X70821428Y-123654761D01*
X70916666Y-123559523D01*
X70964285Y-123464285D01*
X71011904Y-123273809D01*
X71011904Y-123130952D01*
X70964285Y-122940476D01*
X70916666Y-122845238D01*
X70821428Y-122750000D01*
X70678571Y-122702380D01*
X70583333Y-122702380D01*
X70440476Y-122750000D01*
X70392857Y-122797619D01*
X69440476Y-123702380D02*
X70011904Y-123702380D01*
X69726190Y-123702380D02*
X69726190Y-122702380D01*
X69821428Y-122845238D01*
X69916666Y-122940476D01*
X70011904Y-122988095D01*
X68488095Y-123702380D02*
X69059523Y-123702380D01*
X68773809Y-123702380D02*
X68773809Y-122702380D01*
X68869047Y-122845238D01*
X68964285Y-122940476D01*
X69059523Y-122988095D01*
%TO.C,C10*%
X81755357Y-137827142D02*
X81802976Y-137874761D01*
X81945833Y-137922380D01*
X82041071Y-137922380D01*
X82183928Y-137874761D01*
X82279166Y-137779523D01*
X82326785Y-137684285D01*
X82374404Y-137493809D01*
X82374404Y-137350952D01*
X82326785Y-137160476D01*
X82279166Y-137065238D01*
X82183928Y-136970000D01*
X82041071Y-136922380D01*
X81945833Y-136922380D01*
X81802976Y-136970000D01*
X81755357Y-137017619D01*
X80802976Y-137922380D02*
X81374404Y-137922380D01*
X81088690Y-137922380D02*
X81088690Y-136922380D01*
X81183928Y-137065238D01*
X81279166Y-137160476D01*
X81374404Y-137208095D01*
X80183928Y-136922380D02*
X80088690Y-136922380D01*
X79993452Y-136970000D01*
X79945833Y-137017619D01*
X79898214Y-137112857D01*
X79850595Y-137303333D01*
X79850595Y-137541428D01*
X79898214Y-137731904D01*
X79945833Y-137827142D01*
X79993452Y-137874761D01*
X80088690Y-137922380D01*
X80183928Y-137922380D01*
X80279166Y-137874761D01*
X80326785Y-137827142D01*
X80374404Y-137731904D01*
X80422023Y-137541428D01*
X80422023Y-137303333D01*
X80374404Y-137112857D01*
X80326785Y-137017619D01*
X80279166Y-136970000D01*
X80183928Y-136922380D01*
%TO.C,C9*%
X85287142Y-133370833D02*
X85334761Y-133323214D01*
X85382380Y-133180357D01*
X85382380Y-133085119D01*
X85334761Y-132942261D01*
X85239523Y-132847023D01*
X85144285Y-132799404D01*
X84953809Y-132751785D01*
X84810952Y-132751785D01*
X84620476Y-132799404D01*
X84525238Y-132847023D01*
X84430000Y-132942261D01*
X84382380Y-133085119D01*
X84382380Y-133180357D01*
X84430000Y-133323214D01*
X84477619Y-133370833D01*
X85382380Y-133847023D02*
X85382380Y-134037500D01*
X85334761Y-134132738D01*
X85287142Y-134180357D01*
X85144285Y-134275595D01*
X84953809Y-134323214D01*
X84572857Y-134323214D01*
X84477619Y-134275595D01*
X84430000Y-134227976D01*
X84382380Y-134132738D01*
X84382380Y-133942261D01*
X84430000Y-133847023D01*
X84477619Y-133799404D01*
X84572857Y-133751785D01*
X84810952Y-133751785D01*
X84906190Y-133799404D01*
X84953809Y-133847023D01*
X85001428Y-133942261D01*
X85001428Y-134132738D01*
X84953809Y-134227976D01*
X84906190Y-134275595D01*
X84810952Y-134323214D01*
%TO.C,C8*%
X70416666Y-122107142D02*
X70464285Y-122154761D01*
X70607142Y-122202380D01*
X70702380Y-122202380D01*
X70845238Y-122154761D01*
X70940476Y-122059523D01*
X70988095Y-121964285D01*
X71035714Y-121773809D01*
X71035714Y-121630952D01*
X70988095Y-121440476D01*
X70940476Y-121345238D01*
X70845238Y-121250000D01*
X70702380Y-121202380D01*
X70607142Y-121202380D01*
X70464285Y-121250000D01*
X70416666Y-121297619D01*
X69845238Y-121630952D02*
X69940476Y-121583333D01*
X69988095Y-121535714D01*
X70035714Y-121440476D01*
X70035714Y-121392857D01*
X69988095Y-121297619D01*
X69940476Y-121250000D01*
X69845238Y-121202380D01*
X69654761Y-121202380D01*
X69559523Y-121250000D01*
X69511904Y-121297619D01*
X69464285Y-121392857D01*
X69464285Y-121440476D01*
X69511904Y-121535714D01*
X69559523Y-121583333D01*
X69654761Y-121630952D01*
X69845238Y-121630952D01*
X69940476Y-121678571D01*
X69988095Y-121726190D01*
X70035714Y-121821428D01*
X70035714Y-122011904D01*
X69988095Y-122107142D01*
X69940476Y-122154761D01*
X69845238Y-122202380D01*
X69654761Y-122202380D01*
X69559523Y-122154761D01*
X69511904Y-122107142D01*
X69464285Y-122011904D01*
X69464285Y-121821428D01*
X69511904Y-121726190D01*
X69559523Y-121678571D01*
X69654761Y-121630952D01*
%TO.C,C5*%
X77857142Y-127083333D02*
X77904761Y-127035714D01*
X77952380Y-126892857D01*
X77952380Y-126797619D01*
X77904761Y-126654761D01*
X77809523Y-126559523D01*
X77714285Y-126511904D01*
X77523809Y-126464285D01*
X77380952Y-126464285D01*
X77190476Y-126511904D01*
X77095238Y-126559523D01*
X77000000Y-126654761D01*
X76952380Y-126797619D01*
X76952380Y-126892857D01*
X77000000Y-127035714D01*
X77047619Y-127083333D01*
X76952380Y-127988095D02*
X76952380Y-127511904D01*
X77428571Y-127464285D01*
X77380952Y-127511904D01*
X77333333Y-127607142D01*
X77333333Y-127845238D01*
X77380952Y-127940476D01*
X77428571Y-127988095D01*
X77523809Y-128035714D01*
X77761904Y-128035714D01*
X77857142Y-127988095D01*
X77904761Y-127940476D01*
X77952380Y-127845238D01*
X77952380Y-127607142D01*
X77904761Y-127511904D01*
X77857142Y-127464285D01*
%TO.C,C4*%
X72254166Y-126107142D02*
X72301785Y-126154761D01*
X72444642Y-126202380D01*
X72539880Y-126202380D01*
X72682738Y-126154761D01*
X72777976Y-126059523D01*
X72825595Y-125964285D01*
X72873214Y-125773809D01*
X72873214Y-125630952D01*
X72825595Y-125440476D01*
X72777976Y-125345238D01*
X72682738Y-125250000D01*
X72539880Y-125202380D01*
X72444642Y-125202380D01*
X72301785Y-125250000D01*
X72254166Y-125297619D01*
X71397023Y-125535714D02*
X71397023Y-126202380D01*
X71635119Y-125154761D02*
X71873214Y-125869047D01*
X71254166Y-125869047D01*
%TO.C,C3*%
X74916666Y-130857142D02*
X74964285Y-130904761D01*
X75107142Y-130952380D01*
X75202380Y-130952380D01*
X75345238Y-130904761D01*
X75440476Y-130809523D01*
X75488095Y-130714285D01*
X75535714Y-130523809D01*
X75535714Y-130380952D01*
X75488095Y-130190476D01*
X75440476Y-130095238D01*
X75345238Y-130000000D01*
X75202380Y-129952380D01*
X75107142Y-129952380D01*
X74964285Y-130000000D01*
X74916666Y-130047619D01*
X74583333Y-129952380D02*
X73964285Y-129952380D01*
X74297619Y-130333333D01*
X74154761Y-130333333D01*
X74059523Y-130380952D01*
X74011904Y-130428571D01*
X73964285Y-130523809D01*
X73964285Y-130761904D01*
X74011904Y-130857142D01*
X74059523Y-130904761D01*
X74154761Y-130952380D01*
X74440476Y-130952380D01*
X74535714Y-130904761D01*
X74583333Y-130857142D01*
%TD*%
M02*
