%TF.GenerationSoftware,KiCad,Pcbnew,(5.1.6)-1*%
%TF.CreationDate,2021-04-01T20:33:04-06:00*%
%TF.ProjectId,radar_flight,72616461-725f-4666-9c69-6768742e6b69,rev?*%
%TF.SameCoordinates,Original*%
%TF.FileFunction,Paste,Top*%
%TF.FilePolarity,Positive*%
%FSLAX46Y46*%
G04 Gerber Fmt 4.6, Leading zero omitted, Abs format (unit mm)*
G04 Created by KiCad (PCBNEW (5.1.6)-1) date 2021-04-01 20:33:04*
%MOMM*%
%LPD*%
G01*
G04 APERTURE LIST*
%ADD10R,3.200000X2.000000*%
%ADD11R,1.397000X1.524000*%
%ADD12R,2.500000X2.300000*%
%ADD13R,1.300000X1.100000*%
%ADD14R,0.850000X0.650000*%
%ADD15R,0.500000X0.300000*%
%ADD16C,0.100000*%
%ADD17R,0.900000X1.300000*%
%ADD18R,0.250000X1.300000*%
%ADD19R,1.300000X0.250000*%
%ADD20R,4.550000X5.250000*%
%ADD21R,4.600000X1.100000*%
%ADD22R,1.060000X0.650000*%
%ADD23R,2.540000X1.651000*%
%ADD24R,1.778000X1.016000*%
%ADD25R,1.016000X1.778000*%
%ADD26R,1.524000X1.397000*%
%ADD27R,1.300000X1.600000*%
%ADD28R,1.650000X2.540000*%
%ADD29R,1.000000X1.600000*%
%ADD30R,1.600000X1.000000*%
%ADD31R,1.300000X2.000000*%
%ADD32R,2.000000X2.000000*%
%ADD33R,2.000000X1.300000*%
%ADD34R,3.600000X1.800000*%
%ADD35R,1.270000X3.600000*%
%ADD36R,1.350000X4.200000*%
%ADD37R,3.600000X1.270000*%
%ADD38R,4.200000X1.350000*%
%ADD39R,2.000000X1.100000*%
G04 APERTURE END LIST*
D10*
%TO.C,L1*%
X81750000Y-162600000D03*
X81750000Y-170400000D03*
%TD*%
D11*
%TO.C,U18*%
X92703600Y-123174000D03*
X103244600Y-123174000D03*
X92703600Y-128254000D03*
X103244600Y-128254000D03*
X92703600Y-133334000D03*
X103244600Y-133334000D03*
X92703600Y-138414000D03*
X103244600Y-138414000D03*
%TD*%
%TO.C,C54*%
G36*
G01*
X126756250Y-156862500D02*
X126243750Y-156862500D01*
G75*
G02*
X126025000Y-156643750I0J218750D01*
G01*
X126025000Y-156206250D01*
G75*
G02*
X126243750Y-155987500I218750J0D01*
G01*
X126756250Y-155987500D01*
G75*
G02*
X126975000Y-156206250I0J-218750D01*
G01*
X126975000Y-156643750D01*
G75*
G02*
X126756250Y-156862500I-218750J0D01*
G01*
G37*
G36*
G01*
X126756250Y-158437500D02*
X126243750Y-158437500D01*
G75*
G02*
X126025000Y-158218750I0J218750D01*
G01*
X126025000Y-157781250D01*
G75*
G02*
X126243750Y-157562500I218750J0D01*
G01*
X126756250Y-157562500D01*
G75*
G02*
X126975000Y-157781250I0J-218750D01*
G01*
X126975000Y-158218750D01*
G75*
G02*
X126756250Y-158437500I-218750J0D01*
G01*
G37*
%TD*%
%TO.C,C50*%
G36*
G01*
X121562500Y-151506250D02*
X121562500Y-150993750D01*
G75*
G02*
X121781250Y-150775000I218750J0D01*
G01*
X122218750Y-150775000D01*
G75*
G02*
X122437500Y-150993750I0J-218750D01*
G01*
X122437500Y-151506250D01*
G75*
G02*
X122218750Y-151725000I-218750J0D01*
G01*
X121781250Y-151725000D01*
G75*
G02*
X121562500Y-151506250I0J218750D01*
G01*
G37*
G36*
G01*
X119987500Y-151506250D02*
X119987500Y-150993750D01*
G75*
G02*
X120206250Y-150775000I218750J0D01*
G01*
X120643750Y-150775000D01*
G75*
G02*
X120862500Y-150993750I0J-218750D01*
G01*
X120862500Y-151506250D01*
G75*
G02*
X120643750Y-151725000I-218750J0D01*
G01*
X120206250Y-151725000D01*
G75*
G02*
X119987500Y-151506250I0J218750D01*
G01*
G37*
%TD*%
%TO.C,C36*%
G36*
G01*
X72825000Y-157175000D02*
X72825000Y-158425000D01*
G75*
G02*
X72575000Y-158675000I-250000J0D01*
G01*
X71825000Y-158675000D01*
G75*
G02*
X71575000Y-158425000I0J250000D01*
G01*
X71575000Y-157175000D01*
G75*
G02*
X71825000Y-156925000I250000J0D01*
G01*
X72575000Y-156925000D01*
G75*
G02*
X72825000Y-157175000I0J-250000D01*
G01*
G37*
G36*
G01*
X75625000Y-157175000D02*
X75625000Y-158425000D01*
G75*
G02*
X75375000Y-158675000I-250000J0D01*
G01*
X74625000Y-158675000D01*
G75*
G02*
X74375000Y-158425000I0J250000D01*
G01*
X74375000Y-157175000D01*
G75*
G02*
X74625000Y-156925000I250000J0D01*
G01*
X75375000Y-156925000D01*
G75*
G02*
X75625000Y-157175000I0J-250000D01*
G01*
G37*
%TD*%
D12*
%TO.C,D2*%
X83800000Y-145200000D03*
X79500000Y-145200000D03*
%TD*%
%TO.C,D1*%
X92400000Y-162000000D03*
X88100000Y-162000000D03*
%TD*%
%TO.C,Z9*%
G36*
G01*
X139637500Y-114056250D02*
X139637500Y-113143750D01*
G75*
G02*
X139881250Y-112900000I243750J0D01*
G01*
X140368750Y-112900000D01*
G75*
G02*
X140612500Y-113143750I0J-243750D01*
G01*
X140612500Y-114056250D01*
G75*
G02*
X140368750Y-114300000I-243750J0D01*
G01*
X139881250Y-114300000D01*
G75*
G02*
X139637500Y-114056250I0J243750D01*
G01*
G37*
G36*
G01*
X137762500Y-114056250D02*
X137762500Y-113143750D01*
G75*
G02*
X138006250Y-112900000I243750J0D01*
G01*
X138493750Y-112900000D01*
G75*
G02*
X138737500Y-113143750I0J-243750D01*
G01*
X138737500Y-114056250D01*
G75*
G02*
X138493750Y-114300000I-243750J0D01*
G01*
X138006250Y-114300000D01*
G75*
G02*
X137762500Y-114056250I0J243750D01*
G01*
G37*
%TD*%
%TO.C,Z8*%
G36*
G01*
X136956250Y-114837500D02*
X136043750Y-114837500D01*
G75*
G02*
X135800000Y-114593750I0J243750D01*
G01*
X135800000Y-114106250D01*
G75*
G02*
X136043750Y-113862500I243750J0D01*
G01*
X136956250Y-113862500D01*
G75*
G02*
X137200000Y-114106250I0J-243750D01*
G01*
X137200000Y-114593750D01*
G75*
G02*
X136956250Y-114837500I-243750J0D01*
G01*
G37*
G36*
G01*
X136956250Y-116712500D02*
X136043750Y-116712500D01*
G75*
G02*
X135800000Y-116468750I0J243750D01*
G01*
X135800000Y-115981250D01*
G75*
G02*
X136043750Y-115737500I243750J0D01*
G01*
X136956250Y-115737500D01*
G75*
G02*
X137200000Y-115981250I0J-243750D01*
G01*
X137200000Y-116468750D01*
G75*
G02*
X136956250Y-116712500I-243750J0D01*
G01*
G37*
%TD*%
%TO.C,Z7*%
G36*
G01*
X136956250Y-111462500D02*
X136043750Y-111462500D01*
G75*
G02*
X135800000Y-111218750I0J243750D01*
G01*
X135800000Y-110731250D01*
G75*
G02*
X136043750Y-110487500I243750J0D01*
G01*
X136956250Y-110487500D01*
G75*
G02*
X137200000Y-110731250I0J-243750D01*
G01*
X137200000Y-111218750D01*
G75*
G02*
X136956250Y-111462500I-243750J0D01*
G01*
G37*
G36*
G01*
X136956250Y-113337500D02*
X136043750Y-113337500D01*
G75*
G02*
X135800000Y-113093750I0J243750D01*
G01*
X135800000Y-112606250D01*
G75*
G02*
X136043750Y-112362500I243750J0D01*
G01*
X136956250Y-112362500D01*
G75*
G02*
X137200000Y-112606250I0J-243750D01*
G01*
X137200000Y-113093750D01*
G75*
G02*
X136956250Y-113337500I-243750J0D01*
G01*
G37*
%TD*%
%TO.C,Z6*%
G36*
G01*
X134137500Y-115056250D02*
X134137500Y-114143750D01*
G75*
G02*
X134381250Y-113900000I243750J0D01*
G01*
X134868750Y-113900000D01*
G75*
G02*
X135112500Y-114143750I0J-243750D01*
G01*
X135112500Y-115056250D01*
G75*
G02*
X134868750Y-115300000I-243750J0D01*
G01*
X134381250Y-115300000D01*
G75*
G02*
X134137500Y-115056250I0J243750D01*
G01*
G37*
G36*
G01*
X132262500Y-115056250D02*
X132262500Y-114143750D01*
G75*
G02*
X132506250Y-113900000I243750J0D01*
G01*
X132993750Y-113900000D01*
G75*
G02*
X133237500Y-114143750I0J-243750D01*
G01*
X133237500Y-115056250D01*
G75*
G02*
X132993750Y-115300000I-243750J0D01*
G01*
X132506250Y-115300000D01*
G75*
G02*
X132262500Y-115056250I0J243750D01*
G01*
G37*
%TD*%
%TO.C,Z5*%
G36*
G01*
X134137500Y-113056250D02*
X134137500Y-112143750D01*
G75*
G02*
X134381250Y-111900000I243750J0D01*
G01*
X134868750Y-111900000D01*
G75*
G02*
X135112500Y-112143750I0J-243750D01*
G01*
X135112500Y-113056250D01*
G75*
G02*
X134868750Y-113300000I-243750J0D01*
G01*
X134381250Y-113300000D01*
G75*
G02*
X134137500Y-113056250I0J243750D01*
G01*
G37*
G36*
G01*
X132262500Y-113056250D02*
X132262500Y-112143750D01*
G75*
G02*
X132506250Y-111900000I243750J0D01*
G01*
X132993750Y-111900000D01*
G75*
G02*
X133237500Y-112143750I0J-243750D01*
G01*
X133237500Y-113056250D01*
G75*
G02*
X132993750Y-113300000I-243750J0D01*
G01*
X132506250Y-113300000D01*
G75*
G02*
X132262500Y-113056250I0J243750D01*
G01*
G37*
%TD*%
%TO.C,Z4*%
G36*
G01*
X131456250Y-111462500D02*
X130543750Y-111462500D01*
G75*
G02*
X130300000Y-111218750I0J243750D01*
G01*
X130300000Y-110731250D01*
G75*
G02*
X130543750Y-110487500I243750J0D01*
G01*
X131456250Y-110487500D01*
G75*
G02*
X131700000Y-110731250I0J-243750D01*
G01*
X131700000Y-111218750D01*
G75*
G02*
X131456250Y-111462500I-243750J0D01*
G01*
G37*
G36*
G01*
X131456250Y-113337500D02*
X130543750Y-113337500D01*
G75*
G02*
X130300000Y-113093750I0J243750D01*
G01*
X130300000Y-112606250D01*
G75*
G02*
X130543750Y-112362500I243750J0D01*
G01*
X131456250Y-112362500D01*
G75*
G02*
X131700000Y-112606250I0J-243750D01*
G01*
X131700000Y-113093750D01*
G75*
G02*
X131456250Y-113337500I-243750J0D01*
G01*
G37*
%TD*%
%TO.C,Z3*%
G36*
G01*
X131456250Y-114837500D02*
X130543750Y-114837500D01*
G75*
G02*
X130300000Y-114593750I0J243750D01*
G01*
X130300000Y-114106250D01*
G75*
G02*
X130543750Y-113862500I243750J0D01*
G01*
X131456250Y-113862500D01*
G75*
G02*
X131700000Y-114106250I0J-243750D01*
G01*
X131700000Y-114593750D01*
G75*
G02*
X131456250Y-114837500I-243750J0D01*
G01*
G37*
G36*
G01*
X131456250Y-116712500D02*
X130543750Y-116712500D01*
G75*
G02*
X130300000Y-116468750I0J243750D01*
G01*
X130300000Y-115981250D01*
G75*
G02*
X130543750Y-115737500I243750J0D01*
G01*
X131456250Y-115737500D01*
G75*
G02*
X131700000Y-115981250I0J-243750D01*
G01*
X131700000Y-116468750D01*
G75*
G02*
X131456250Y-116712500I-243750J0D01*
G01*
G37*
%TD*%
%TO.C,Z2*%
G36*
G01*
X127862500Y-114143750D02*
X127862500Y-115056250D01*
G75*
G02*
X127618750Y-115300000I-243750J0D01*
G01*
X127131250Y-115300000D01*
G75*
G02*
X126887500Y-115056250I0J243750D01*
G01*
X126887500Y-114143750D01*
G75*
G02*
X127131250Y-113900000I243750J0D01*
G01*
X127618750Y-113900000D01*
G75*
G02*
X127862500Y-114143750I0J-243750D01*
G01*
G37*
G36*
G01*
X129737500Y-114143750D02*
X129737500Y-115056250D01*
G75*
G02*
X129493750Y-115300000I-243750J0D01*
G01*
X129006250Y-115300000D01*
G75*
G02*
X128762500Y-115056250I0J243750D01*
G01*
X128762500Y-114143750D01*
G75*
G02*
X129006250Y-113900000I243750J0D01*
G01*
X129493750Y-113900000D01*
G75*
G02*
X129737500Y-114143750I0J-243750D01*
G01*
G37*
%TD*%
%TO.C,Z1*%
G36*
G01*
X127862500Y-112143750D02*
X127862500Y-113056250D01*
G75*
G02*
X127618750Y-113300000I-243750J0D01*
G01*
X127131250Y-113300000D01*
G75*
G02*
X126887500Y-113056250I0J243750D01*
G01*
X126887500Y-112143750D01*
G75*
G02*
X127131250Y-111900000I243750J0D01*
G01*
X127618750Y-111900000D01*
G75*
G02*
X127862500Y-112143750I0J-243750D01*
G01*
G37*
G36*
G01*
X129737500Y-112143750D02*
X129737500Y-113056250D01*
G75*
G02*
X129493750Y-113300000I-243750J0D01*
G01*
X129006250Y-113300000D01*
G75*
G02*
X128762500Y-113056250I0J243750D01*
G01*
X128762500Y-112143750D01*
G75*
G02*
X129006250Y-111900000I243750J0D01*
G01*
X129493750Y-111900000D01*
G75*
G02*
X129737500Y-112143750I0J-243750D01*
G01*
G37*
%TD*%
D13*
%TO.C,X1*%
X111950000Y-150875000D03*
X114050000Y-150875000D03*
X114050000Y-152525000D03*
X111950000Y-152525000D03*
%TD*%
%TO.C,U17*%
G36*
G01*
X145070000Y-114990000D02*
X145070000Y-115480000D01*
G75*
G02*
X144865000Y-115685000I-205000J0D01*
G01*
X144455000Y-115685000D01*
G75*
G02*
X144250000Y-115480000I0J205000D01*
G01*
X144250000Y-114990000D01*
G75*
G02*
X144455000Y-114785000I205000J0D01*
G01*
X144865000Y-114785000D01*
G75*
G02*
X145070000Y-114990000I0J-205000D01*
G01*
G37*
G36*
G01*
X145070000Y-116070000D02*
X145070000Y-116560000D01*
G75*
G02*
X144865000Y-116765000I-205000J0D01*
G01*
X144455000Y-116765000D01*
G75*
G02*
X144250000Y-116560000I0J205000D01*
G01*
X144250000Y-116070000D01*
G75*
G02*
X144455000Y-115865000I205000J0D01*
G01*
X144865000Y-115865000D01*
G75*
G02*
X145070000Y-116070000I0J-205000D01*
G01*
G37*
G36*
G01*
X146050000Y-114990000D02*
X146050000Y-115480000D01*
G75*
G02*
X145845000Y-115685000I-205000J0D01*
G01*
X145435000Y-115685000D01*
G75*
G02*
X145230000Y-115480000I0J205000D01*
G01*
X145230000Y-114990000D01*
G75*
G02*
X145435000Y-114785000I205000J0D01*
G01*
X145845000Y-114785000D01*
G75*
G02*
X146050000Y-114990000I0J-205000D01*
G01*
G37*
G36*
G01*
X146050000Y-116070000D02*
X146050000Y-116560000D01*
G75*
G02*
X145845000Y-116765000I-205000J0D01*
G01*
X145435000Y-116765000D01*
G75*
G02*
X145230000Y-116560000I0J205000D01*
G01*
X145230000Y-116070000D01*
G75*
G02*
X145435000Y-115865000I205000J0D01*
G01*
X145845000Y-115865000D01*
G75*
G02*
X146050000Y-116070000I0J-205000D01*
G01*
G37*
G36*
G01*
X143725000Y-116650000D02*
X143725000Y-116850000D01*
G75*
G02*
X143625000Y-116950000I-100000J0D01*
G01*
X142375000Y-116950000D01*
G75*
G02*
X142275000Y-116850000I0J100000D01*
G01*
X142275000Y-116650000D01*
G75*
G02*
X142375000Y-116550000I100000J0D01*
G01*
X143625000Y-116550000D01*
G75*
G02*
X143725000Y-116650000I0J-100000D01*
G01*
G37*
G36*
G01*
X143725000Y-116000000D02*
X143725000Y-116200000D01*
G75*
G02*
X143625000Y-116300000I-100000J0D01*
G01*
X142375000Y-116300000D01*
G75*
G02*
X142275000Y-116200000I0J100000D01*
G01*
X142275000Y-116000000D01*
G75*
G02*
X142375000Y-115900000I100000J0D01*
G01*
X143625000Y-115900000D01*
G75*
G02*
X143725000Y-116000000I0J-100000D01*
G01*
G37*
G36*
G01*
X143725000Y-115350000D02*
X143725000Y-115550000D01*
G75*
G02*
X143625000Y-115650000I-100000J0D01*
G01*
X142375000Y-115650000D01*
G75*
G02*
X142275000Y-115550000I0J100000D01*
G01*
X142275000Y-115350000D01*
G75*
G02*
X142375000Y-115250000I100000J0D01*
G01*
X143625000Y-115250000D01*
G75*
G02*
X143725000Y-115350000I0J-100000D01*
G01*
G37*
G36*
G01*
X143725000Y-114700000D02*
X143725000Y-114900000D01*
G75*
G02*
X143625000Y-115000000I-100000J0D01*
G01*
X142375000Y-115000000D01*
G75*
G02*
X142275000Y-114900000I0J100000D01*
G01*
X142275000Y-114700000D01*
G75*
G02*
X142375000Y-114600000I100000J0D01*
G01*
X143625000Y-114600000D01*
G75*
G02*
X143725000Y-114700000I0J-100000D01*
G01*
G37*
G36*
G01*
X148025000Y-114700000D02*
X148025000Y-114900000D01*
G75*
G02*
X147925000Y-115000000I-100000J0D01*
G01*
X146675000Y-115000000D01*
G75*
G02*
X146575000Y-114900000I0J100000D01*
G01*
X146575000Y-114700000D01*
G75*
G02*
X146675000Y-114600000I100000J0D01*
G01*
X147925000Y-114600000D01*
G75*
G02*
X148025000Y-114700000I0J-100000D01*
G01*
G37*
G36*
G01*
X148025000Y-115350000D02*
X148025000Y-115550000D01*
G75*
G02*
X147925000Y-115650000I-100000J0D01*
G01*
X146675000Y-115650000D01*
G75*
G02*
X146575000Y-115550000I0J100000D01*
G01*
X146575000Y-115350000D01*
G75*
G02*
X146675000Y-115250000I100000J0D01*
G01*
X147925000Y-115250000D01*
G75*
G02*
X148025000Y-115350000I0J-100000D01*
G01*
G37*
G36*
G01*
X148025000Y-116000000D02*
X148025000Y-116200000D01*
G75*
G02*
X147925000Y-116300000I-100000J0D01*
G01*
X146675000Y-116300000D01*
G75*
G02*
X146575000Y-116200000I0J100000D01*
G01*
X146575000Y-116000000D01*
G75*
G02*
X146675000Y-115900000I100000J0D01*
G01*
X147925000Y-115900000D01*
G75*
G02*
X148025000Y-116000000I0J-100000D01*
G01*
G37*
G36*
G01*
X148025000Y-116650000D02*
X148025000Y-116850000D01*
G75*
G02*
X147925000Y-116950000I-100000J0D01*
G01*
X146675000Y-116950000D01*
G75*
G02*
X146575000Y-116850000I0J100000D01*
G01*
X146575000Y-116650000D01*
G75*
G02*
X146675000Y-116550000I100000J0D01*
G01*
X147925000Y-116550000D01*
G75*
G02*
X148025000Y-116650000I0J-100000D01*
G01*
G37*
%TD*%
%TO.C,U16*%
G36*
G01*
X138800000Y-125637500D02*
X138800000Y-125462500D01*
G75*
G02*
X138887500Y-125375000I87500J0D01*
G01*
X139287500Y-125375000D01*
G75*
G02*
X139375000Y-125462500I0J-87500D01*
G01*
X139375000Y-125637500D01*
G75*
G02*
X139287500Y-125725000I-87500J0D01*
G01*
X138887500Y-125725000D01*
G75*
G02*
X138800000Y-125637500I0J87500D01*
G01*
G37*
G36*
G01*
X138800000Y-126137500D02*
X138800000Y-125962500D01*
G75*
G02*
X138887500Y-125875000I87500J0D01*
G01*
X139287500Y-125875000D01*
G75*
G02*
X139375000Y-125962500I0J-87500D01*
G01*
X139375000Y-126137500D01*
G75*
G02*
X139287500Y-126225000I-87500J0D01*
G01*
X138887500Y-126225000D01*
G75*
G02*
X138800000Y-126137500I0J87500D01*
G01*
G37*
G36*
G01*
X138800000Y-126637500D02*
X138800000Y-126462500D01*
G75*
G02*
X138887500Y-126375000I87500J0D01*
G01*
X139287500Y-126375000D01*
G75*
G02*
X139375000Y-126462500I0J-87500D01*
G01*
X139375000Y-126637500D01*
G75*
G02*
X139287500Y-126725000I-87500J0D01*
G01*
X138887500Y-126725000D01*
G75*
G02*
X138800000Y-126637500I0J87500D01*
G01*
G37*
G36*
G01*
X138800000Y-127137500D02*
X138800000Y-126962500D01*
G75*
G02*
X138887500Y-126875000I87500J0D01*
G01*
X139287500Y-126875000D01*
G75*
G02*
X139375000Y-126962500I0J-87500D01*
G01*
X139375000Y-127137500D01*
G75*
G02*
X139287500Y-127225000I-87500J0D01*
G01*
X138887500Y-127225000D01*
G75*
G02*
X138800000Y-127137500I0J87500D01*
G01*
G37*
G36*
G01*
X136225000Y-127137500D02*
X136225000Y-126962500D01*
G75*
G02*
X136312500Y-126875000I87500J0D01*
G01*
X136712500Y-126875000D01*
G75*
G02*
X136800000Y-126962500I0J-87500D01*
G01*
X136800000Y-127137500D01*
G75*
G02*
X136712500Y-127225000I-87500J0D01*
G01*
X136312500Y-127225000D01*
G75*
G02*
X136225000Y-127137500I0J87500D01*
G01*
G37*
G36*
G01*
X136225000Y-126637500D02*
X136225000Y-126462500D01*
G75*
G02*
X136312500Y-126375000I87500J0D01*
G01*
X136712500Y-126375000D01*
G75*
G02*
X136800000Y-126462500I0J-87500D01*
G01*
X136800000Y-126637500D01*
G75*
G02*
X136712500Y-126725000I-87500J0D01*
G01*
X136312500Y-126725000D01*
G75*
G02*
X136225000Y-126637500I0J87500D01*
G01*
G37*
G36*
G01*
X136225000Y-126137500D02*
X136225000Y-125962500D01*
G75*
G02*
X136312500Y-125875000I87500J0D01*
G01*
X136712500Y-125875000D01*
G75*
G02*
X136800000Y-125962500I0J-87500D01*
G01*
X136800000Y-126137500D01*
G75*
G02*
X136712500Y-126225000I-87500J0D01*
G01*
X136312500Y-126225000D01*
G75*
G02*
X136225000Y-126137500I0J87500D01*
G01*
G37*
G36*
G01*
X136225000Y-125637500D02*
X136225000Y-125462500D01*
G75*
G02*
X136312500Y-125375000I87500J0D01*
G01*
X136712500Y-125375000D01*
G75*
G02*
X136800000Y-125462500I0J-87500D01*
G01*
X136800000Y-125637500D01*
G75*
G02*
X136712500Y-125725000I-87500J0D01*
G01*
X136312500Y-125725000D01*
G75*
G02*
X136225000Y-125637500I0J87500D01*
G01*
G37*
G36*
G01*
X137875000Y-126940000D02*
X137875000Y-126530000D01*
G75*
G02*
X138020000Y-126385000I145000J0D01*
G01*
X138310000Y-126385000D01*
G75*
G02*
X138455000Y-126530000I0J-145000D01*
G01*
X138455000Y-126940000D01*
G75*
G02*
X138310000Y-127085000I-145000J0D01*
G01*
X138020000Y-127085000D01*
G75*
G02*
X137875000Y-126940000I0J145000D01*
G01*
G37*
G36*
G01*
X137875000Y-126070000D02*
X137875000Y-125660000D01*
G75*
G02*
X138020000Y-125515000I145000J0D01*
G01*
X138310000Y-125515000D01*
G75*
G02*
X138455000Y-125660000I0J-145000D01*
G01*
X138455000Y-126070000D01*
G75*
G02*
X138310000Y-126215000I-145000J0D01*
G01*
X138020000Y-126215000D01*
G75*
G02*
X137875000Y-126070000I0J145000D01*
G01*
G37*
G36*
G01*
X137145000Y-126940000D02*
X137145000Y-126530000D01*
G75*
G02*
X137290000Y-126385000I145000J0D01*
G01*
X137580000Y-126385000D01*
G75*
G02*
X137725000Y-126530000I0J-145000D01*
G01*
X137725000Y-126940000D01*
G75*
G02*
X137580000Y-127085000I-145000J0D01*
G01*
X137290000Y-127085000D01*
G75*
G02*
X137145000Y-126940000I0J145000D01*
G01*
G37*
G36*
G01*
X137145000Y-126070000D02*
X137145000Y-125660000D01*
G75*
G02*
X137290000Y-125515000I145000J0D01*
G01*
X137580000Y-125515000D01*
G75*
G02*
X137725000Y-125660000I0J-145000D01*
G01*
X137725000Y-126070000D01*
G75*
G02*
X137580000Y-126215000I-145000J0D01*
G01*
X137290000Y-126215000D01*
G75*
G02*
X137145000Y-126070000I0J145000D01*
G01*
G37*
%TD*%
D14*
%TO.C,U15*%
X107500000Y-160637500D03*
X107500000Y-159762500D03*
D15*
X106600000Y-160950000D03*
X106600000Y-160450000D03*
X106600000Y-159950000D03*
X106600000Y-159450000D03*
X108400000Y-159450000D03*
X108400000Y-159950000D03*
X108400000Y-160450000D03*
X108400000Y-160950000D03*
%TD*%
D16*
%TO.C,U14*%
G36*
X127933500Y-131100000D02*
G01*
X127933500Y-127975000D01*
X128350000Y-127975000D01*
X128350000Y-126500000D01*
X129250000Y-126500000D01*
X129250000Y-127975000D01*
X129666500Y-127975000D01*
X129666500Y-131100000D01*
X127933500Y-131100000D01*
G37*
D17*
X127300000Y-127150000D03*
X130300000Y-127150000D03*
%TD*%
D18*
%TO.C,U13*%
X117650000Y-153050000D03*
X118150000Y-153050000D03*
X118650000Y-153050000D03*
X119150000Y-153050000D03*
X119650000Y-153050000D03*
X120150000Y-153050000D03*
X120650000Y-153050000D03*
X121150000Y-153050000D03*
X121650000Y-153050000D03*
X122150000Y-153050000D03*
X122650000Y-153050000D03*
X123150000Y-153050000D03*
D19*
X124750000Y-154650000D03*
X124750000Y-155150000D03*
X124750000Y-155650000D03*
X124750000Y-156150000D03*
X124750000Y-156650000D03*
X124750000Y-157150000D03*
X124750000Y-157650000D03*
X124750000Y-158150000D03*
X124750000Y-158650000D03*
X124750000Y-159150000D03*
X124750000Y-159650000D03*
X124750000Y-160150000D03*
D18*
X123150000Y-161750000D03*
X122650000Y-161750000D03*
X122150000Y-161750000D03*
X121650000Y-161750000D03*
X121150000Y-161750000D03*
X120650000Y-161750000D03*
X120150000Y-161750000D03*
X119650000Y-161750000D03*
X119150000Y-161750000D03*
X118650000Y-161750000D03*
X118150000Y-161750000D03*
X117650000Y-161750000D03*
D19*
X116050000Y-160150000D03*
X116050000Y-159650000D03*
X116050000Y-159150000D03*
X116050000Y-158650000D03*
X116050000Y-158150000D03*
X116050000Y-157650000D03*
X116050000Y-157150000D03*
X116050000Y-156650000D03*
X116050000Y-156150000D03*
X116050000Y-155650000D03*
X116050000Y-155150000D03*
X116050000Y-154650000D03*
%TD*%
D16*
%TO.C,U12*%
G36*
X114733500Y-131700000D02*
G01*
X114733500Y-128575000D01*
X115150000Y-128575000D01*
X115150000Y-127100000D01*
X116050000Y-127100000D01*
X116050000Y-128575000D01*
X116466500Y-128575000D01*
X116466500Y-131700000D01*
X114733500Y-131700000D01*
G37*
D17*
X114100000Y-127750000D03*
X117100000Y-127750000D03*
%TD*%
D20*
%TO.C,U11*%
X89175000Y-156175000D03*
X94025000Y-150625000D03*
X89175000Y-150625000D03*
X94025000Y-156175000D03*
D21*
X82450000Y-156800000D03*
X82450000Y-155100000D03*
X82450000Y-153400000D03*
X82450000Y-151700000D03*
X82450000Y-150000000D03*
%TD*%
%TO.C,U10*%
G36*
G01*
X101900000Y-147675000D02*
X101900000Y-147875000D01*
G75*
G02*
X101800000Y-147975000I-100000J0D01*
G01*
X100375000Y-147975000D01*
G75*
G02*
X100275000Y-147875000I0J100000D01*
G01*
X100275000Y-147675000D01*
G75*
G02*
X100375000Y-147575000I100000J0D01*
G01*
X101800000Y-147575000D01*
G75*
G02*
X101900000Y-147675000I0J-100000D01*
G01*
G37*
G36*
G01*
X101900000Y-147025000D02*
X101900000Y-147225000D01*
G75*
G02*
X101800000Y-147325000I-100000J0D01*
G01*
X100375000Y-147325000D01*
G75*
G02*
X100275000Y-147225000I0J100000D01*
G01*
X100275000Y-147025000D01*
G75*
G02*
X100375000Y-146925000I100000J0D01*
G01*
X101800000Y-146925000D01*
G75*
G02*
X101900000Y-147025000I0J-100000D01*
G01*
G37*
G36*
G01*
X101900000Y-146375000D02*
X101900000Y-146575000D01*
G75*
G02*
X101800000Y-146675000I-100000J0D01*
G01*
X100375000Y-146675000D01*
G75*
G02*
X100275000Y-146575000I0J100000D01*
G01*
X100275000Y-146375000D01*
G75*
G02*
X100375000Y-146275000I100000J0D01*
G01*
X101800000Y-146275000D01*
G75*
G02*
X101900000Y-146375000I0J-100000D01*
G01*
G37*
G36*
G01*
X101900000Y-145725000D02*
X101900000Y-145925000D01*
G75*
G02*
X101800000Y-146025000I-100000J0D01*
G01*
X100375000Y-146025000D01*
G75*
G02*
X100275000Y-145925000I0J100000D01*
G01*
X100275000Y-145725000D01*
G75*
G02*
X100375000Y-145625000I100000J0D01*
G01*
X101800000Y-145625000D01*
G75*
G02*
X101900000Y-145725000I0J-100000D01*
G01*
G37*
G36*
G01*
X106125000Y-145725000D02*
X106125000Y-145925000D01*
G75*
G02*
X106025000Y-146025000I-100000J0D01*
G01*
X104600000Y-146025000D01*
G75*
G02*
X104500000Y-145925000I0J100000D01*
G01*
X104500000Y-145725000D01*
G75*
G02*
X104600000Y-145625000I100000J0D01*
G01*
X106025000Y-145625000D01*
G75*
G02*
X106125000Y-145725000I0J-100000D01*
G01*
G37*
G36*
G01*
X106125000Y-146375000D02*
X106125000Y-146575000D01*
G75*
G02*
X106025000Y-146675000I-100000J0D01*
G01*
X104600000Y-146675000D01*
G75*
G02*
X104500000Y-146575000I0J100000D01*
G01*
X104500000Y-146375000D01*
G75*
G02*
X104600000Y-146275000I100000J0D01*
G01*
X106025000Y-146275000D01*
G75*
G02*
X106125000Y-146375000I0J-100000D01*
G01*
G37*
G36*
G01*
X106125000Y-147025000D02*
X106125000Y-147225000D01*
G75*
G02*
X106025000Y-147325000I-100000J0D01*
G01*
X104600000Y-147325000D01*
G75*
G02*
X104500000Y-147225000I0J100000D01*
G01*
X104500000Y-147025000D01*
G75*
G02*
X104600000Y-146925000I100000J0D01*
G01*
X106025000Y-146925000D01*
G75*
G02*
X106125000Y-147025000I0J-100000D01*
G01*
G37*
G36*
G01*
X106125000Y-147675000D02*
X106125000Y-147875000D01*
G75*
G02*
X106025000Y-147975000I-100000J0D01*
G01*
X104600000Y-147975000D01*
G75*
G02*
X104500000Y-147875000I0J100000D01*
G01*
X104500000Y-147675000D01*
G75*
G02*
X104600000Y-147575000I100000J0D01*
G01*
X106025000Y-147575000D01*
G75*
G02*
X106125000Y-147675000I0J-100000D01*
G01*
G37*
%TD*%
D22*
%TO.C,U9*%
X141300000Y-139500000D03*
X141300000Y-141400000D03*
X139100000Y-141400000D03*
X139100000Y-140450000D03*
X139100000Y-139500000D03*
%TD*%
D23*
%TO.C,U8*%
X120080000Y-100800000D03*
X120080000Y-103340000D03*
X120080000Y-105880000D03*
X115000000Y-105880000D03*
X115000000Y-103340000D03*
X115000000Y-100800000D03*
%TD*%
%TO.C,U7*%
X104928000Y-113490000D03*
X104928000Y-116030000D03*
X104928000Y-118570000D03*
X110008000Y-113490000D03*
X110008000Y-116030000D03*
X110008000Y-118570000D03*
%TD*%
%TO.C,U6*%
G36*
G01*
X105912500Y-102987500D02*
X105912500Y-102812500D01*
G75*
G02*
X106000000Y-102725000I87500J0D01*
G01*
X106400000Y-102725000D01*
G75*
G02*
X106487500Y-102812500I0J-87500D01*
G01*
X106487500Y-102987500D01*
G75*
G02*
X106400000Y-103075000I-87500J0D01*
G01*
X106000000Y-103075000D01*
G75*
G02*
X105912500Y-102987500I0J87500D01*
G01*
G37*
G36*
G01*
X105912500Y-103487500D02*
X105912500Y-103312500D01*
G75*
G02*
X106000000Y-103225000I87500J0D01*
G01*
X106400000Y-103225000D01*
G75*
G02*
X106487500Y-103312500I0J-87500D01*
G01*
X106487500Y-103487500D01*
G75*
G02*
X106400000Y-103575000I-87500J0D01*
G01*
X106000000Y-103575000D01*
G75*
G02*
X105912500Y-103487500I0J87500D01*
G01*
G37*
G36*
G01*
X105912500Y-103987500D02*
X105912500Y-103812500D01*
G75*
G02*
X106000000Y-103725000I87500J0D01*
G01*
X106400000Y-103725000D01*
G75*
G02*
X106487500Y-103812500I0J-87500D01*
G01*
X106487500Y-103987500D01*
G75*
G02*
X106400000Y-104075000I-87500J0D01*
G01*
X106000000Y-104075000D01*
G75*
G02*
X105912500Y-103987500I0J87500D01*
G01*
G37*
G36*
G01*
X105912500Y-104487500D02*
X105912500Y-104312500D01*
G75*
G02*
X106000000Y-104225000I87500J0D01*
G01*
X106400000Y-104225000D01*
G75*
G02*
X106487500Y-104312500I0J-87500D01*
G01*
X106487500Y-104487500D01*
G75*
G02*
X106400000Y-104575000I-87500J0D01*
G01*
X106000000Y-104575000D01*
G75*
G02*
X105912500Y-104487500I0J87500D01*
G01*
G37*
G36*
G01*
X103337500Y-104487500D02*
X103337500Y-104312500D01*
G75*
G02*
X103425000Y-104225000I87500J0D01*
G01*
X103825000Y-104225000D01*
G75*
G02*
X103912500Y-104312500I0J-87500D01*
G01*
X103912500Y-104487500D01*
G75*
G02*
X103825000Y-104575000I-87500J0D01*
G01*
X103425000Y-104575000D01*
G75*
G02*
X103337500Y-104487500I0J87500D01*
G01*
G37*
G36*
G01*
X103337500Y-103987500D02*
X103337500Y-103812500D01*
G75*
G02*
X103425000Y-103725000I87500J0D01*
G01*
X103825000Y-103725000D01*
G75*
G02*
X103912500Y-103812500I0J-87500D01*
G01*
X103912500Y-103987500D01*
G75*
G02*
X103825000Y-104075000I-87500J0D01*
G01*
X103425000Y-104075000D01*
G75*
G02*
X103337500Y-103987500I0J87500D01*
G01*
G37*
G36*
G01*
X103337500Y-103487500D02*
X103337500Y-103312500D01*
G75*
G02*
X103425000Y-103225000I87500J0D01*
G01*
X103825000Y-103225000D01*
G75*
G02*
X103912500Y-103312500I0J-87500D01*
G01*
X103912500Y-103487500D01*
G75*
G02*
X103825000Y-103575000I-87500J0D01*
G01*
X103425000Y-103575000D01*
G75*
G02*
X103337500Y-103487500I0J87500D01*
G01*
G37*
G36*
G01*
X103337500Y-102987500D02*
X103337500Y-102812500D01*
G75*
G02*
X103425000Y-102725000I87500J0D01*
G01*
X103825000Y-102725000D01*
G75*
G02*
X103912500Y-102812500I0J-87500D01*
G01*
X103912500Y-102987500D01*
G75*
G02*
X103825000Y-103075000I-87500J0D01*
G01*
X103425000Y-103075000D01*
G75*
G02*
X103337500Y-102987500I0J87500D01*
G01*
G37*
G36*
G01*
X104987500Y-104290000D02*
X104987500Y-103880000D01*
G75*
G02*
X105132500Y-103735000I145000J0D01*
G01*
X105422500Y-103735000D01*
G75*
G02*
X105567500Y-103880000I0J-145000D01*
G01*
X105567500Y-104290000D01*
G75*
G02*
X105422500Y-104435000I-145000J0D01*
G01*
X105132500Y-104435000D01*
G75*
G02*
X104987500Y-104290000I0J145000D01*
G01*
G37*
G36*
G01*
X104987500Y-103420000D02*
X104987500Y-103010000D01*
G75*
G02*
X105132500Y-102865000I145000J0D01*
G01*
X105422500Y-102865000D01*
G75*
G02*
X105567500Y-103010000I0J-145000D01*
G01*
X105567500Y-103420000D01*
G75*
G02*
X105422500Y-103565000I-145000J0D01*
G01*
X105132500Y-103565000D01*
G75*
G02*
X104987500Y-103420000I0J145000D01*
G01*
G37*
G36*
G01*
X104257500Y-104290000D02*
X104257500Y-103880000D01*
G75*
G02*
X104402500Y-103735000I145000J0D01*
G01*
X104692500Y-103735000D01*
G75*
G02*
X104837500Y-103880000I0J-145000D01*
G01*
X104837500Y-104290000D01*
G75*
G02*
X104692500Y-104435000I-145000J0D01*
G01*
X104402500Y-104435000D01*
G75*
G02*
X104257500Y-104290000I0J145000D01*
G01*
G37*
G36*
G01*
X104257500Y-103420000D02*
X104257500Y-103010000D01*
G75*
G02*
X104402500Y-102865000I145000J0D01*
G01*
X104692500Y-102865000D01*
G75*
G02*
X104837500Y-103010000I0J-145000D01*
G01*
X104837500Y-103420000D01*
G75*
G02*
X104692500Y-103565000I-145000J0D01*
G01*
X104402500Y-103565000D01*
G75*
G02*
X104257500Y-103420000I0J145000D01*
G01*
G37*
%TD*%
%TO.C,U5*%
G36*
G01*
X88745000Y-166900000D02*
X88445000Y-166900000D01*
G75*
G02*
X88295000Y-166750000I0J150000D01*
G01*
X88295000Y-165100000D01*
G75*
G02*
X88445000Y-164950000I150000J0D01*
G01*
X88745000Y-164950000D01*
G75*
G02*
X88895000Y-165100000I0J-150000D01*
G01*
X88895000Y-166750000D01*
G75*
G02*
X88745000Y-166900000I-150000J0D01*
G01*
G37*
G36*
G01*
X90015000Y-166900000D02*
X89715000Y-166900000D01*
G75*
G02*
X89565000Y-166750000I0J150000D01*
G01*
X89565000Y-165100000D01*
G75*
G02*
X89715000Y-164950000I150000J0D01*
G01*
X90015000Y-164950000D01*
G75*
G02*
X90165000Y-165100000I0J-150000D01*
G01*
X90165000Y-166750000D01*
G75*
G02*
X90015000Y-166900000I-150000J0D01*
G01*
G37*
G36*
G01*
X91285000Y-166900000D02*
X90985000Y-166900000D01*
G75*
G02*
X90835000Y-166750000I0J150000D01*
G01*
X90835000Y-165100000D01*
G75*
G02*
X90985000Y-164950000I150000J0D01*
G01*
X91285000Y-164950000D01*
G75*
G02*
X91435000Y-165100000I0J-150000D01*
G01*
X91435000Y-166750000D01*
G75*
G02*
X91285000Y-166900000I-150000J0D01*
G01*
G37*
G36*
G01*
X92555000Y-166900000D02*
X92255000Y-166900000D01*
G75*
G02*
X92105000Y-166750000I0J150000D01*
G01*
X92105000Y-165100000D01*
G75*
G02*
X92255000Y-164950000I150000J0D01*
G01*
X92555000Y-164950000D01*
G75*
G02*
X92705000Y-165100000I0J-150000D01*
G01*
X92705000Y-166750000D01*
G75*
G02*
X92555000Y-166900000I-150000J0D01*
G01*
G37*
G36*
G01*
X92555000Y-171850000D02*
X92255000Y-171850000D01*
G75*
G02*
X92105000Y-171700000I0J150000D01*
G01*
X92105000Y-170050000D01*
G75*
G02*
X92255000Y-169900000I150000J0D01*
G01*
X92555000Y-169900000D01*
G75*
G02*
X92705000Y-170050000I0J-150000D01*
G01*
X92705000Y-171700000D01*
G75*
G02*
X92555000Y-171850000I-150000J0D01*
G01*
G37*
G36*
G01*
X91285000Y-171850000D02*
X90985000Y-171850000D01*
G75*
G02*
X90835000Y-171700000I0J150000D01*
G01*
X90835000Y-170050000D01*
G75*
G02*
X90985000Y-169900000I150000J0D01*
G01*
X91285000Y-169900000D01*
G75*
G02*
X91435000Y-170050000I0J-150000D01*
G01*
X91435000Y-171700000D01*
G75*
G02*
X91285000Y-171850000I-150000J0D01*
G01*
G37*
G36*
G01*
X90015000Y-171850000D02*
X89715000Y-171850000D01*
G75*
G02*
X89565000Y-171700000I0J150000D01*
G01*
X89565000Y-170050000D01*
G75*
G02*
X89715000Y-169900000I150000J0D01*
G01*
X90015000Y-169900000D01*
G75*
G02*
X90165000Y-170050000I0J-150000D01*
G01*
X90165000Y-171700000D01*
G75*
G02*
X90015000Y-171850000I-150000J0D01*
G01*
G37*
G36*
G01*
X88745000Y-171850000D02*
X88445000Y-171850000D01*
G75*
G02*
X88295000Y-171700000I0J150000D01*
G01*
X88295000Y-170050000D01*
G75*
G02*
X88445000Y-169900000I150000J0D01*
G01*
X88745000Y-169900000D01*
G75*
G02*
X88895000Y-170050000I0J-150000D01*
G01*
X88895000Y-171700000D01*
G75*
G02*
X88745000Y-171850000I-150000J0D01*
G01*
G37*
%TD*%
D24*
%TO.C,U4*%
X126664000Y-140395000D03*
X126664000Y-142300000D03*
X126664000Y-144205000D03*
X118536000Y-144205000D03*
X118536000Y-142300000D03*
X118536000Y-140395000D03*
D25*
X122600000Y-146364000D03*
X122600000Y-138236000D03*
%TD*%
D26*
%TO.C,U3*%
X99076000Y-99703600D03*
X99076000Y-110244600D03*
X93996000Y-99703600D03*
X93996000Y-110244600D03*
X88916000Y-99703600D03*
X88916000Y-110244600D03*
X83836000Y-99703600D03*
X83836000Y-110244600D03*
%TD*%
%TO.C,U2*%
G36*
G01*
X78807500Y-134930000D02*
X78807500Y-134420000D01*
G75*
G02*
X79057500Y-134170000I250000J0D01*
G01*
X79567500Y-134170000D01*
G75*
G02*
X79817500Y-134420000I0J-250000D01*
G01*
X79817500Y-134930000D01*
G75*
G02*
X79567500Y-135180000I-250000J0D01*
G01*
X79057500Y-135180000D01*
G75*
G02*
X78807500Y-134930000I0J250000D01*
G01*
G37*
G36*
G01*
X78807500Y-133680000D02*
X78807500Y-133170000D01*
G75*
G02*
X79057500Y-132920000I250000J0D01*
G01*
X79567500Y-132920000D01*
G75*
G02*
X79817500Y-133170000I0J-250000D01*
G01*
X79817500Y-133680000D01*
G75*
G02*
X79567500Y-133930000I-250000J0D01*
G01*
X79057500Y-133930000D01*
G75*
G02*
X78807500Y-133680000I0J250000D01*
G01*
G37*
G36*
G01*
X78807500Y-132430000D02*
X78807500Y-131920000D01*
G75*
G02*
X79057500Y-131670000I250000J0D01*
G01*
X79567500Y-131670000D01*
G75*
G02*
X79817500Y-131920000I0J-250000D01*
G01*
X79817500Y-132430000D01*
G75*
G02*
X79567500Y-132680000I-250000J0D01*
G01*
X79057500Y-132680000D01*
G75*
G02*
X78807500Y-132430000I0J250000D01*
G01*
G37*
G36*
G01*
X78807500Y-131180000D02*
X78807500Y-130670000D01*
G75*
G02*
X79057500Y-130420000I250000J0D01*
G01*
X79567500Y-130420000D01*
G75*
G02*
X79817500Y-130670000I0J-250000D01*
G01*
X79817500Y-131180000D01*
G75*
G02*
X79567500Y-131430000I-250000J0D01*
G01*
X79057500Y-131430000D01*
G75*
G02*
X78807500Y-131180000I0J250000D01*
G01*
G37*
G36*
G01*
X77557500Y-134930000D02*
X77557500Y-134420000D01*
G75*
G02*
X77807500Y-134170000I250000J0D01*
G01*
X78317500Y-134170000D01*
G75*
G02*
X78567500Y-134420000I0J-250000D01*
G01*
X78567500Y-134930000D01*
G75*
G02*
X78317500Y-135180000I-250000J0D01*
G01*
X77807500Y-135180000D01*
G75*
G02*
X77557500Y-134930000I0J250000D01*
G01*
G37*
G36*
G01*
X77557500Y-133680000D02*
X77557500Y-133170000D01*
G75*
G02*
X77807500Y-132920000I250000J0D01*
G01*
X78317500Y-132920000D01*
G75*
G02*
X78567500Y-133170000I0J-250000D01*
G01*
X78567500Y-133680000D01*
G75*
G02*
X78317500Y-133930000I-250000J0D01*
G01*
X77807500Y-133930000D01*
G75*
G02*
X77557500Y-133680000I0J250000D01*
G01*
G37*
G36*
G01*
X77557500Y-132430000D02*
X77557500Y-131920000D01*
G75*
G02*
X77807500Y-131670000I250000J0D01*
G01*
X78317500Y-131670000D01*
G75*
G02*
X78567500Y-131920000I0J-250000D01*
G01*
X78567500Y-132430000D01*
G75*
G02*
X78317500Y-132680000I-250000J0D01*
G01*
X77807500Y-132680000D01*
G75*
G02*
X77557500Y-132430000I0J250000D01*
G01*
G37*
G36*
G01*
X77557500Y-131180000D02*
X77557500Y-130670000D01*
G75*
G02*
X77807500Y-130420000I250000J0D01*
G01*
X78317500Y-130420000D01*
G75*
G02*
X78567500Y-130670000I0J-250000D01*
G01*
X78567500Y-131180000D01*
G75*
G02*
X78317500Y-131430000I-250000J0D01*
G01*
X77807500Y-131430000D01*
G75*
G02*
X77557500Y-131180000I0J250000D01*
G01*
G37*
G36*
G01*
X76307500Y-134930000D02*
X76307500Y-134420000D01*
G75*
G02*
X76557500Y-134170000I250000J0D01*
G01*
X77067500Y-134170000D01*
G75*
G02*
X77317500Y-134420000I0J-250000D01*
G01*
X77317500Y-134930000D01*
G75*
G02*
X77067500Y-135180000I-250000J0D01*
G01*
X76557500Y-135180000D01*
G75*
G02*
X76307500Y-134930000I0J250000D01*
G01*
G37*
G36*
G01*
X76307500Y-133680000D02*
X76307500Y-133170000D01*
G75*
G02*
X76557500Y-132920000I250000J0D01*
G01*
X77067500Y-132920000D01*
G75*
G02*
X77317500Y-133170000I0J-250000D01*
G01*
X77317500Y-133680000D01*
G75*
G02*
X77067500Y-133930000I-250000J0D01*
G01*
X76557500Y-133930000D01*
G75*
G02*
X76307500Y-133680000I0J250000D01*
G01*
G37*
G36*
G01*
X76307500Y-132430000D02*
X76307500Y-131920000D01*
G75*
G02*
X76557500Y-131670000I250000J0D01*
G01*
X77067500Y-131670000D01*
G75*
G02*
X77317500Y-131920000I0J-250000D01*
G01*
X77317500Y-132430000D01*
G75*
G02*
X77067500Y-132680000I-250000J0D01*
G01*
X76557500Y-132680000D01*
G75*
G02*
X76307500Y-132430000I0J250000D01*
G01*
G37*
G36*
G01*
X76307500Y-131180000D02*
X76307500Y-130670000D01*
G75*
G02*
X76557500Y-130420000I250000J0D01*
G01*
X77067500Y-130420000D01*
G75*
G02*
X77317500Y-130670000I0J-250000D01*
G01*
X77317500Y-131180000D01*
G75*
G02*
X77067500Y-131430000I-250000J0D01*
G01*
X76557500Y-131430000D01*
G75*
G02*
X76307500Y-131180000I0J250000D01*
G01*
G37*
G36*
G01*
X75057500Y-134930000D02*
X75057500Y-134420000D01*
G75*
G02*
X75307500Y-134170000I250000J0D01*
G01*
X75817500Y-134170000D01*
G75*
G02*
X76067500Y-134420000I0J-250000D01*
G01*
X76067500Y-134930000D01*
G75*
G02*
X75817500Y-135180000I-250000J0D01*
G01*
X75307500Y-135180000D01*
G75*
G02*
X75057500Y-134930000I0J250000D01*
G01*
G37*
G36*
G01*
X75057500Y-133680000D02*
X75057500Y-133170000D01*
G75*
G02*
X75307500Y-132920000I250000J0D01*
G01*
X75817500Y-132920000D01*
G75*
G02*
X76067500Y-133170000I0J-250000D01*
G01*
X76067500Y-133680000D01*
G75*
G02*
X75817500Y-133930000I-250000J0D01*
G01*
X75307500Y-133930000D01*
G75*
G02*
X75057500Y-133680000I0J250000D01*
G01*
G37*
G36*
G01*
X75057500Y-132430000D02*
X75057500Y-131920000D01*
G75*
G02*
X75307500Y-131670000I250000J0D01*
G01*
X75817500Y-131670000D01*
G75*
G02*
X76067500Y-131920000I0J-250000D01*
G01*
X76067500Y-132430000D01*
G75*
G02*
X75817500Y-132680000I-250000J0D01*
G01*
X75307500Y-132680000D01*
G75*
G02*
X75057500Y-132430000I0J250000D01*
G01*
G37*
G36*
G01*
X75057500Y-131180000D02*
X75057500Y-130670000D01*
G75*
G02*
X75307500Y-130420000I250000J0D01*
G01*
X75817500Y-130420000D01*
G75*
G02*
X76067500Y-130670000I0J-250000D01*
G01*
X76067500Y-131180000D01*
G75*
G02*
X75817500Y-131430000I-250000J0D01*
G01*
X75307500Y-131430000D01*
G75*
G02*
X75057500Y-131180000I0J250000D01*
G01*
G37*
G36*
G01*
X71287500Y-125800000D02*
X71287500Y-124475000D01*
G75*
G02*
X71362500Y-124400000I75000J0D01*
G01*
X71512500Y-124400000D01*
G75*
G02*
X71587500Y-124475000I0J-75000D01*
G01*
X71587500Y-125800000D01*
G75*
G02*
X71512500Y-125875000I-75000J0D01*
G01*
X71362500Y-125875000D01*
G75*
G02*
X71287500Y-125800000I0J75000D01*
G01*
G37*
G36*
G01*
X71787500Y-125800000D02*
X71787500Y-124475000D01*
G75*
G02*
X71862500Y-124400000I75000J0D01*
G01*
X72012500Y-124400000D01*
G75*
G02*
X72087500Y-124475000I0J-75000D01*
G01*
X72087500Y-125800000D01*
G75*
G02*
X72012500Y-125875000I-75000J0D01*
G01*
X71862500Y-125875000D01*
G75*
G02*
X71787500Y-125800000I0J75000D01*
G01*
G37*
G36*
G01*
X72287500Y-125800000D02*
X72287500Y-124475000D01*
G75*
G02*
X72362500Y-124400000I75000J0D01*
G01*
X72512500Y-124400000D01*
G75*
G02*
X72587500Y-124475000I0J-75000D01*
G01*
X72587500Y-125800000D01*
G75*
G02*
X72512500Y-125875000I-75000J0D01*
G01*
X72362500Y-125875000D01*
G75*
G02*
X72287500Y-125800000I0J75000D01*
G01*
G37*
G36*
G01*
X72787500Y-125800000D02*
X72787500Y-124475000D01*
G75*
G02*
X72862500Y-124400000I75000J0D01*
G01*
X73012500Y-124400000D01*
G75*
G02*
X73087500Y-124475000I0J-75000D01*
G01*
X73087500Y-125800000D01*
G75*
G02*
X73012500Y-125875000I-75000J0D01*
G01*
X72862500Y-125875000D01*
G75*
G02*
X72787500Y-125800000I0J75000D01*
G01*
G37*
G36*
G01*
X73287500Y-125800000D02*
X73287500Y-124475000D01*
G75*
G02*
X73362500Y-124400000I75000J0D01*
G01*
X73512500Y-124400000D01*
G75*
G02*
X73587500Y-124475000I0J-75000D01*
G01*
X73587500Y-125800000D01*
G75*
G02*
X73512500Y-125875000I-75000J0D01*
G01*
X73362500Y-125875000D01*
G75*
G02*
X73287500Y-125800000I0J75000D01*
G01*
G37*
G36*
G01*
X73787500Y-125800000D02*
X73787500Y-124475000D01*
G75*
G02*
X73862500Y-124400000I75000J0D01*
G01*
X74012500Y-124400000D01*
G75*
G02*
X74087500Y-124475000I0J-75000D01*
G01*
X74087500Y-125800000D01*
G75*
G02*
X74012500Y-125875000I-75000J0D01*
G01*
X73862500Y-125875000D01*
G75*
G02*
X73787500Y-125800000I0J75000D01*
G01*
G37*
G36*
G01*
X74287500Y-125800000D02*
X74287500Y-124475000D01*
G75*
G02*
X74362500Y-124400000I75000J0D01*
G01*
X74512500Y-124400000D01*
G75*
G02*
X74587500Y-124475000I0J-75000D01*
G01*
X74587500Y-125800000D01*
G75*
G02*
X74512500Y-125875000I-75000J0D01*
G01*
X74362500Y-125875000D01*
G75*
G02*
X74287500Y-125800000I0J75000D01*
G01*
G37*
G36*
G01*
X74787500Y-125800000D02*
X74787500Y-124475000D01*
G75*
G02*
X74862500Y-124400000I75000J0D01*
G01*
X75012500Y-124400000D01*
G75*
G02*
X75087500Y-124475000I0J-75000D01*
G01*
X75087500Y-125800000D01*
G75*
G02*
X75012500Y-125875000I-75000J0D01*
G01*
X74862500Y-125875000D01*
G75*
G02*
X74787500Y-125800000I0J75000D01*
G01*
G37*
G36*
G01*
X75287500Y-125800000D02*
X75287500Y-124475000D01*
G75*
G02*
X75362500Y-124400000I75000J0D01*
G01*
X75512500Y-124400000D01*
G75*
G02*
X75587500Y-124475000I0J-75000D01*
G01*
X75587500Y-125800000D01*
G75*
G02*
X75512500Y-125875000I-75000J0D01*
G01*
X75362500Y-125875000D01*
G75*
G02*
X75287500Y-125800000I0J75000D01*
G01*
G37*
G36*
G01*
X75787500Y-125800000D02*
X75787500Y-124475000D01*
G75*
G02*
X75862500Y-124400000I75000J0D01*
G01*
X76012500Y-124400000D01*
G75*
G02*
X76087500Y-124475000I0J-75000D01*
G01*
X76087500Y-125800000D01*
G75*
G02*
X76012500Y-125875000I-75000J0D01*
G01*
X75862500Y-125875000D01*
G75*
G02*
X75787500Y-125800000I0J75000D01*
G01*
G37*
G36*
G01*
X76287500Y-125800000D02*
X76287500Y-124475000D01*
G75*
G02*
X76362500Y-124400000I75000J0D01*
G01*
X76512500Y-124400000D01*
G75*
G02*
X76587500Y-124475000I0J-75000D01*
G01*
X76587500Y-125800000D01*
G75*
G02*
X76512500Y-125875000I-75000J0D01*
G01*
X76362500Y-125875000D01*
G75*
G02*
X76287500Y-125800000I0J75000D01*
G01*
G37*
G36*
G01*
X76787500Y-125800000D02*
X76787500Y-124475000D01*
G75*
G02*
X76862500Y-124400000I75000J0D01*
G01*
X77012500Y-124400000D01*
G75*
G02*
X77087500Y-124475000I0J-75000D01*
G01*
X77087500Y-125800000D01*
G75*
G02*
X77012500Y-125875000I-75000J0D01*
G01*
X76862500Y-125875000D01*
G75*
G02*
X76787500Y-125800000I0J75000D01*
G01*
G37*
G36*
G01*
X77287500Y-125800000D02*
X77287500Y-124475000D01*
G75*
G02*
X77362500Y-124400000I75000J0D01*
G01*
X77512500Y-124400000D01*
G75*
G02*
X77587500Y-124475000I0J-75000D01*
G01*
X77587500Y-125800000D01*
G75*
G02*
X77512500Y-125875000I-75000J0D01*
G01*
X77362500Y-125875000D01*
G75*
G02*
X77287500Y-125800000I0J75000D01*
G01*
G37*
G36*
G01*
X77787500Y-125800000D02*
X77787500Y-124475000D01*
G75*
G02*
X77862500Y-124400000I75000J0D01*
G01*
X78012500Y-124400000D01*
G75*
G02*
X78087500Y-124475000I0J-75000D01*
G01*
X78087500Y-125800000D01*
G75*
G02*
X78012500Y-125875000I-75000J0D01*
G01*
X77862500Y-125875000D01*
G75*
G02*
X77787500Y-125800000I0J75000D01*
G01*
G37*
G36*
G01*
X78287500Y-125800000D02*
X78287500Y-124475000D01*
G75*
G02*
X78362500Y-124400000I75000J0D01*
G01*
X78512500Y-124400000D01*
G75*
G02*
X78587500Y-124475000I0J-75000D01*
G01*
X78587500Y-125800000D01*
G75*
G02*
X78512500Y-125875000I-75000J0D01*
G01*
X78362500Y-125875000D01*
G75*
G02*
X78287500Y-125800000I0J75000D01*
G01*
G37*
G36*
G01*
X78787500Y-125800000D02*
X78787500Y-124475000D01*
G75*
G02*
X78862500Y-124400000I75000J0D01*
G01*
X79012500Y-124400000D01*
G75*
G02*
X79087500Y-124475000I0J-75000D01*
G01*
X79087500Y-125800000D01*
G75*
G02*
X79012500Y-125875000I-75000J0D01*
G01*
X78862500Y-125875000D01*
G75*
G02*
X78787500Y-125800000I0J75000D01*
G01*
G37*
G36*
G01*
X79287500Y-125800000D02*
X79287500Y-124475000D01*
G75*
G02*
X79362500Y-124400000I75000J0D01*
G01*
X79512500Y-124400000D01*
G75*
G02*
X79587500Y-124475000I0J-75000D01*
G01*
X79587500Y-125800000D01*
G75*
G02*
X79512500Y-125875000I-75000J0D01*
G01*
X79362500Y-125875000D01*
G75*
G02*
X79287500Y-125800000I0J75000D01*
G01*
G37*
G36*
G01*
X79787500Y-125800000D02*
X79787500Y-124475000D01*
G75*
G02*
X79862500Y-124400000I75000J0D01*
G01*
X80012500Y-124400000D01*
G75*
G02*
X80087500Y-124475000I0J-75000D01*
G01*
X80087500Y-125800000D01*
G75*
G02*
X80012500Y-125875000I-75000J0D01*
G01*
X79862500Y-125875000D01*
G75*
G02*
X79787500Y-125800000I0J75000D01*
G01*
G37*
G36*
G01*
X80287500Y-125800000D02*
X80287500Y-124475000D01*
G75*
G02*
X80362500Y-124400000I75000J0D01*
G01*
X80512500Y-124400000D01*
G75*
G02*
X80587500Y-124475000I0J-75000D01*
G01*
X80587500Y-125800000D01*
G75*
G02*
X80512500Y-125875000I-75000J0D01*
G01*
X80362500Y-125875000D01*
G75*
G02*
X80287500Y-125800000I0J75000D01*
G01*
G37*
G36*
G01*
X80787500Y-125800000D02*
X80787500Y-124475000D01*
G75*
G02*
X80862500Y-124400000I75000J0D01*
G01*
X81012500Y-124400000D01*
G75*
G02*
X81087500Y-124475000I0J-75000D01*
G01*
X81087500Y-125800000D01*
G75*
G02*
X81012500Y-125875000I-75000J0D01*
G01*
X80862500Y-125875000D01*
G75*
G02*
X80787500Y-125800000I0J75000D01*
G01*
G37*
G36*
G01*
X81287500Y-125800000D02*
X81287500Y-124475000D01*
G75*
G02*
X81362500Y-124400000I75000J0D01*
G01*
X81512500Y-124400000D01*
G75*
G02*
X81587500Y-124475000I0J-75000D01*
G01*
X81587500Y-125800000D01*
G75*
G02*
X81512500Y-125875000I-75000J0D01*
G01*
X81362500Y-125875000D01*
G75*
G02*
X81287500Y-125800000I0J75000D01*
G01*
G37*
G36*
G01*
X81787500Y-125800000D02*
X81787500Y-124475000D01*
G75*
G02*
X81862500Y-124400000I75000J0D01*
G01*
X82012500Y-124400000D01*
G75*
G02*
X82087500Y-124475000I0J-75000D01*
G01*
X82087500Y-125800000D01*
G75*
G02*
X82012500Y-125875000I-75000J0D01*
G01*
X81862500Y-125875000D01*
G75*
G02*
X81787500Y-125800000I0J75000D01*
G01*
G37*
G36*
G01*
X82287500Y-125800000D02*
X82287500Y-124475000D01*
G75*
G02*
X82362500Y-124400000I75000J0D01*
G01*
X82512500Y-124400000D01*
G75*
G02*
X82587500Y-124475000I0J-75000D01*
G01*
X82587500Y-125800000D01*
G75*
G02*
X82512500Y-125875000I-75000J0D01*
G01*
X82362500Y-125875000D01*
G75*
G02*
X82287500Y-125800000I0J75000D01*
G01*
G37*
G36*
G01*
X82787500Y-125800000D02*
X82787500Y-124475000D01*
G75*
G02*
X82862500Y-124400000I75000J0D01*
G01*
X83012500Y-124400000D01*
G75*
G02*
X83087500Y-124475000I0J-75000D01*
G01*
X83087500Y-125800000D01*
G75*
G02*
X83012500Y-125875000I-75000J0D01*
G01*
X82862500Y-125875000D01*
G75*
G02*
X82787500Y-125800000I0J75000D01*
G01*
G37*
G36*
G01*
X83287500Y-125800000D02*
X83287500Y-124475000D01*
G75*
G02*
X83362500Y-124400000I75000J0D01*
G01*
X83512500Y-124400000D01*
G75*
G02*
X83587500Y-124475000I0J-75000D01*
G01*
X83587500Y-125800000D01*
G75*
G02*
X83512500Y-125875000I-75000J0D01*
G01*
X83362500Y-125875000D01*
G75*
G02*
X83287500Y-125800000I0J75000D01*
G01*
G37*
G36*
G01*
X84362500Y-126875000D02*
X84362500Y-126725000D01*
G75*
G02*
X84437500Y-126650000I75000J0D01*
G01*
X85762500Y-126650000D01*
G75*
G02*
X85837500Y-126725000I0J-75000D01*
G01*
X85837500Y-126875000D01*
G75*
G02*
X85762500Y-126950000I-75000J0D01*
G01*
X84437500Y-126950000D01*
G75*
G02*
X84362500Y-126875000I0J75000D01*
G01*
G37*
G36*
G01*
X84362500Y-127375000D02*
X84362500Y-127225000D01*
G75*
G02*
X84437500Y-127150000I75000J0D01*
G01*
X85762500Y-127150000D01*
G75*
G02*
X85837500Y-127225000I0J-75000D01*
G01*
X85837500Y-127375000D01*
G75*
G02*
X85762500Y-127450000I-75000J0D01*
G01*
X84437500Y-127450000D01*
G75*
G02*
X84362500Y-127375000I0J75000D01*
G01*
G37*
G36*
G01*
X84362500Y-127875000D02*
X84362500Y-127725000D01*
G75*
G02*
X84437500Y-127650000I75000J0D01*
G01*
X85762500Y-127650000D01*
G75*
G02*
X85837500Y-127725000I0J-75000D01*
G01*
X85837500Y-127875000D01*
G75*
G02*
X85762500Y-127950000I-75000J0D01*
G01*
X84437500Y-127950000D01*
G75*
G02*
X84362500Y-127875000I0J75000D01*
G01*
G37*
G36*
G01*
X84362500Y-128375000D02*
X84362500Y-128225000D01*
G75*
G02*
X84437500Y-128150000I75000J0D01*
G01*
X85762500Y-128150000D01*
G75*
G02*
X85837500Y-128225000I0J-75000D01*
G01*
X85837500Y-128375000D01*
G75*
G02*
X85762500Y-128450000I-75000J0D01*
G01*
X84437500Y-128450000D01*
G75*
G02*
X84362500Y-128375000I0J75000D01*
G01*
G37*
G36*
G01*
X84362500Y-128875000D02*
X84362500Y-128725000D01*
G75*
G02*
X84437500Y-128650000I75000J0D01*
G01*
X85762500Y-128650000D01*
G75*
G02*
X85837500Y-128725000I0J-75000D01*
G01*
X85837500Y-128875000D01*
G75*
G02*
X85762500Y-128950000I-75000J0D01*
G01*
X84437500Y-128950000D01*
G75*
G02*
X84362500Y-128875000I0J75000D01*
G01*
G37*
G36*
G01*
X84362500Y-129375000D02*
X84362500Y-129225000D01*
G75*
G02*
X84437500Y-129150000I75000J0D01*
G01*
X85762500Y-129150000D01*
G75*
G02*
X85837500Y-129225000I0J-75000D01*
G01*
X85837500Y-129375000D01*
G75*
G02*
X85762500Y-129450000I-75000J0D01*
G01*
X84437500Y-129450000D01*
G75*
G02*
X84362500Y-129375000I0J75000D01*
G01*
G37*
G36*
G01*
X84362500Y-129875000D02*
X84362500Y-129725000D01*
G75*
G02*
X84437500Y-129650000I75000J0D01*
G01*
X85762500Y-129650000D01*
G75*
G02*
X85837500Y-129725000I0J-75000D01*
G01*
X85837500Y-129875000D01*
G75*
G02*
X85762500Y-129950000I-75000J0D01*
G01*
X84437500Y-129950000D01*
G75*
G02*
X84362500Y-129875000I0J75000D01*
G01*
G37*
G36*
G01*
X84362500Y-130375000D02*
X84362500Y-130225000D01*
G75*
G02*
X84437500Y-130150000I75000J0D01*
G01*
X85762500Y-130150000D01*
G75*
G02*
X85837500Y-130225000I0J-75000D01*
G01*
X85837500Y-130375000D01*
G75*
G02*
X85762500Y-130450000I-75000J0D01*
G01*
X84437500Y-130450000D01*
G75*
G02*
X84362500Y-130375000I0J75000D01*
G01*
G37*
G36*
G01*
X84362500Y-130875000D02*
X84362500Y-130725000D01*
G75*
G02*
X84437500Y-130650000I75000J0D01*
G01*
X85762500Y-130650000D01*
G75*
G02*
X85837500Y-130725000I0J-75000D01*
G01*
X85837500Y-130875000D01*
G75*
G02*
X85762500Y-130950000I-75000J0D01*
G01*
X84437500Y-130950000D01*
G75*
G02*
X84362500Y-130875000I0J75000D01*
G01*
G37*
G36*
G01*
X84362500Y-131375000D02*
X84362500Y-131225000D01*
G75*
G02*
X84437500Y-131150000I75000J0D01*
G01*
X85762500Y-131150000D01*
G75*
G02*
X85837500Y-131225000I0J-75000D01*
G01*
X85837500Y-131375000D01*
G75*
G02*
X85762500Y-131450000I-75000J0D01*
G01*
X84437500Y-131450000D01*
G75*
G02*
X84362500Y-131375000I0J75000D01*
G01*
G37*
G36*
G01*
X84362500Y-131875000D02*
X84362500Y-131725000D01*
G75*
G02*
X84437500Y-131650000I75000J0D01*
G01*
X85762500Y-131650000D01*
G75*
G02*
X85837500Y-131725000I0J-75000D01*
G01*
X85837500Y-131875000D01*
G75*
G02*
X85762500Y-131950000I-75000J0D01*
G01*
X84437500Y-131950000D01*
G75*
G02*
X84362500Y-131875000I0J75000D01*
G01*
G37*
G36*
G01*
X84362500Y-132375000D02*
X84362500Y-132225000D01*
G75*
G02*
X84437500Y-132150000I75000J0D01*
G01*
X85762500Y-132150000D01*
G75*
G02*
X85837500Y-132225000I0J-75000D01*
G01*
X85837500Y-132375000D01*
G75*
G02*
X85762500Y-132450000I-75000J0D01*
G01*
X84437500Y-132450000D01*
G75*
G02*
X84362500Y-132375000I0J75000D01*
G01*
G37*
G36*
G01*
X84362500Y-132875000D02*
X84362500Y-132725000D01*
G75*
G02*
X84437500Y-132650000I75000J0D01*
G01*
X85762500Y-132650000D01*
G75*
G02*
X85837500Y-132725000I0J-75000D01*
G01*
X85837500Y-132875000D01*
G75*
G02*
X85762500Y-132950000I-75000J0D01*
G01*
X84437500Y-132950000D01*
G75*
G02*
X84362500Y-132875000I0J75000D01*
G01*
G37*
G36*
G01*
X84362500Y-133375000D02*
X84362500Y-133225000D01*
G75*
G02*
X84437500Y-133150000I75000J0D01*
G01*
X85762500Y-133150000D01*
G75*
G02*
X85837500Y-133225000I0J-75000D01*
G01*
X85837500Y-133375000D01*
G75*
G02*
X85762500Y-133450000I-75000J0D01*
G01*
X84437500Y-133450000D01*
G75*
G02*
X84362500Y-133375000I0J75000D01*
G01*
G37*
G36*
G01*
X84362500Y-133875000D02*
X84362500Y-133725000D01*
G75*
G02*
X84437500Y-133650000I75000J0D01*
G01*
X85762500Y-133650000D01*
G75*
G02*
X85837500Y-133725000I0J-75000D01*
G01*
X85837500Y-133875000D01*
G75*
G02*
X85762500Y-133950000I-75000J0D01*
G01*
X84437500Y-133950000D01*
G75*
G02*
X84362500Y-133875000I0J75000D01*
G01*
G37*
G36*
G01*
X84362500Y-134375000D02*
X84362500Y-134225000D01*
G75*
G02*
X84437500Y-134150000I75000J0D01*
G01*
X85762500Y-134150000D01*
G75*
G02*
X85837500Y-134225000I0J-75000D01*
G01*
X85837500Y-134375000D01*
G75*
G02*
X85762500Y-134450000I-75000J0D01*
G01*
X84437500Y-134450000D01*
G75*
G02*
X84362500Y-134375000I0J75000D01*
G01*
G37*
G36*
G01*
X84362500Y-134875000D02*
X84362500Y-134725000D01*
G75*
G02*
X84437500Y-134650000I75000J0D01*
G01*
X85762500Y-134650000D01*
G75*
G02*
X85837500Y-134725000I0J-75000D01*
G01*
X85837500Y-134875000D01*
G75*
G02*
X85762500Y-134950000I-75000J0D01*
G01*
X84437500Y-134950000D01*
G75*
G02*
X84362500Y-134875000I0J75000D01*
G01*
G37*
G36*
G01*
X84362500Y-135375000D02*
X84362500Y-135225000D01*
G75*
G02*
X84437500Y-135150000I75000J0D01*
G01*
X85762500Y-135150000D01*
G75*
G02*
X85837500Y-135225000I0J-75000D01*
G01*
X85837500Y-135375000D01*
G75*
G02*
X85762500Y-135450000I-75000J0D01*
G01*
X84437500Y-135450000D01*
G75*
G02*
X84362500Y-135375000I0J75000D01*
G01*
G37*
G36*
G01*
X84362500Y-135875000D02*
X84362500Y-135725000D01*
G75*
G02*
X84437500Y-135650000I75000J0D01*
G01*
X85762500Y-135650000D01*
G75*
G02*
X85837500Y-135725000I0J-75000D01*
G01*
X85837500Y-135875000D01*
G75*
G02*
X85762500Y-135950000I-75000J0D01*
G01*
X84437500Y-135950000D01*
G75*
G02*
X84362500Y-135875000I0J75000D01*
G01*
G37*
G36*
G01*
X84362500Y-136375000D02*
X84362500Y-136225000D01*
G75*
G02*
X84437500Y-136150000I75000J0D01*
G01*
X85762500Y-136150000D01*
G75*
G02*
X85837500Y-136225000I0J-75000D01*
G01*
X85837500Y-136375000D01*
G75*
G02*
X85762500Y-136450000I-75000J0D01*
G01*
X84437500Y-136450000D01*
G75*
G02*
X84362500Y-136375000I0J75000D01*
G01*
G37*
G36*
G01*
X84362500Y-136875000D02*
X84362500Y-136725000D01*
G75*
G02*
X84437500Y-136650000I75000J0D01*
G01*
X85762500Y-136650000D01*
G75*
G02*
X85837500Y-136725000I0J-75000D01*
G01*
X85837500Y-136875000D01*
G75*
G02*
X85762500Y-136950000I-75000J0D01*
G01*
X84437500Y-136950000D01*
G75*
G02*
X84362500Y-136875000I0J75000D01*
G01*
G37*
G36*
G01*
X84362500Y-137375000D02*
X84362500Y-137225000D01*
G75*
G02*
X84437500Y-137150000I75000J0D01*
G01*
X85762500Y-137150000D01*
G75*
G02*
X85837500Y-137225000I0J-75000D01*
G01*
X85837500Y-137375000D01*
G75*
G02*
X85762500Y-137450000I-75000J0D01*
G01*
X84437500Y-137450000D01*
G75*
G02*
X84362500Y-137375000I0J75000D01*
G01*
G37*
G36*
G01*
X84362500Y-137875000D02*
X84362500Y-137725000D01*
G75*
G02*
X84437500Y-137650000I75000J0D01*
G01*
X85762500Y-137650000D01*
G75*
G02*
X85837500Y-137725000I0J-75000D01*
G01*
X85837500Y-137875000D01*
G75*
G02*
X85762500Y-137950000I-75000J0D01*
G01*
X84437500Y-137950000D01*
G75*
G02*
X84362500Y-137875000I0J75000D01*
G01*
G37*
G36*
G01*
X84362500Y-138375000D02*
X84362500Y-138225000D01*
G75*
G02*
X84437500Y-138150000I75000J0D01*
G01*
X85762500Y-138150000D01*
G75*
G02*
X85837500Y-138225000I0J-75000D01*
G01*
X85837500Y-138375000D01*
G75*
G02*
X85762500Y-138450000I-75000J0D01*
G01*
X84437500Y-138450000D01*
G75*
G02*
X84362500Y-138375000I0J75000D01*
G01*
G37*
G36*
G01*
X84362500Y-138875000D02*
X84362500Y-138725000D01*
G75*
G02*
X84437500Y-138650000I75000J0D01*
G01*
X85762500Y-138650000D01*
G75*
G02*
X85837500Y-138725000I0J-75000D01*
G01*
X85837500Y-138875000D01*
G75*
G02*
X85762500Y-138950000I-75000J0D01*
G01*
X84437500Y-138950000D01*
G75*
G02*
X84362500Y-138875000I0J75000D01*
G01*
G37*
G36*
G01*
X83287500Y-141125000D02*
X83287500Y-139800000D01*
G75*
G02*
X83362500Y-139725000I75000J0D01*
G01*
X83512500Y-139725000D01*
G75*
G02*
X83587500Y-139800000I0J-75000D01*
G01*
X83587500Y-141125000D01*
G75*
G02*
X83512500Y-141200000I-75000J0D01*
G01*
X83362500Y-141200000D01*
G75*
G02*
X83287500Y-141125000I0J75000D01*
G01*
G37*
G36*
G01*
X82787500Y-141125000D02*
X82787500Y-139800000D01*
G75*
G02*
X82862500Y-139725000I75000J0D01*
G01*
X83012500Y-139725000D01*
G75*
G02*
X83087500Y-139800000I0J-75000D01*
G01*
X83087500Y-141125000D01*
G75*
G02*
X83012500Y-141200000I-75000J0D01*
G01*
X82862500Y-141200000D01*
G75*
G02*
X82787500Y-141125000I0J75000D01*
G01*
G37*
G36*
G01*
X82287500Y-141125000D02*
X82287500Y-139800000D01*
G75*
G02*
X82362500Y-139725000I75000J0D01*
G01*
X82512500Y-139725000D01*
G75*
G02*
X82587500Y-139800000I0J-75000D01*
G01*
X82587500Y-141125000D01*
G75*
G02*
X82512500Y-141200000I-75000J0D01*
G01*
X82362500Y-141200000D01*
G75*
G02*
X82287500Y-141125000I0J75000D01*
G01*
G37*
G36*
G01*
X81787500Y-141125000D02*
X81787500Y-139800000D01*
G75*
G02*
X81862500Y-139725000I75000J0D01*
G01*
X82012500Y-139725000D01*
G75*
G02*
X82087500Y-139800000I0J-75000D01*
G01*
X82087500Y-141125000D01*
G75*
G02*
X82012500Y-141200000I-75000J0D01*
G01*
X81862500Y-141200000D01*
G75*
G02*
X81787500Y-141125000I0J75000D01*
G01*
G37*
G36*
G01*
X81287500Y-141125000D02*
X81287500Y-139800000D01*
G75*
G02*
X81362500Y-139725000I75000J0D01*
G01*
X81512500Y-139725000D01*
G75*
G02*
X81587500Y-139800000I0J-75000D01*
G01*
X81587500Y-141125000D01*
G75*
G02*
X81512500Y-141200000I-75000J0D01*
G01*
X81362500Y-141200000D01*
G75*
G02*
X81287500Y-141125000I0J75000D01*
G01*
G37*
G36*
G01*
X80787500Y-141125000D02*
X80787500Y-139800000D01*
G75*
G02*
X80862500Y-139725000I75000J0D01*
G01*
X81012500Y-139725000D01*
G75*
G02*
X81087500Y-139800000I0J-75000D01*
G01*
X81087500Y-141125000D01*
G75*
G02*
X81012500Y-141200000I-75000J0D01*
G01*
X80862500Y-141200000D01*
G75*
G02*
X80787500Y-141125000I0J75000D01*
G01*
G37*
G36*
G01*
X80287500Y-141125000D02*
X80287500Y-139800000D01*
G75*
G02*
X80362500Y-139725000I75000J0D01*
G01*
X80512500Y-139725000D01*
G75*
G02*
X80587500Y-139800000I0J-75000D01*
G01*
X80587500Y-141125000D01*
G75*
G02*
X80512500Y-141200000I-75000J0D01*
G01*
X80362500Y-141200000D01*
G75*
G02*
X80287500Y-141125000I0J75000D01*
G01*
G37*
G36*
G01*
X79787500Y-141125000D02*
X79787500Y-139800000D01*
G75*
G02*
X79862500Y-139725000I75000J0D01*
G01*
X80012500Y-139725000D01*
G75*
G02*
X80087500Y-139800000I0J-75000D01*
G01*
X80087500Y-141125000D01*
G75*
G02*
X80012500Y-141200000I-75000J0D01*
G01*
X79862500Y-141200000D01*
G75*
G02*
X79787500Y-141125000I0J75000D01*
G01*
G37*
G36*
G01*
X79287500Y-141125000D02*
X79287500Y-139800000D01*
G75*
G02*
X79362500Y-139725000I75000J0D01*
G01*
X79512500Y-139725000D01*
G75*
G02*
X79587500Y-139800000I0J-75000D01*
G01*
X79587500Y-141125000D01*
G75*
G02*
X79512500Y-141200000I-75000J0D01*
G01*
X79362500Y-141200000D01*
G75*
G02*
X79287500Y-141125000I0J75000D01*
G01*
G37*
G36*
G01*
X78787500Y-141125000D02*
X78787500Y-139800000D01*
G75*
G02*
X78862500Y-139725000I75000J0D01*
G01*
X79012500Y-139725000D01*
G75*
G02*
X79087500Y-139800000I0J-75000D01*
G01*
X79087500Y-141125000D01*
G75*
G02*
X79012500Y-141200000I-75000J0D01*
G01*
X78862500Y-141200000D01*
G75*
G02*
X78787500Y-141125000I0J75000D01*
G01*
G37*
G36*
G01*
X78287500Y-141125000D02*
X78287500Y-139800000D01*
G75*
G02*
X78362500Y-139725000I75000J0D01*
G01*
X78512500Y-139725000D01*
G75*
G02*
X78587500Y-139800000I0J-75000D01*
G01*
X78587500Y-141125000D01*
G75*
G02*
X78512500Y-141200000I-75000J0D01*
G01*
X78362500Y-141200000D01*
G75*
G02*
X78287500Y-141125000I0J75000D01*
G01*
G37*
G36*
G01*
X77787500Y-141125000D02*
X77787500Y-139800000D01*
G75*
G02*
X77862500Y-139725000I75000J0D01*
G01*
X78012500Y-139725000D01*
G75*
G02*
X78087500Y-139800000I0J-75000D01*
G01*
X78087500Y-141125000D01*
G75*
G02*
X78012500Y-141200000I-75000J0D01*
G01*
X77862500Y-141200000D01*
G75*
G02*
X77787500Y-141125000I0J75000D01*
G01*
G37*
G36*
G01*
X77287500Y-141125000D02*
X77287500Y-139800000D01*
G75*
G02*
X77362500Y-139725000I75000J0D01*
G01*
X77512500Y-139725000D01*
G75*
G02*
X77587500Y-139800000I0J-75000D01*
G01*
X77587500Y-141125000D01*
G75*
G02*
X77512500Y-141200000I-75000J0D01*
G01*
X77362500Y-141200000D01*
G75*
G02*
X77287500Y-141125000I0J75000D01*
G01*
G37*
G36*
G01*
X76787500Y-141125000D02*
X76787500Y-139800000D01*
G75*
G02*
X76862500Y-139725000I75000J0D01*
G01*
X77012500Y-139725000D01*
G75*
G02*
X77087500Y-139800000I0J-75000D01*
G01*
X77087500Y-141125000D01*
G75*
G02*
X77012500Y-141200000I-75000J0D01*
G01*
X76862500Y-141200000D01*
G75*
G02*
X76787500Y-141125000I0J75000D01*
G01*
G37*
G36*
G01*
X76287500Y-141125000D02*
X76287500Y-139800000D01*
G75*
G02*
X76362500Y-139725000I75000J0D01*
G01*
X76512500Y-139725000D01*
G75*
G02*
X76587500Y-139800000I0J-75000D01*
G01*
X76587500Y-141125000D01*
G75*
G02*
X76512500Y-141200000I-75000J0D01*
G01*
X76362500Y-141200000D01*
G75*
G02*
X76287500Y-141125000I0J75000D01*
G01*
G37*
G36*
G01*
X75787500Y-141125000D02*
X75787500Y-139800000D01*
G75*
G02*
X75862500Y-139725000I75000J0D01*
G01*
X76012500Y-139725000D01*
G75*
G02*
X76087500Y-139800000I0J-75000D01*
G01*
X76087500Y-141125000D01*
G75*
G02*
X76012500Y-141200000I-75000J0D01*
G01*
X75862500Y-141200000D01*
G75*
G02*
X75787500Y-141125000I0J75000D01*
G01*
G37*
G36*
G01*
X75287500Y-141125000D02*
X75287500Y-139800000D01*
G75*
G02*
X75362500Y-139725000I75000J0D01*
G01*
X75512500Y-139725000D01*
G75*
G02*
X75587500Y-139800000I0J-75000D01*
G01*
X75587500Y-141125000D01*
G75*
G02*
X75512500Y-141200000I-75000J0D01*
G01*
X75362500Y-141200000D01*
G75*
G02*
X75287500Y-141125000I0J75000D01*
G01*
G37*
G36*
G01*
X74787500Y-141125000D02*
X74787500Y-139800000D01*
G75*
G02*
X74862500Y-139725000I75000J0D01*
G01*
X75012500Y-139725000D01*
G75*
G02*
X75087500Y-139800000I0J-75000D01*
G01*
X75087500Y-141125000D01*
G75*
G02*
X75012500Y-141200000I-75000J0D01*
G01*
X74862500Y-141200000D01*
G75*
G02*
X74787500Y-141125000I0J75000D01*
G01*
G37*
G36*
G01*
X74287500Y-141125000D02*
X74287500Y-139800000D01*
G75*
G02*
X74362500Y-139725000I75000J0D01*
G01*
X74512500Y-139725000D01*
G75*
G02*
X74587500Y-139800000I0J-75000D01*
G01*
X74587500Y-141125000D01*
G75*
G02*
X74512500Y-141200000I-75000J0D01*
G01*
X74362500Y-141200000D01*
G75*
G02*
X74287500Y-141125000I0J75000D01*
G01*
G37*
G36*
G01*
X73787500Y-141125000D02*
X73787500Y-139800000D01*
G75*
G02*
X73862500Y-139725000I75000J0D01*
G01*
X74012500Y-139725000D01*
G75*
G02*
X74087500Y-139800000I0J-75000D01*
G01*
X74087500Y-141125000D01*
G75*
G02*
X74012500Y-141200000I-75000J0D01*
G01*
X73862500Y-141200000D01*
G75*
G02*
X73787500Y-141125000I0J75000D01*
G01*
G37*
G36*
G01*
X73287500Y-141125000D02*
X73287500Y-139800000D01*
G75*
G02*
X73362500Y-139725000I75000J0D01*
G01*
X73512500Y-139725000D01*
G75*
G02*
X73587500Y-139800000I0J-75000D01*
G01*
X73587500Y-141125000D01*
G75*
G02*
X73512500Y-141200000I-75000J0D01*
G01*
X73362500Y-141200000D01*
G75*
G02*
X73287500Y-141125000I0J75000D01*
G01*
G37*
G36*
G01*
X72787500Y-141125000D02*
X72787500Y-139800000D01*
G75*
G02*
X72862500Y-139725000I75000J0D01*
G01*
X73012500Y-139725000D01*
G75*
G02*
X73087500Y-139800000I0J-75000D01*
G01*
X73087500Y-141125000D01*
G75*
G02*
X73012500Y-141200000I-75000J0D01*
G01*
X72862500Y-141200000D01*
G75*
G02*
X72787500Y-141125000I0J75000D01*
G01*
G37*
G36*
G01*
X72287500Y-141125000D02*
X72287500Y-139800000D01*
G75*
G02*
X72362500Y-139725000I75000J0D01*
G01*
X72512500Y-139725000D01*
G75*
G02*
X72587500Y-139800000I0J-75000D01*
G01*
X72587500Y-141125000D01*
G75*
G02*
X72512500Y-141200000I-75000J0D01*
G01*
X72362500Y-141200000D01*
G75*
G02*
X72287500Y-141125000I0J75000D01*
G01*
G37*
G36*
G01*
X71787500Y-141125000D02*
X71787500Y-139800000D01*
G75*
G02*
X71862500Y-139725000I75000J0D01*
G01*
X72012500Y-139725000D01*
G75*
G02*
X72087500Y-139800000I0J-75000D01*
G01*
X72087500Y-141125000D01*
G75*
G02*
X72012500Y-141200000I-75000J0D01*
G01*
X71862500Y-141200000D01*
G75*
G02*
X71787500Y-141125000I0J75000D01*
G01*
G37*
G36*
G01*
X71287500Y-141125000D02*
X71287500Y-139800000D01*
G75*
G02*
X71362500Y-139725000I75000J0D01*
G01*
X71512500Y-139725000D01*
G75*
G02*
X71587500Y-139800000I0J-75000D01*
G01*
X71587500Y-141125000D01*
G75*
G02*
X71512500Y-141200000I-75000J0D01*
G01*
X71362500Y-141200000D01*
G75*
G02*
X71287500Y-141125000I0J75000D01*
G01*
G37*
G36*
G01*
X69037500Y-138875000D02*
X69037500Y-138725000D01*
G75*
G02*
X69112500Y-138650000I75000J0D01*
G01*
X70437500Y-138650000D01*
G75*
G02*
X70512500Y-138725000I0J-75000D01*
G01*
X70512500Y-138875000D01*
G75*
G02*
X70437500Y-138950000I-75000J0D01*
G01*
X69112500Y-138950000D01*
G75*
G02*
X69037500Y-138875000I0J75000D01*
G01*
G37*
G36*
G01*
X69037500Y-138375000D02*
X69037500Y-138225000D01*
G75*
G02*
X69112500Y-138150000I75000J0D01*
G01*
X70437500Y-138150000D01*
G75*
G02*
X70512500Y-138225000I0J-75000D01*
G01*
X70512500Y-138375000D01*
G75*
G02*
X70437500Y-138450000I-75000J0D01*
G01*
X69112500Y-138450000D01*
G75*
G02*
X69037500Y-138375000I0J75000D01*
G01*
G37*
G36*
G01*
X69037500Y-137875000D02*
X69037500Y-137725000D01*
G75*
G02*
X69112500Y-137650000I75000J0D01*
G01*
X70437500Y-137650000D01*
G75*
G02*
X70512500Y-137725000I0J-75000D01*
G01*
X70512500Y-137875000D01*
G75*
G02*
X70437500Y-137950000I-75000J0D01*
G01*
X69112500Y-137950000D01*
G75*
G02*
X69037500Y-137875000I0J75000D01*
G01*
G37*
G36*
G01*
X69037500Y-137375000D02*
X69037500Y-137225000D01*
G75*
G02*
X69112500Y-137150000I75000J0D01*
G01*
X70437500Y-137150000D01*
G75*
G02*
X70512500Y-137225000I0J-75000D01*
G01*
X70512500Y-137375000D01*
G75*
G02*
X70437500Y-137450000I-75000J0D01*
G01*
X69112500Y-137450000D01*
G75*
G02*
X69037500Y-137375000I0J75000D01*
G01*
G37*
G36*
G01*
X69037500Y-136875000D02*
X69037500Y-136725000D01*
G75*
G02*
X69112500Y-136650000I75000J0D01*
G01*
X70437500Y-136650000D01*
G75*
G02*
X70512500Y-136725000I0J-75000D01*
G01*
X70512500Y-136875000D01*
G75*
G02*
X70437500Y-136950000I-75000J0D01*
G01*
X69112500Y-136950000D01*
G75*
G02*
X69037500Y-136875000I0J75000D01*
G01*
G37*
G36*
G01*
X69037500Y-136375000D02*
X69037500Y-136225000D01*
G75*
G02*
X69112500Y-136150000I75000J0D01*
G01*
X70437500Y-136150000D01*
G75*
G02*
X70512500Y-136225000I0J-75000D01*
G01*
X70512500Y-136375000D01*
G75*
G02*
X70437500Y-136450000I-75000J0D01*
G01*
X69112500Y-136450000D01*
G75*
G02*
X69037500Y-136375000I0J75000D01*
G01*
G37*
G36*
G01*
X69037500Y-135875000D02*
X69037500Y-135725000D01*
G75*
G02*
X69112500Y-135650000I75000J0D01*
G01*
X70437500Y-135650000D01*
G75*
G02*
X70512500Y-135725000I0J-75000D01*
G01*
X70512500Y-135875000D01*
G75*
G02*
X70437500Y-135950000I-75000J0D01*
G01*
X69112500Y-135950000D01*
G75*
G02*
X69037500Y-135875000I0J75000D01*
G01*
G37*
G36*
G01*
X69037500Y-135375000D02*
X69037500Y-135225000D01*
G75*
G02*
X69112500Y-135150000I75000J0D01*
G01*
X70437500Y-135150000D01*
G75*
G02*
X70512500Y-135225000I0J-75000D01*
G01*
X70512500Y-135375000D01*
G75*
G02*
X70437500Y-135450000I-75000J0D01*
G01*
X69112500Y-135450000D01*
G75*
G02*
X69037500Y-135375000I0J75000D01*
G01*
G37*
G36*
G01*
X69037500Y-134875000D02*
X69037500Y-134725000D01*
G75*
G02*
X69112500Y-134650000I75000J0D01*
G01*
X70437500Y-134650000D01*
G75*
G02*
X70512500Y-134725000I0J-75000D01*
G01*
X70512500Y-134875000D01*
G75*
G02*
X70437500Y-134950000I-75000J0D01*
G01*
X69112500Y-134950000D01*
G75*
G02*
X69037500Y-134875000I0J75000D01*
G01*
G37*
G36*
G01*
X69037500Y-134375000D02*
X69037500Y-134225000D01*
G75*
G02*
X69112500Y-134150000I75000J0D01*
G01*
X70437500Y-134150000D01*
G75*
G02*
X70512500Y-134225000I0J-75000D01*
G01*
X70512500Y-134375000D01*
G75*
G02*
X70437500Y-134450000I-75000J0D01*
G01*
X69112500Y-134450000D01*
G75*
G02*
X69037500Y-134375000I0J75000D01*
G01*
G37*
G36*
G01*
X69037500Y-133875000D02*
X69037500Y-133725000D01*
G75*
G02*
X69112500Y-133650000I75000J0D01*
G01*
X70437500Y-133650000D01*
G75*
G02*
X70512500Y-133725000I0J-75000D01*
G01*
X70512500Y-133875000D01*
G75*
G02*
X70437500Y-133950000I-75000J0D01*
G01*
X69112500Y-133950000D01*
G75*
G02*
X69037500Y-133875000I0J75000D01*
G01*
G37*
G36*
G01*
X69037500Y-133375000D02*
X69037500Y-133225000D01*
G75*
G02*
X69112500Y-133150000I75000J0D01*
G01*
X70437500Y-133150000D01*
G75*
G02*
X70512500Y-133225000I0J-75000D01*
G01*
X70512500Y-133375000D01*
G75*
G02*
X70437500Y-133450000I-75000J0D01*
G01*
X69112500Y-133450000D01*
G75*
G02*
X69037500Y-133375000I0J75000D01*
G01*
G37*
G36*
G01*
X69037500Y-132875000D02*
X69037500Y-132725000D01*
G75*
G02*
X69112500Y-132650000I75000J0D01*
G01*
X70437500Y-132650000D01*
G75*
G02*
X70512500Y-132725000I0J-75000D01*
G01*
X70512500Y-132875000D01*
G75*
G02*
X70437500Y-132950000I-75000J0D01*
G01*
X69112500Y-132950000D01*
G75*
G02*
X69037500Y-132875000I0J75000D01*
G01*
G37*
G36*
G01*
X69037500Y-132375000D02*
X69037500Y-132225000D01*
G75*
G02*
X69112500Y-132150000I75000J0D01*
G01*
X70437500Y-132150000D01*
G75*
G02*
X70512500Y-132225000I0J-75000D01*
G01*
X70512500Y-132375000D01*
G75*
G02*
X70437500Y-132450000I-75000J0D01*
G01*
X69112500Y-132450000D01*
G75*
G02*
X69037500Y-132375000I0J75000D01*
G01*
G37*
G36*
G01*
X69037500Y-131875000D02*
X69037500Y-131725000D01*
G75*
G02*
X69112500Y-131650000I75000J0D01*
G01*
X70437500Y-131650000D01*
G75*
G02*
X70512500Y-131725000I0J-75000D01*
G01*
X70512500Y-131875000D01*
G75*
G02*
X70437500Y-131950000I-75000J0D01*
G01*
X69112500Y-131950000D01*
G75*
G02*
X69037500Y-131875000I0J75000D01*
G01*
G37*
G36*
G01*
X69037500Y-131375000D02*
X69037500Y-131225000D01*
G75*
G02*
X69112500Y-131150000I75000J0D01*
G01*
X70437500Y-131150000D01*
G75*
G02*
X70512500Y-131225000I0J-75000D01*
G01*
X70512500Y-131375000D01*
G75*
G02*
X70437500Y-131450000I-75000J0D01*
G01*
X69112500Y-131450000D01*
G75*
G02*
X69037500Y-131375000I0J75000D01*
G01*
G37*
G36*
G01*
X69037500Y-130875000D02*
X69037500Y-130725000D01*
G75*
G02*
X69112500Y-130650000I75000J0D01*
G01*
X70437500Y-130650000D01*
G75*
G02*
X70512500Y-130725000I0J-75000D01*
G01*
X70512500Y-130875000D01*
G75*
G02*
X70437500Y-130950000I-75000J0D01*
G01*
X69112500Y-130950000D01*
G75*
G02*
X69037500Y-130875000I0J75000D01*
G01*
G37*
G36*
G01*
X69037500Y-130375000D02*
X69037500Y-130225000D01*
G75*
G02*
X69112500Y-130150000I75000J0D01*
G01*
X70437500Y-130150000D01*
G75*
G02*
X70512500Y-130225000I0J-75000D01*
G01*
X70512500Y-130375000D01*
G75*
G02*
X70437500Y-130450000I-75000J0D01*
G01*
X69112500Y-130450000D01*
G75*
G02*
X69037500Y-130375000I0J75000D01*
G01*
G37*
G36*
G01*
X69037500Y-129875000D02*
X69037500Y-129725000D01*
G75*
G02*
X69112500Y-129650000I75000J0D01*
G01*
X70437500Y-129650000D01*
G75*
G02*
X70512500Y-129725000I0J-75000D01*
G01*
X70512500Y-129875000D01*
G75*
G02*
X70437500Y-129950000I-75000J0D01*
G01*
X69112500Y-129950000D01*
G75*
G02*
X69037500Y-129875000I0J75000D01*
G01*
G37*
G36*
G01*
X69037500Y-129375000D02*
X69037500Y-129225000D01*
G75*
G02*
X69112500Y-129150000I75000J0D01*
G01*
X70437500Y-129150000D01*
G75*
G02*
X70512500Y-129225000I0J-75000D01*
G01*
X70512500Y-129375000D01*
G75*
G02*
X70437500Y-129450000I-75000J0D01*
G01*
X69112500Y-129450000D01*
G75*
G02*
X69037500Y-129375000I0J75000D01*
G01*
G37*
G36*
G01*
X69037500Y-128875000D02*
X69037500Y-128725000D01*
G75*
G02*
X69112500Y-128650000I75000J0D01*
G01*
X70437500Y-128650000D01*
G75*
G02*
X70512500Y-128725000I0J-75000D01*
G01*
X70512500Y-128875000D01*
G75*
G02*
X70437500Y-128950000I-75000J0D01*
G01*
X69112500Y-128950000D01*
G75*
G02*
X69037500Y-128875000I0J75000D01*
G01*
G37*
G36*
G01*
X69037500Y-128375000D02*
X69037500Y-128225000D01*
G75*
G02*
X69112500Y-128150000I75000J0D01*
G01*
X70437500Y-128150000D01*
G75*
G02*
X70512500Y-128225000I0J-75000D01*
G01*
X70512500Y-128375000D01*
G75*
G02*
X70437500Y-128450000I-75000J0D01*
G01*
X69112500Y-128450000D01*
G75*
G02*
X69037500Y-128375000I0J75000D01*
G01*
G37*
G36*
G01*
X69037500Y-127875000D02*
X69037500Y-127725000D01*
G75*
G02*
X69112500Y-127650000I75000J0D01*
G01*
X70437500Y-127650000D01*
G75*
G02*
X70512500Y-127725000I0J-75000D01*
G01*
X70512500Y-127875000D01*
G75*
G02*
X70437500Y-127950000I-75000J0D01*
G01*
X69112500Y-127950000D01*
G75*
G02*
X69037500Y-127875000I0J75000D01*
G01*
G37*
G36*
G01*
X69037500Y-127375000D02*
X69037500Y-127225000D01*
G75*
G02*
X69112500Y-127150000I75000J0D01*
G01*
X70437500Y-127150000D01*
G75*
G02*
X70512500Y-127225000I0J-75000D01*
G01*
X70512500Y-127375000D01*
G75*
G02*
X70437500Y-127450000I-75000J0D01*
G01*
X69112500Y-127450000D01*
G75*
G02*
X69037500Y-127375000I0J75000D01*
G01*
G37*
G36*
G01*
X69037500Y-126875000D02*
X69037500Y-126725000D01*
G75*
G02*
X69112500Y-126650000I75000J0D01*
G01*
X70437500Y-126650000D01*
G75*
G02*
X70512500Y-126725000I0J-75000D01*
G01*
X70512500Y-126875000D01*
G75*
G02*
X70437500Y-126950000I-75000J0D01*
G01*
X69112500Y-126950000D01*
G75*
G02*
X69037500Y-126875000I0J75000D01*
G01*
G37*
%TD*%
D27*
%TO.C,U1*%
X74200000Y-121300000D03*
X71700000Y-117300000D03*
X71700000Y-121300000D03*
X74200000Y-117300000D03*
%TD*%
D28*
%TO.C,TR1*%
X83700000Y-121300000D03*
X81160000Y-121300000D03*
X78620000Y-121300000D03*
X78620000Y-116220000D03*
X81160000Y-116220000D03*
X83700000Y-116220000D03*
%TD*%
D29*
%TO.C,SW7*%
X120200000Y-109600000D03*
X117700000Y-109600000D03*
X115200000Y-109600000D03*
X120200000Y-112000000D03*
X117700000Y-112000000D03*
X115200000Y-112000000D03*
%TD*%
D30*
%TO.C,SW2*%
X108400000Y-100900000D03*
X108400000Y-103400000D03*
X108400000Y-105900000D03*
X110800000Y-100900000D03*
X110800000Y-103400000D03*
X110800000Y-105900000D03*
%TD*%
%TO.C,SW1*%
X111200000Y-140100000D03*
X111200000Y-142600000D03*
X111200000Y-145100000D03*
X113600000Y-140100000D03*
X113600000Y-142600000D03*
X113600000Y-145100000D03*
%TD*%
D31*
%TO.C,RV2*%
X145800000Y-135600000D03*
D32*
X144650000Y-131600000D03*
D31*
X143500000Y-135600000D03*
%TD*%
D33*
%TO.C,RV1*%
X141800000Y-145500000D03*
D32*
X137800000Y-146650000D03*
D33*
X141800000Y-147800000D03*
%TD*%
%TO.C,R28*%
G36*
G01*
X102643750Y-157662500D02*
X103156250Y-157662500D01*
G75*
G02*
X103375000Y-157881250I0J-218750D01*
G01*
X103375000Y-158318750D01*
G75*
G02*
X103156250Y-158537500I-218750J0D01*
G01*
X102643750Y-158537500D01*
G75*
G02*
X102425000Y-158318750I0J218750D01*
G01*
X102425000Y-157881250D01*
G75*
G02*
X102643750Y-157662500I218750J0D01*
G01*
G37*
G36*
G01*
X102643750Y-156087500D02*
X103156250Y-156087500D01*
G75*
G02*
X103375000Y-156306250I0J-218750D01*
G01*
X103375000Y-156743750D01*
G75*
G02*
X103156250Y-156962500I-218750J0D01*
G01*
X102643750Y-156962500D01*
G75*
G02*
X102425000Y-156743750I0J218750D01*
G01*
X102425000Y-156306250D01*
G75*
G02*
X102643750Y-156087500I218750J0D01*
G01*
G37*
%TD*%
%TO.C,R27*%
G36*
G01*
X107850000Y-158356250D02*
X107850000Y-157843750D01*
G75*
G02*
X108068750Y-157625000I218750J0D01*
G01*
X108506250Y-157625000D01*
G75*
G02*
X108725000Y-157843750I0J-218750D01*
G01*
X108725000Y-158356250D01*
G75*
G02*
X108506250Y-158575000I-218750J0D01*
G01*
X108068750Y-158575000D01*
G75*
G02*
X107850000Y-158356250I0J218750D01*
G01*
G37*
G36*
G01*
X106275000Y-158356250D02*
X106275000Y-157843750D01*
G75*
G02*
X106493750Y-157625000I218750J0D01*
G01*
X106931250Y-157625000D01*
G75*
G02*
X107150000Y-157843750I0J-218750D01*
G01*
X107150000Y-158356250D01*
G75*
G02*
X106931250Y-158575000I-218750J0D01*
G01*
X106493750Y-158575000D01*
G75*
G02*
X106275000Y-158356250I0J218750D01*
G01*
G37*
%TD*%
%TO.C,R26*%
G36*
G01*
X107162500Y-156243750D02*
X107162500Y-156756250D01*
G75*
G02*
X106943750Y-156975000I-218750J0D01*
G01*
X106506250Y-156975000D01*
G75*
G02*
X106287500Y-156756250I0J218750D01*
G01*
X106287500Y-156243750D01*
G75*
G02*
X106506250Y-156025000I218750J0D01*
G01*
X106943750Y-156025000D01*
G75*
G02*
X107162500Y-156243750I0J-218750D01*
G01*
G37*
G36*
G01*
X108737500Y-156243750D02*
X108737500Y-156756250D01*
G75*
G02*
X108518750Y-156975000I-218750J0D01*
G01*
X108081250Y-156975000D01*
G75*
G02*
X107862500Y-156756250I0J218750D01*
G01*
X107862500Y-156243750D01*
G75*
G02*
X108081250Y-156025000I218750J0D01*
G01*
X108518750Y-156025000D01*
G75*
G02*
X108737500Y-156243750I0J-218750D01*
G01*
G37*
%TD*%
%TO.C,R25*%
G36*
G01*
X104743750Y-157662500D02*
X105256250Y-157662500D01*
G75*
G02*
X105475000Y-157881250I0J-218750D01*
G01*
X105475000Y-158318750D01*
G75*
G02*
X105256250Y-158537500I-218750J0D01*
G01*
X104743750Y-158537500D01*
G75*
G02*
X104525000Y-158318750I0J218750D01*
G01*
X104525000Y-157881250D01*
G75*
G02*
X104743750Y-157662500I218750J0D01*
G01*
G37*
G36*
G01*
X104743750Y-156087500D02*
X105256250Y-156087500D01*
G75*
G02*
X105475000Y-156306250I0J-218750D01*
G01*
X105475000Y-156743750D01*
G75*
G02*
X105256250Y-156962500I-218750J0D01*
G01*
X104743750Y-156962500D01*
G75*
G02*
X104525000Y-156743750I0J218750D01*
G01*
X104525000Y-156306250D01*
G75*
G02*
X104743750Y-156087500I218750J0D01*
G01*
G37*
%TD*%
%TO.C,R24*%
G36*
G01*
X110237500Y-156243750D02*
X110237500Y-156756250D01*
G75*
G02*
X110018750Y-156975000I-218750J0D01*
G01*
X109581250Y-156975000D01*
G75*
G02*
X109362500Y-156756250I0J218750D01*
G01*
X109362500Y-156243750D01*
G75*
G02*
X109581250Y-156025000I218750J0D01*
G01*
X110018750Y-156025000D01*
G75*
G02*
X110237500Y-156243750I0J-218750D01*
G01*
G37*
G36*
G01*
X111812500Y-156243750D02*
X111812500Y-156756250D01*
G75*
G02*
X111593750Y-156975000I-218750J0D01*
G01*
X111156250Y-156975000D01*
G75*
G02*
X110937500Y-156756250I0J218750D01*
G01*
X110937500Y-156243750D01*
G75*
G02*
X111156250Y-156025000I218750J0D01*
G01*
X111593750Y-156025000D01*
G75*
G02*
X111812500Y-156243750I0J-218750D01*
G01*
G37*
%TD*%
%TO.C,R23*%
G36*
G01*
X109562500Y-164856250D02*
X109562500Y-164343750D01*
G75*
G02*
X109781250Y-164125000I218750J0D01*
G01*
X110218750Y-164125000D01*
G75*
G02*
X110437500Y-164343750I0J-218750D01*
G01*
X110437500Y-164856250D01*
G75*
G02*
X110218750Y-165075000I-218750J0D01*
G01*
X109781250Y-165075000D01*
G75*
G02*
X109562500Y-164856250I0J218750D01*
G01*
G37*
G36*
G01*
X107987500Y-164856250D02*
X107987500Y-164343750D01*
G75*
G02*
X108206250Y-164125000I218750J0D01*
G01*
X108643750Y-164125000D01*
G75*
G02*
X108862500Y-164343750I0J-218750D01*
G01*
X108862500Y-164856250D01*
G75*
G02*
X108643750Y-165075000I-218750J0D01*
G01*
X108206250Y-165075000D01*
G75*
G02*
X107987500Y-164856250I0J218750D01*
G01*
G37*
%TD*%
%TO.C,R20*%
G36*
G01*
X128156250Y-123887500D02*
X127643750Y-123887500D01*
G75*
G02*
X127425000Y-123668750I0J218750D01*
G01*
X127425000Y-123231250D01*
G75*
G02*
X127643750Y-123012500I218750J0D01*
G01*
X128156250Y-123012500D01*
G75*
G02*
X128375000Y-123231250I0J-218750D01*
G01*
X128375000Y-123668750D01*
G75*
G02*
X128156250Y-123887500I-218750J0D01*
G01*
G37*
G36*
G01*
X128156250Y-125462500D02*
X127643750Y-125462500D01*
G75*
G02*
X127425000Y-125243750I0J218750D01*
G01*
X127425000Y-124806250D01*
G75*
G02*
X127643750Y-124587500I218750J0D01*
G01*
X128156250Y-124587500D01*
G75*
G02*
X128375000Y-124806250I0J-218750D01*
G01*
X128375000Y-125243750D01*
G75*
G02*
X128156250Y-125462500I-218750J0D01*
G01*
G37*
%TD*%
%TO.C,R19*%
G36*
G01*
X103037500Y-149143750D02*
X103037500Y-149656250D01*
G75*
G02*
X102818750Y-149875000I-218750J0D01*
G01*
X102381250Y-149875000D01*
G75*
G02*
X102162500Y-149656250I0J218750D01*
G01*
X102162500Y-149143750D01*
G75*
G02*
X102381250Y-148925000I218750J0D01*
G01*
X102818750Y-148925000D01*
G75*
G02*
X103037500Y-149143750I0J-218750D01*
G01*
G37*
G36*
G01*
X104612500Y-149143750D02*
X104612500Y-149656250D01*
G75*
G02*
X104393750Y-149875000I-218750J0D01*
G01*
X103956250Y-149875000D01*
G75*
G02*
X103737500Y-149656250I0J218750D01*
G01*
X103737500Y-149143750D01*
G75*
G02*
X103956250Y-148925000I218750J0D01*
G01*
X104393750Y-148925000D01*
G75*
G02*
X104612500Y-149143750I0J-218750D01*
G01*
G37*
%TD*%
%TO.C,R18*%
G36*
G01*
X115556250Y-123962500D02*
X115043750Y-123962500D01*
G75*
G02*
X114825000Y-123743750I0J218750D01*
G01*
X114825000Y-123306250D01*
G75*
G02*
X115043750Y-123087500I218750J0D01*
G01*
X115556250Y-123087500D01*
G75*
G02*
X115775000Y-123306250I0J-218750D01*
G01*
X115775000Y-123743750D01*
G75*
G02*
X115556250Y-123962500I-218750J0D01*
G01*
G37*
G36*
G01*
X115556250Y-125537500D02*
X115043750Y-125537500D01*
G75*
G02*
X114825000Y-125318750I0J218750D01*
G01*
X114825000Y-124881250D01*
G75*
G02*
X115043750Y-124662500I218750J0D01*
G01*
X115556250Y-124662500D01*
G75*
G02*
X115775000Y-124881250I0J-218750D01*
G01*
X115775000Y-125318750D01*
G75*
G02*
X115556250Y-125537500I-218750J0D01*
G01*
G37*
%TD*%
%TO.C,R17*%
G36*
G01*
X137462500Y-137656250D02*
X137462500Y-137143750D01*
G75*
G02*
X137681250Y-136925000I218750J0D01*
G01*
X138118750Y-136925000D01*
G75*
G02*
X138337500Y-137143750I0J-218750D01*
G01*
X138337500Y-137656250D01*
G75*
G02*
X138118750Y-137875000I-218750J0D01*
G01*
X137681250Y-137875000D01*
G75*
G02*
X137462500Y-137656250I0J218750D01*
G01*
G37*
G36*
G01*
X135887500Y-137656250D02*
X135887500Y-137143750D01*
G75*
G02*
X136106250Y-136925000I218750J0D01*
G01*
X136543750Y-136925000D01*
G75*
G02*
X136762500Y-137143750I0J-218750D01*
G01*
X136762500Y-137656250D01*
G75*
G02*
X136543750Y-137875000I-218750J0D01*
G01*
X136106250Y-137875000D01*
G75*
G02*
X135887500Y-137656250I0J218750D01*
G01*
G37*
%TD*%
%TO.C,R16*%
G36*
G01*
X139937500Y-137143750D02*
X139937500Y-137656250D01*
G75*
G02*
X139718750Y-137875000I-218750J0D01*
G01*
X139281250Y-137875000D01*
G75*
G02*
X139062500Y-137656250I0J218750D01*
G01*
X139062500Y-137143750D01*
G75*
G02*
X139281250Y-136925000I218750J0D01*
G01*
X139718750Y-136925000D01*
G75*
G02*
X139937500Y-137143750I0J-218750D01*
G01*
G37*
G36*
G01*
X141512500Y-137143750D02*
X141512500Y-137656250D01*
G75*
G02*
X141293750Y-137875000I-218750J0D01*
G01*
X140856250Y-137875000D01*
G75*
G02*
X140637500Y-137656250I0J218750D01*
G01*
X140637500Y-137143750D01*
G75*
G02*
X140856250Y-136925000I218750J0D01*
G01*
X141293750Y-136925000D01*
G75*
G02*
X141512500Y-137143750I0J-218750D01*
G01*
G37*
%TD*%
%TO.C,R13*%
G36*
G01*
X144237500Y-141756250D02*
X144237500Y-141243750D01*
G75*
G02*
X144456250Y-141025000I218750J0D01*
G01*
X144893750Y-141025000D01*
G75*
G02*
X145112500Y-141243750I0J-218750D01*
G01*
X145112500Y-141756250D01*
G75*
G02*
X144893750Y-141975000I-218750J0D01*
G01*
X144456250Y-141975000D01*
G75*
G02*
X144237500Y-141756250I0J218750D01*
G01*
G37*
G36*
G01*
X142662500Y-141756250D02*
X142662500Y-141243750D01*
G75*
G02*
X142881250Y-141025000I218750J0D01*
G01*
X143318750Y-141025000D01*
G75*
G02*
X143537500Y-141243750I0J-218750D01*
G01*
X143537500Y-141756250D01*
G75*
G02*
X143318750Y-141975000I-218750J0D01*
G01*
X142881250Y-141975000D01*
G75*
G02*
X142662500Y-141756250I0J218750D01*
G01*
G37*
%TD*%
%TO.C,R10*%
G36*
G01*
X141250000Y-143356250D02*
X141250000Y-142843750D01*
G75*
G02*
X141468750Y-142625000I218750J0D01*
G01*
X141906250Y-142625000D01*
G75*
G02*
X142125000Y-142843750I0J-218750D01*
G01*
X142125000Y-143356250D01*
G75*
G02*
X141906250Y-143575000I-218750J0D01*
G01*
X141468750Y-143575000D01*
G75*
G02*
X141250000Y-143356250I0J218750D01*
G01*
G37*
G36*
G01*
X139675000Y-143356250D02*
X139675000Y-142843750D01*
G75*
G02*
X139893750Y-142625000I218750J0D01*
G01*
X140331250Y-142625000D01*
G75*
G02*
X140550000Y-142843750I0J-218750D01*
G01*
X140550000Y-143356250D01*
G75*
G02*
X140331250Y-143575000I-218750J0D01*
G01*
X139893750Y-143575000D01*
G75*
G02*
X139675000Y-143356250I0J218750D01*
G01*
G37*
%TD*%
%TO.C,R9*%
G36*
G01*
X132243750Y-143637500D02*
X132756250Y-143637500D01*
G75*
G02*
X132975000Y-143856250I0J-218750D01*
G01*
X132975000Y-144293750D01*
G75*
G02*
X132756250Y-144512500I-218750J0D01*
G01*
X132243750Y-144512500D01*
G75*
G02*
X132025000Y-144293750I0J218750D01*
G01*
X132025000Y-143856250D01*
G75*
G02*
X132243750Y-143637500I218750J0D01*
G01*
G37*
G36*
G01*
X132243750Y-142062500D02*
X132756250Y-142062500D01*
G75*
G02*
X132975000Y-142281250I0J-218750D01*
G01*
X132975000Y-142718750D01*
G75*
G02*
X132756250Y-142937500I-218750J0D01*
G01*
X132243750Y-142937500D01*
G75*
G02*
X132025000Y-142718750I0J218750D01*
G01*
X132025000Y-142281250D01*
G75*
G02*
X132243750Y-142062500I218750J0D01*
G01*
G37*
%TD*%
%TO.C,R8*%
G36*
G01*
X135443750Y-143462500D02*
X135956250Y-143462500D01*
G75*
G02*
X136175000Y-143681250I0J-218750D01*
G01*
X136175000Y-144118750D01*
G75*
G02*
X135956250Y-144337500I-218750J0D01*
G01*
X135443750Y-144337500D01*
G75*
G02*
X135225000Y-144118750I0J218750D01*
G01*
X135225000Y-143681250D01*
G75*
G02*
X135443750Y-143462500I218750J0D01*
G01*
G37*
G36*
G01*
X135443750Y-141887500D02*
X135956250Y-141887500D01*
G75*
G02*
X136175000Y-142106250I0J-218750D01*
G01*
X136175000Y-142543750D01*
G75*
G02*
X135956250Y-142762500I-218750J0D01*
G01*
X135443750Y-142762500D01*
G75*
G02*
X135225000Y-142543750I0J218750D01*
G01*
X135225000Y-142106250D01*
G75*
G02*
X135443750Y-141887500I218750J0D01*
G01*
G37*
%TD*%
%TO.C,R7*%
G36*
G01*
X135262500Y-141056250D02*
X135262500Y-140543750D01*
G75*
G02*
X135481250Y-140325000I218750J0D01*
G01*
X135918750Y-140325000D01*
G75*
G02*
X136137500Y-140543750I0J-218750D01*
G01*
X136137500Y-141056250D01*
G75*
G02*
X135918750Y-141275000I-218750J0D01*
G01*
X135481250Y-141275000D01*
G75*
G02*
X135262500Y-141056250I0J218750D01*
G01*
G37*
G36*
G01*
X133687500Y-141056250D02*
X133687500Y-140543750D01*
G75*
G02*
X133906250Y-140325000I218750J0D01*
G01*
X134343750Y-140325000D01*
G75*
G02*
X134562500Y-140543750I0J-218750D01*
G01*
X134562500Y-141056250D01*
G75*
G02*
X134343750Y-141275000I-218750J0D01*
G01*
X133906250Y-141275000D01*
G75*
G02*
X133687500Y-141056250I0J218750D01*
G01*
G37*
%TD*%
%TO.C,R6*%
G36*
G01*
X144156250Y-146737500D02*
X143643750Y-146737500D01*
G75*
G02*
X143425000Y-146518750I0J218750D01*
G01*
X143425000Y-146081250D01*
G75*
G02*
X143643750Y-145862500I218750J0D01*
G01*
X144156250Y-145862500D01*
G75*
G02*
X144375000Y-146081250I0J-218750D01*
G01*
X144375000Y-146518750D01*
G75*
G02*
X144156250Y-146737500I-218750J0D01*
G01*
G37*
G36*
G01*
X144156250Y-148312500D02*
X143643750Y-148312500D01*
G75*
G02*
X143425000Y-148093750I0J218750D01*
G01*
X143425000Y-147656250D01*
G75*
G02*
X143643750Y-147437500I218750J0D01*
G01*
X144156250Y-147437500D01*
G75*
G02*
X144375000Y-147656250I0J-218750D01*
G01*
X144375000Y-148093750D01*
G75*
G02*
X144156250Y-148312500I-218750J0D01*
G01*
G37*
%TD*%
%TO.C,R3*%
G36*
G01*
X86143750Y-122462500D02*
X86656250Y-122462500D01*
G75*
G02*
X86875000Y-122681250I0J-218750D01*
G01*
X86875000Y-123118750D01*
G75*
G02*
X86656250Y-123337500I-218750J0D01*
G01*
X86143750Y-123337500D01*
G75*
G02*
X85925000Y-123118750I0J218750D01*
G01*
X85925000Y-122681250D01*
G75*
G02*
X86143750Y-122462500I218750J0D01*
G01*
G37*
G36*
G01*
X86143750Y-120887500D02*
X86656250Y-120887500D01*
G75*
G02*
X86875000Y-121106250I0J-218750D01*
G01*
X86875000Y-121543750D01*
G75*
G02*
X86656250Y-121762500I-218750J0D01*
G01*
X86143750Y-121762500D01*
G75*
G02*
X85925000Y-121543750I0J218750D01*
G01*
X85925000Y-121106250D01*
G75*
G02*
X86143750Y-120887500I218750J0D01*
G01*
G37*
%TD*%
%TO.C,L4*%
G36*
G01*
X125543750Y-124862500D02*
X126456250Y-124862500D01*
G75*
G02*
X126700000Y-125106250I0J-243750D01*
G01*
X126700000Y-125593750D01*
G75*
G02*
X126456250Y-125837500I-243750J0D01*
G01*
X125543750Y-125837500D01*
G75*
G02*
X125300000Y-125593750I0J243750D01*
G01*
X125300000Y-125106250D01*
G75*
G02*
X125543750Y-124862500I243750J0D01*
G01*
G37*
G36*
G01*
X125543750Y-122987500D02*
X126456250Y-122987500D01*
G75*
G02*
X126700000Y-123231250I0J-243750D01*
G01*
X126700000Y-123718750D01*
G75*
G02*
X126456250Y-123962500I-243750J0D01*
G01*
X125543750Y-123962500D01*
G75*
G02*
X125300000Y-123718750I0J243750D01*
G01*
X125300000Y-123231250D01*
G75*
G02*
X125543750Y-122987500I243750J0D01*
G01*
G37*
%TD*%
D34*
%TO.C,L3*%
X72300000Y-155100000D03*
X72300000Y-146100000D03*
%TD*%
%TO.C,L2*%
G36*
G01*
X112943750Y-124987500D02*
X113856250Y-124987500D01*
G75*
G02*
X114100000Y-125231250I0J-243750D01*
G01*
X114100000Y-125718750D01*
G75*
G02*
X113856250Y-125962500I-243750J0D01*
G01*
X112943750Y-125962500D01*
G75*
G02*
X112700000Y-125718750I0J243750D01*
G01*
X112700000Y-125231250D01*
G75*
G02*
X112943750Y-124987500I243750J0D01*
G01*
G37*
G36*
G01*
X112943750Y-123112500D02*
X113856250Y-123112500D01*
G75*
G02*
X114100000Y-123356250I0J-243750D01*
G01*
X114100000Y-123843750D01*
G75*
G02*
X113856250Y-124087500I-243750J0D01*
G01*
X112943750Y-124087500D01*
G75*
G02*
X112700000Y-123843750I0J243750D01*
G01*
X112700000Y-123356250D01*
G75*
G02*
X112943750Y-123112500I243750J0D01*
G01*
G37*
%TD*%
D35*
%TO.C,J6*%
X140000000Y-99400000D03*
D36*
X137175000Y-99600000D03*
X142825000Y-99600000D03*
%TD*%
D37*
%TO.C,J5*%
X148100000Y-164000000D03*
D38*
X147900000Y-161175000D03*
X147900000Y-166825000D03*
%TD*%
D35*
%TO.C,J4*%
X127000000Y-99400000D03*
D36*
X124175000Y-99600000D03*
X129825000Y-99600000D03*
%TD*%
D37*
%TO.C,J3*%
X148100000Y-151000000D03*
D38*
X147900000Y-148175000D03*
X147900000Y-153825000D03*
%TD*%
%TO.C,FB4*%
G36*
G01*
X104443750Y-163012500D02*
X105356250Y-163012500D01*
G75*
G02*
X105600000Y-163256250I0J-243750D01*
G01*
X105600000Y-163743750D01*
G75*
G02*
X105356250Y-163987500I-243750J0D01*
G01*
X104443750Y-163987500D01*
G75*
G02*
X104200000Y-163743750I0J243750D01*
G01*
X104200000Y-163256250D01*
G75*
G02*
X104443750Y-163012500I243750J0D01*
G01*
G37*
G36*
G01*
X104443750Y-161137500D02*
X105356250Y-161137500D01*
G75*
G02*
X105600000Y-161381250I0J-243750D01*
G01*
X105600000Y-161868750D01*
G75*
G02*
X105356250Y-162112500I-243750J0D01*
G01*
X104443750Y-162112500D01*
G75*
G02*
X104200000Y-161868750I0J243750D01*
G01*
X104200000Y-161381250D01*
G75*
G02*
X104443750Y-161137500I243750J0D01*
G01*
G37*
%TD*%
%TO.C,FB3*%
G36*
G01*
X74243750Y-167012500D02*
X75156250Y-167012500D01*
G75*
G02*
X75400000Y-167256250I0J-243750D01*
G01*
X75400000Y-167743750D01*
G75*
G02*
X75156250Y-167987500I-243750J0D01*
G01*
X74243750Y-167987500D01*
G75*
G02*
X74000000Y-167743750I0J243750D01*
G01*
X74000000Y-167256250D01*
G75*
G02*
X74243750Y-167012500I243750J0D01*
G01*
G37*
G36*
G01*
X74243750Y-165137500D02*
X75156250Y-165137500D01*
G75*
G02*
X75400000Y-165381250I0J-243750D01*
G01*
X75400000Y-165868750D01*
G75*
G02*
X75156250Y-166112500I-243750J0D01*
G01*
X74243750Y-166112500D01*
G75*
G02*
X74000000Y-165868750I0J243750D01*
G01*
X74000000Y-165381250D01*
G75*
G02*
X74243750Y-165137500I243750J0D01*
G01*
G37*
%TD*%
%TO.C,FB1*%
G36*
G01*
X86743750Y-128512500D02*
X87656250Y-128512500D01*
G75*
G02*
X87900000Y-128756250I0J-243750D01*
G01*
X87900000Y-129243750D01*
G75*
G02*
X87656250Y-129487500I-243750J0D01*
G01*
X86743750Y-129487500D01*
G75*
G02*
X86500000Y-129243750I0J243750D01*
G01*
X86500000Y-128756250D01*
G75*
G02*
X86743750Y-128512500I243750J0D01*
G01*
G37*
G36*
G01*
X86743750Y-126637500D02*
X87656250Y-126637500D01*
G75*
G02*
X87900000Y-126881250I0J-243750D01*
G01*
X87900000Y-127368750D01*
G75*
G02*
X87656250Y-127612500I-243750J0D01*
G01*
X86743750Y-127612500D01*
G75*
G02*
X86500000Y-127368750I0J243750D01*
G01*
X86500000Y-126881250D01*
G75*
G02*
X86743750Y-126637500I243750J0D01*
G01*
G37*
%TD*%
%TO.C,D3*%
G36*
G01*
X100637500Y-149656250D02*
X100637500Y-149143750D01*
G75*
G02*
X100856250Y-148925000I218750J0D01*
G01*
X101293750Y-148925000D01*
G75*
G02*
X101512500Y-149143750I0J-218750D01*
G01*
X101512500Y-149656250D01*
G75*
G02*
X101293750Y-149875000I-218750J0D01*
G01*
X100856250Y-149875000D01*
G75*
G02*
X100637500Y-149656250I0J218750D01*
G01*
G37*
G36*
G01*
X99062500Y-149656250D02*
X99062500Y-149143750D01*
G75*
G02*
X99281250Y-148925000I218750J0D01*
G01*
X99718750Y-148925000D01*
G75*
G02*
X99937500Y-149143750I0J-218750D01*
G01*
X99937500Y-149656250D01*
G75*
G02*
X99718750Y-149875000I-218750J0D01*
G01*
X99281250Y-149875000D01*
G75*
G02*
X99062500Y-149656250I0J218750D01*
G01*
G37*
%TD*%
%TO.C,C48*%
G36*
G01*
X107056250Y-162737500D02*
X106543750Y-162737500D01*
G75*
G02*
X106325000Y-162518750I0J218750D01*
G01*
X106325000Y-162081250D01*
G75*
G02*
X106543750Y-161862500I218750J0D01*
G01*
X107056250Y-161862500D01*
G75*
G02*
X107275000Y-162081250I0J-218750D01*
G01*
X107275000Y-162518750D01*
G75*
G02*
X107056250Y-162737500I-218750J0D01*
G01*
G37*
G36*
G01*
X107056250Y-164312500D02*
X106543750Y-164312500D01*
G75*
G02*
X106325000Y-164093750I0J218750D01*
G01*
X106325000Y-163656250D01*
G75*
G02*
X106543750Y-163437500I218750J0D01*
G01*
X107056250Y-163437500D01*
G75*
G02*
X107275000Y-163656250I0J-218750D01*
G01*
X107275000Y-164093750D01*
G75*
G02*
X107056250Y-164312500I-218750J0D01*
G01*
G37*
%TD*%
%TO.C,C47*%
G36*
G01*
X103156250Y-160037500D02*
X102643750Y-160037500D01*
G75*
G02*
X102425000Y-159818750I0J218750D01*
G01*
X102425000Y-159381250D01*
G75*
G02*
X102643750Y-159162500I218750J0D01*
G01*
X103156250Y-159162500D01*
G75*
G02*
X103375000Y-159381250I0J-218750D01*
G01*
X103375000Y-159818750D01*
G75*
G02*
X103156250Y-160037500I-218750J0D01*
G01*
G37*
G36*
G01*
X103156250Y-161612500D02*
X102643750Y-161612500D01*
G75*
G02*
X102425000Y-161393750I0J218750D01*
G01*
X102425000Y-160956250D01*
G75*
G02*
X102643750Y-160737500I218750J0D01*
G01*
X103156250Y-160737500D01*
G75*
G02*
X103375000Y-160956250I0J-218750D01*
G01*
X103375000Y-161393750D01*
G75*
G02*
X103156250Y-161612500I-218750J0D01*
G01*
G37*
%TD*%
%TO.C,C46*%
G36*
G01*
X109956250Y-160337500D02*
X109443750Y-160337500D01*
G75*
G02*
X109225000Y-160118750I0J218750D01*
G01*
X109225000Y-159681250D01*
G75*
G02*
X109443750Y-159462500I218750J0D01*
G01*
X109956250Y-159462500D01*
G75*
G02*
X110175000Y-159681250I0J-218750D01*
G01*
X110175000Y-160118750D01*
G75*
G02*
X109956250Y-160337500I-218750J0D01*
G01*
G37*
G36*
G01*
X109956250Y-161912500D02*
X109443750Y-161912500D01*
G75*
G02*
X109225000Y-161693750I0J218750D01*
G01*
X109225000Y-161256250D01*
G75*
G02*
X109443750Y-161037500I218750J0D01*
G01*
X109956250Y-161037500D01*
G75*
G02*
X110175000Y-161256250I0J-218750D01*
G01*
X110175000Y-161693750D01*
G75*
G02*
X109956250Y-161912500I-218750J0D01*
G01*
G37*
%TD*%
%TO.C,C45*%
G36*
G01*
X104743750Y-154437500D02*
X105256250Y-154437500D01*
G75*
G02*
X105475000Y-154656250I0J-218750D01*
G01*
X105475000Y-155093750D01*
G75*
G02*
X105256250Y-155312500I-218750J0D01*
G01*
X104743750Y-155312500D01*
G75*
G02*
X104525000Y-155093750I0J218750D01*
G01*
X104525000Y-154656250D01*
G75*
G02*
X104743750Y-154437500I218750J0D01*
G01*
G37*
G36*
G01*
X104743750Y-152862500D02*
X105256250Y-152862500D01*
G75*
G02*
X105475000Y-153081250I0J-218750D01*
G01*
X105475000Y-153518750D01*
G75*
G02*
X105256250Y-153737500I-218750J0D01*
G01*
X104743750Y-153737500D01*
G75*
G02*
X104525000Y-153518750I0J218750D01*
G01*
X104525000Y-153081250D01*
G75*
G02*
X104743750Y-152862500I218750J0D01*
G01*
G37*
%TD*%
%TO.C,C44*%
G36*
G01*
X103043750Y-154462500D02*
X103556250Y-154462500D01*
G75*
G02*
X103775000Y-154681250I0J-218750D01*
G01*
X103775000Y-155118750D01*
G75*
G02*
X103556250Y-155337500I-218750J0D01*
G01*
X103043750Y-155337500D01*
G75*
G02*
X102825000Y-155118750I0J218750D01*
G01*
X102825000Y-154681250D01*
G75*
G02*
X103043750Y-154462500I218750J0D01*
G01*
G37*
G36*
G01*
X103043750Y-152887500D02*
X103556250Y-152887500D01*
G75*
G02*
X103775000Y-153106250I0J-218750D01*
G01*
X103775000Y-153543750D01*
G75*
G02*
X103556250Y-153762500I-218750J0D01*
G01*
X103043750Y-153762500D01*
G75*
G02*
X102825000Y-153543750I0J218750D01*
G01*
X102825000Y-153106250D01*
G75*
G02*
X103043750Y-152887500I218750J0D01*
G01*
G37*
%TD*%
%TO.C,C43*%
G36*
G01*
X110962500Y-158356250D02*
X110962500Y-157843750D01*
G75*
G02*
X111181250Y-157625000I218750J0D01*
G01*
X111618750Y-157625000D01*
G75*
G02*
X111837500Y-157843750I0J-218750D01*
G01*
X111837500Y-158356250D01*
G75*
G02*
X111618750Y-158575000I-218750J0D01*
G01*
X111181250Y-158575000D01*
G75*
G02*
X110962500Y-158356250I0J218750D01*
G01*
G37*
G36*
G01*
X109387500Y-158356250D02*
X109387500Y-157843750D01*
G75*
G02*
X109606250Y-157625000I218750J0D01*
G01*
X110043750Y-157625000D01*
G75*
G02*
X110262500Y-157843750I0J-218750D01*
G01*
X110262500Y-158356250D01*
G75*
G02*
X110043750Y-158575000I-218750J0D01*
G01*
X109606250Y-158575000D01*
G75*
G02*
X109387500Y-158356250I0J218750D01*
G01*
G37*
%TD*%
%TO.C,C42*%
G36*
G01*
X108862500Y-162743750D02*
X108862500Y-163256250D01*
G75*
G02*
X108643750Y-163475000I-218750J0D01*
G01*
X108206250Y-163475000D01*
G75*
G02*
X107987500Y-163256250I0J218750D01*
G01*
X107987500Y-162743750D01*
G75*
G02*
X108206250Y-162525000I218750J0D01*
G01*
X108643750Y-162525000D01*
G75*
G02*
X108862500Y-162743750I0J-218750D01*
G01*
G37*
G36*
G01*
X110437500Y-162743750D02*
X110437500Y-163256250D01*
G75*
G02*
X110218750Y-163475000I-218750J0D01*
G01*
X109781250Y-163475000D01*
G75*
G02*
X109562500Y-163256250I0J218750D01*
G01*
X109562500Y-162743750D01*
G75*
G02*
X109781250Y-162525000I218750J0D01*
G01*
X110218750Y-162525000D01*
G75*
G02*
X110437500Y-162743750I0J-218750D01*
G01*
G37*
%TD*%
%TO.C,C41*%
G36*
G01*
X113943750Y-158562500D02*
X114456250Y-158562500D01*
G75*
G02*
X114675000Y-158781250I0J-218750D01*
G01*
X114675000Y-159218750D01*
G75*
G02*
X114456250Y-159437500I-218750J0D01*
G01*
X113943750Y-159437500D01*
G75*
G02*
X113725000Y-159218750I0J218750D01*
G01*
X113725000Y-158781250D01*
G75*
G02*
X113943750Y-158562500I218750J0D01*
G01*
G37*
G36*
G01*
X113943750Y-156987500D02*
X114456250Y-156987500D01*
G75*
G02*
X114675000Y-157206250I0J-218750D01*
G01*
X114675000Y-157643750D01*
G75*
G02*
X114456250Y-157862500I-218750J0D01*
G01*
X113943750Y-157862500D01*
G75*
G02*
X113725000Y-157643750I0J218750D01*
G01*
X113725000Y-157206250D01*
G75*
G02*
X113943750Y-156987500I218750J0D01*
G01*
G37*
%TD*%
%TO.C,C40*%
G36*
G01*
X113943750Y-155362500D02*
X114456250Y-155362500D01*
G75*
G02*
X114675000Y-155581250I0J-218750D01*
G01*
X114675000Y-156018750D01*
G75*
G02*
X114456250Y-156237500I-218750J0D01*
G01*
X113943750Y-156237500D01*
G75*
G02*
X113725000Y-156018750I0J218750D01*
G01*
X113725000Y-155581250D01*
G75*
G02*
X113943750Y-155362500I218750J0D01*
G01*
G37*
G36*
G01*
X113943750Y-153787500D02*
X114456250Y-153787500D01*
G75*
G02*
X114675000Y-154006250I0J-218750D01*
G01*
X114675000Y-154443750D01*
G75*
G02*
X114456250Y-154662500I-218750J0D01*
G01*
X113943750Y-154662500D01*
G75*
G02*
X113725000Y-154443750I0J218750D01*
G01*
X113725000Y-154006250D01*
G75*
G02*
X113943750Y-153787500I218750J0D01*
G01*
G37*
%TD*%
%TO.C,C39*%
G36*
G01*
X134112500Y-127306250D02*
X134112500Y-126793750D01*
G75*
G02*
X134331250Y-126575000I218750J0D01*
G01*
X134768750Y-126575000D01*
G75*
G02*
X134987500Y-126793750I0J-218750D01*
G01*
X134987500Y-127306250D01*
G75*
G02*
X134768750Y-127525000I-218750J0D01*
G01*
X134331250Y-127525000D01*
G75*
G02*
X134112500Y-127306250I0J218750D01*
G01*
G37*
G36*
G01*
X132537500Y-127306250D02*
X132537500Y-126793750D01*
G75*
G02*
X132756250Y-126575000I218750J0D01*
G01*
X133193750Y-126575000D01*
G75*
G02*
X133412500Y-126793750I0J-218750D01*
G01*
X133412500Y-127306250D01*
G75*
G02*
X133193750Y-127525000I-218750J0D01*
G01*
X132756250Y-127525000D01*
G75*
G02*
X132537500Y-127306250I0J218750D01*
G01*
G37*
%TD*%
%TO.C,C38*%
G36*
G01*
X129243750Y-124587500D02*
X129756250Y-124587500D01*
G75*
G02*
X129975000Y-124806250I0J-218750D01*
G01*
X129975000Y-125243750D01*
G75*
G02*
X129756250Y-125462500I-218750J0D01*
G01*
X129243750Y-125462500D01*
G75*
G02*
X129025000Y-125243750I0J218750D01*
G01*
X129025000Y-124806250D01*
G75*
G02*
X129243750Y-124587500I218750J0D01*
G01*
G37*
G36*
G01*
X129243750Y-123012500D02*
X129756250Y-123012500D01*
G75*
G02*
X129975000Y-123231250I0J-218750D01*
G01*
X129975000Y-123668750D01*
G75*
G02*
X129756250Y-123887500I-218750J0D01*
G01*
X129243750Y-123887500D01*
G75*
G02*
X129025000Y-123668750I0J218750D01*
G01*
X129025000Y-123231250D01*
G75*
G02*
X129243750Y-123012500I218750J0D01*
G01*
G37*
%TD*%
%TO.C,C37*%
G36*
G01*
X123343750Y-126600000D02*
X123856250Y-126600000D01*
G75*
G02*
X124075000Y-126818750I0J-218750D01*
G01*
X124075000Y-127256250D01*
G75*
G02*
X123856250Y-127475000I-218750J0D01*
G01*
X123343750Y-127475000D01*
G75*
G02*
X123125000Y-127256250I0J218750D01*
G01*
X123125000Y-126818750D01*
G75*
G02*
X123343750Y-126600000I218750J0D01*
G01*
G37*
G36*
G01*
X123343750Y-125025000D02*
X123856250Y-125025000D01*
G75*
G02*
X124075000Y-125243750I0J-218750D01*
G01*
X124075000Y-125681250D01*
G75*
G02*
X123856250Y-125900000I-218750J0D01*
G01*
X123343750Y-125900000D01*
G75*
G02*
X123125000Y-125681250I0J218750D01*
G01*
X123125000Y-125243750D01*
G75*
G02*
X123343750Y-125025000I218750J0D01*
G01*
G37*
%TD*%
%TO.C,C34*%
G36*
G01*
X120562500Y-127856250D02*
X120562500Y-127343750D01*
G75*
G02*
X120781250Y-127125000I218750J0D01*
G01*
X121218750Y-127125000D01*
G75*
G02*
X121437500Y-127343750I0J-218750D01*
G01*
X121437500Y-127856250D01*
G75*
G02*
X121218750Y-128075000I-218750J0D01*
G01*
X120781250Y-128075000D01*
G75*
G02*
X120562500Y-127856250I0J218750D01*
G01*
G37*
G36*
G01*
X118987500Y-127856250D02*
X118987500Y-127343750D01*
G75*
G02*
X119206250Y-127125000I218750J0D01*
G01*
X119643750Y-127125000D01*
G75*
G02*
X119862500Y-127343750I0J-218750D01*
G01*
X119862500Y-127856250D01*
G75*
G02*
X119643750Y-128075000I-218750J0D01*
G01*
X119206250Y-128075000D01*
G75*
G02*
X118987500Y-127856250I0J218750D01*
G01*
G37*
%TD*%
%TO.C,C33*%
G36*
G01*
X106762500Y-149656250D02*
X106762500Y-149143750D01*
G75*
G02*
X106981250Y-148925000I218750J0D01*
G01*
X107418750Y-148925000D01*
G75*
G02*
X107637500Y-149143750I0J-218750D01*
G01*
X107637500Y-149656250D01*
G75*
G02*
X107418750Y-149875000I-218750J0D01*
G01*
X106981250Y-149875000D01*
G75*
G02*
X106762500Y-149656250I0J218750D01*
G01*
G37*
G36*
G01*
X105187500Y-149656250D02*
X105187500Y-149143750D01*
G75*
G02*
X105406250Y-148925000I218750J0D01*
G01*
X105843750Y-148925000D01*
G75*
G02*
X106062500Y-149143750I0J-218750D01*
G01*
X106062500Y-149656250D01*
G75*
G02*
X105843750Y-149875000I-218750J0D01*
G01*
X105406250Y-149875000D01*
G75*
G02*
X105187500Y-149656250I0J218750D01*
G01*
G37*
%TD*%
%TO.C,C32*%
G36*
G01*
X106943750Y-147162500D02*
X107456250Y-147162500D01*
G75*
G02*
X107675000Y-147381250I0J-218750D01*
G01*
X107675000Y-147818750D01*
G75*
G02*
X107456250Y-148037500I-218750J0D01*
G01*
X106943750Y-148037500D01*
G75*
G02*
X106725000Y-147818750I0J218750D01*
G01*
X106725000Y-147381250D01*
G75*
G02*
X106943750Y-147162500I218750J0D01*
G01*
G37*
G36*
G01*
X106943750Y-145587500D02*
X107456250Y-145587500D01*
G75*
G02*
X107675000Y-145806250I0J-218750D01*
G01*
X107675000Y-146243750D01*
G75*
G02*
X107456250Y-146462500I-218750J0D01*
G01*
X106943750Y-146462500D01*
G75*
G02*
X106725000Y-146243750I0J218750D01*
G01*
X106725000Y-145806250D01*
G75*
G02*
X106943750Y-145587500I218750J0D01*
G01*
G37*
%TD*%
%TO.C,C31*%
G36*
G01*
X116743750Y-124637500D02*
X117256250Y-124637500D01*
G75*
G02*
X117475000Y-124856250I0J-218750D01*
G01*
X117475000Y-125293750D01*
G75*
G02*
X117256250Y-125512500I-218750J0D01*
G01*
X116743750Y-125512500D01*
G75*
G02*
X116525000Y-125293750I0J218750D01*
G01*
X116525000Y-124856250D01*
G75*
G02*
X116743750Y-124637500I218750J0D01*
G01*
G37*
G36*
G01*
X116743750Y-123062500D02*
X117256250Y-123062500D01*
G75*
G02*
X117475000Y-123281250I0J-218750D01*
G01*
X117475000Y-123718750D01*
G75*
G02*
X117256250Y-123937500I-218750J0D01*
G01*
X116743750Y-123937500D01*
G75*
G02*
X116525000Y-123718750I0J218750D01*
G01*
X116525000Y-123281250D01*
G75*
G02*
X116743750Y-123062500I218750J0D01*
G01*
G37*
%TD*%
%TO.C,C30*%
G36*
G01*
X111137500Y-125256250D02*
X111137500Y-124743750D01*
G75*
G02*
X111356250Y-124525000I218750J0D01*
G01*
X111793750Y-124525000D01*
G75*
G02*
X112012500Y-124743750I0J-218750D01*
G01*
X112012500Y-125256250D01*
G75*
G02*
X111793750Y-125475000I-218750J0D01*
G01*
X111356250Y-125475000D01*
G75*
G02*
X111137500Y-125256250I0J218750D01*
G01*
G37*
G36*
G01*
X109562500Y-125256250D02*
X109562500Y-124743750D01*
G75*
G02*
X109781250Y-124525000I218750J0D01*
G01*
X110218750Y-124525000D01*
G75*
G02*
X110437500Y-124743750I0J-218750D01*
G01*
X110437500Y-125256250D01*
G75*
G02*
X110218750Y-125475000I-218750J0D01*
G01*
X109781250Y-125475000D01*
G75*
G02*
X109562500Y-125256250I0J218750D01*
G01*
G37*
%TD*%
%TO.C,C28*%
G36*
G01*
X101537500Y-143943750D02*
X101537500Y-144456250D01*
G75*
G02*
X101318750Y-144675000I-218750J0D01*
G01*
X100881250Y-144675000D01*
G75*
G02*
X100662500Y-144456250I0J218750D01*
G01*
X100662500Y-143943750D01*
G75*
G02*
X100881250Y-143725000I218750J0D01*
G01*
X101318750Y-143725000D01*
G75*
G02*
X101537500Y-143943750I0J-218750D01*
G01*
G37*
G36*
G01*
X103112500Y-143943750D02*
X103112500Y-144456250D01*
G75*
G02*
X102893750Y-144675000I-218750J0D01*
G01*
X102456250Y-144675000D01*
G75*
G02*
X102237500Y-144456250I0J218750D01*
G01*
X102237500Y-143943750D01*
G75*
G02*
X102456250Y-143725000I218750J0D01*
G01*
X102893750Y-143725000D01*
G75*
G02*
X103112500Y-143943750I0J-218750D01*
G01*
G37*
%TD*%
%TO.C,C26*%
G36*
G01*
X137656250Y-139337500D02*
X137143750Y-139337500D01*
G75*
G02*
X136925000Y-139118750I0J218750D01*
G01*
X136925000Y-138681250D01*
G75*
G02*
X137143750Y-138462500I218750J0D01*
G01*
X137656250Y-138462500D01*
G75*
G02*
X137875000Y-138681250I0J-218750D01*
G01*
X137875000Y-139118750D01*
G75*
G02*
X137656250Y-139337500I-218750J0D01*
G01*
G37*
G36*
G01*
X137656250Y-140912500D02*
X137143750Y-140912500D01*
G75*
G02*
X136925000Y-140693750I0J218750D01*
G01*
X136925000Y-140256250D01*
G75*
G02*
X137143750Y-140037500I218750J0D01*
G01*
X137656250Y-140037500D01*
G75*
G02*
X137875000Y-140256250I0J-218750D01*
G01*
X137875000Y-140693750D01*
G75*
G02*
X137656250Y-140912500I-218750J0D01*
G01*
G37*
%TD*%
%TO.C,C25*%
G36*
G01*
X143256250Y-138262500D02*
X142743750Y-138262500D01*
G75*
G02*
X142525000Y-138043750I0J218750D01*
G01*
X142525000Y-137606250D01*
G75*
G02*
X142743750Y-137387500I218750J0D01*
G01*
X143256250Y-137387500D01*
G75*
G02*
X143475000Y-137606250I0J-218750D01*
G01*
X143475000Y-138043750D01*
G75*
G02*
X143256250Y-138262500I-218750J0D01*
G01*
G37*
G36*
G01*
X143256250Y-139837500D02*
X142743750Y-139837500D01*
G75*
G02*
X142525000Y-139618750I0J218750D01*
G01*
X142525000Y-139181250D01*
G75*
G02*
X142743750Y-138962500I218750J0D01*
G01*
X143256250Y-138962500D01*
G75*
G02*
X143475000Y-139181250I0J-218750D01*
G01*
X143475000Y-139618750D01*
G75*
G02*
X143256250Y-139837500I-218750J0D01*
G01*
G37*
%TD*%
%TO.C,C24*%
G36*
G01*
X95125000Y-166225000D02*
X93875000Y-166225000D01*
G75*
G02*
X93625000Y-165975000I0J250000D01*
G01*
X93625000Y-165225000D01*
G75*
G02*
X93875000Y-164975000I250000J0D01*
G01*
X95125000Y-164975000D01*
G75*
G02*
X95375000Y-165225000I0J-250000D01*
G01*
X95375000Y-165975000D01*
G75*
G02*
X95125000Y-166225000I-250000J0D01*
G01*
G37*
G36*
G01*
X95125000Y-169025000D02*
X93875000Y-169025000D01*
G75*
G02*
X93625000Y-168775000I0J250000D01*
G01*
X93625000Y-168025000D01*
G75*
G02*
X93875000Y-167775000I250000J0D01*
G01*
X95125000Y-167775000D01*
G75*
G02*
X95375000Y-168025000I0J-250000D01*
G01*
X95375000Y-168775000D01*
G75*
G02*
X95125000Y-169025000I-250000J0D01*
G01*
G37*
%TD*%
%TO.C,C23*%
G36*
G01*
X74275000Y-163175000D02*
X75525000Y-163175000D01*
G75*
G02*
X75775000Y-163425000I0J-250000D01*
G01*
X75775000Y-164175000D01*
G75*
G02*
X75525000Y-164425000I-250000J0D01*
G01*
X74275000Y-164425000D01*
G75*
G02*
X74025000Y-164175000I0J250000D01*
G01*
X74025000Y-163425000D01*
G75*
G02*
X74275000Y-163175000I250000J0D01*
G01*
G37*
G36*
G01*
X74275000Y-160375000D02*
X75525000Y-160375000D01*
G75*
G02*
X75775000Y-160625000I0J-250000D01*
G01*
X75775000Y-161375000D01*
G75*
G02*
X75525000Y-161625000I-250000J0D01*
G01*
X74275000Y-161625000D01*
G75*
G02*
X74025000Y-161375000I0J250000D01*
G01*
X74025000Y-160625000D01*
G75*
G02*
X74275000Y-160375000I250000J0D01*
G01*
G37*
%TD*%
%TO.C,C22*%
G36*
G01*
X135443750Y-146662500D02*
X135956250Y-146662500D01*
G75*
G02*
X136175000Y-146881250I0J-218750D01*
G01*
X136175000Y-147318750D01*
G75*
G02*
X135956250Y-147537500I-218750J0D01*
G01*
X135443750Y-147537500D01*
G75*
G02*
X135225000Y-147318750I0J218750D01*
G01*
X135225000Y-146881250D01*
G75*
G02*
X135443750Y-146662500I218750J0D01*
G01*
G37*
G36*
G01*
X135443750Y-145087500D02*
X135956250Y-145087500D01*
G75*
G02*
X136175000Y-145306250I0J-218750D01*
G01*
X136175000Y-145743750D01*
G75*
G02*
X135956250Y-145962500I-218750J0D01*
G01*
X135443750Y-145962500D01*
G75*
G02*
X135225000Y-145743750I0J218750D01*
G01*
X135225000Y-145306250D01*
G75*
G02*
X135443750Y-145087500I218750J0D01*
G01*
G37*
%TD*%
%TO.C,C21*%
G36*
G01*
X132162500Y-141056250D02*
X132162500Y-140543750D01*
G75*
G02*
X132381250Y-140325000I218750J0D01*
G01*
X132818750Y-140325000D01*
G75*
G02*
X133037500Y-140543750I0J-218750D01*
G01*
X133037500Y-141056250D01*
G75*
G02*
X132818750Y-141275000I-218750J0D01*
G01*
X132381250Y-141275000D01*
G75*
G02*
X132162500Y-141056250I0J218750D01*
G01*
G37*
G36*
G01*
X130587500Y-141056250D02*
X130587500Y-140543750D01*
G75*
G02*
X130806250Y-140325000I218750J0D01*
G01*
X131243750Y-140325000D01*
G75*
G02*
X131462500Y-140543750I0J-218750D01*
G01*
X131462500Y-141056250D01*
G75*
G02*
X131243750Y-141275000I-218750J0D01*
G01*
X130806250Y-141275000D01*
G75*
G02*
X130587500Y-141056250I0J218750D01*
G01*
G37*
%TD*%
%TO.C,C20*%
G36*
G01*
X94437500Y-170643750D02*
X94437500Y-171156250D01*
G75*
G02*
X94218750Y-171375000I-218750J0D01*
G01*
X93781250Y-171375000D01*
G75*
G02*
X93562500Y-171156250I0J218750D01*
G01*
X93562500Y-170643750D01*
G75*
G02*
X93781250Y-170425000I218750J0D01*
G01*
X94218750Y-170425000D01*
G75*
G02*
X94437500Y-170643750I0J-218750D01*
G01*
G37*
G36*
G01*
X96012500Y-170643750D02*
X96012500Y-171156250D01*
G75*
G02*
X95793750Y-171375000I-218750J0D01*
G01*
X95356250Y-171375000D01*
G75*
G02*
X95137500Y-171156250I0J218750D01*
G01*
X95137500Y-170643750D01*
G75*
G02*
X95356250Y-170425000I218750J0D01*
G01*
X95793750Y-170425000D01*
G75*
G02*
X96012500Y-170643750I0J-218750D01*
G01*
G37*
%TD*%
%TO.C,C19*%
G36*
G01*
X90612500Y-172743750D02*
X90612500Y-173256250D01*
G75*
G02*
X90393750Y-173475000I-218750J0D01*
G01*
X89956250Y-173475000D01*
G75*
G02*
X89737500Y-173256250I0J218750D01*
G01*
X89737500Y-172743750D01*
G75*
G02*
X89956250Y-172525000I218750J0D01*
G01*
X90393750Y-172525000D01*
G75*
G02*
X90612500Y-172743750I0J-218750D01*
G01*
G37*
G36*
G01*
X92187500Y-172743750D02*
X92187500Y-173256250D01*
G75*
G02*
X91968750Y-173475000I-218750J0D01*
G01*
X91531250Y-173475000D01*
G75*
G02*
X91312500Y-173256250I0J218750D01*
G01*
X91312500Y-172743750D01*
G75*
G02*
X91531250Y-172525000I218750J0D01*
G01*
X91968750Y-172525000D01*
G75*
G02*
X92187500Y-172743750I0J-218750D01*
G01*
G37*
%TD*%
%TO.C,C18*%
G36*
G01*
X87887500Y-173256250D02*
X87887500Y-172743750D01*
G75*
G02*
X88106250Y-172525000I218750J0D01*
G01*
X88543750Y-172525000D01*
G75*
G02*
X88762500Y-172743750I0J-218750D01*
G01*
X88762500Y-173256250D01*
G75*
G02*
X88543750Y-173475000I-218750J0D01*
G01*
X88106250Y-173475000D01*
G75*
G02*
X87887500Y-173256250I0J218750D01*
G01*
G37*
G36*
G01*
X86312500Y-173256250D02*
X86312500Y-172743750D01*
G75*
G02*
X86531250Y-172525000I218750J0D01*
G01*
X86968750Y-172525000D01*
G75*
G02*
X87187500Y-172743750I0J-218750D01*
G01*
X87187500Y-173256250D01*
G75*
G02*
X86968750Y-173475000I-218750J0D01*
G01*
X86531250Y-173475000D01*
G75*
G02*
X86312500Y-173256250I0J218750D01*
G01*
G37*
%TD*%
%TO.C,C16*%
G36*
G01*
X86643750Y-136062500D02*
X87156250Y-136062500D01*
G75*
G02*
X87375000Y-136281250I0J-218750D01*
G01*
X87375000Y-136718750D01*
G75*
G02*
X87156250Y-136937500I-218750J0D01*
G01*
X86643750Y-136937500D01*
G75*
G02*
X86425000Y-136718750I0J218750D01*
G01*
X86425000Y-136281250D01*
G75*
G02*
X86643750Y-136062500I218750J0D01*
G01*
G37*
G36*
G01*
X86643750Y-134487500D02*
X87156250Y-134487500D01*
G75*
G02*
X87375000Y-134706250I0J-218750D01*
G01*
X87375000Y-135143750D01*
G75*
G02*
X87156250Y-135362500I-218750J0D01*
G01*
X86643750Y-135362500D01*
G75*
G02*
X86425000Y-135143750I0J218750D01*
G01*
X86425000Y-134706250D01*
G75*
G02*
X86643750Y-134487500I218750J0D01*
G01*
G37*
%TD*%
%TO.C,C7*%
G36*
G01*
X86137500Y-125243750D02*
X86137500Y-125756250D01*
G75*
G02*
X85918750Y-125975000I-218750J0D01*
G01*
X85481250Y-125975000D01*
G75*
G02*
X85262500Y-125756250I0J218750D01*
G01*
X85262500Y-125243750D01*
G75*
G02*
X85481250Y-125025000I218750J0D01*
G01*
X85918750Y-125025000D01*
G75*
G02*
X86137500Y-125243750I0J-218750D01*
G01*
G37*
G36*
G01*
X87712500Y-125243750D02*
X87712500Y-125756250D01*
G75*
G02*
X87493750Y-125975000I-218750J0D01*
G01*
X87056250Y-125975000D01*
G75*
G02*
X86837500Y-125756250I0J218750D01*
G01*
X86837500Y-125243750D01*
G75*
G02*
X87056250Y-125025000I218750J0D01*
G01*
X87493750Y-125025000D01*
G75*
G02*
X87712500Y-125243750I0J-218750D01*
G01*
G37*
%TD*%
%TO.C,C6*%
G36*
G01*
X67643750Y-129150000D02*
X68156250Y-129150000D01*
G75*
G02*
X68375000Y-129368750I0J-218750D01*
G01*
X68375000Y-129806250D01*
G75*
G02*
X68156250Y-130025000I-218750J0D01*
G01*
X67643750Y-130025000D01*
G75*
G02*
X67425000Y-129806250I0J218750D01*
G01*
X67425000Y-129368750D01*
G75*
G02*
X67643750Y-129150000I218750J0D01*
G01*
G37*
G36*
G01*
X67643750Y-127575000D02*
X68156250Y-127575000D01*
G75*
G02*
X68375000Y-127793750I0J-218750D01*
G01*
X68375000Y-128231250D01*
G75*
G02*
X68156250Y-128450000I-218750J0D01*
G01*
X67643750Y-128450000D01*
G75*
G02*
X67425000Y-128231250I0J218750D01*
G01*
X67425000Y-127793750D01*
G75*
G02*
X67643750Y-127575000I218750J0D01*
G01*
G37*
%TD*%
%TO.C,C2*%
G36*
G01*
X74650000Y-122943750D02*
X74650000Y-123456250D01*
G75*
G02*
X74431250Y-123675000I-218750J0D01*
G01*
X73993750Y-123675000D01*
G75*
G02*
X73775000Y-123456250I0J218750D01*
G01*
X73775000Y-122943750D01*
G75*
G02*
X73993750Y-122725000I218750J0D01*
G01*
X74431250Y-122725000D01*
G75*
G02*
X74650000Y-122943750I0J-218750D01*
G01*
G37*
G36*
G01*
X76225000Y-122943750D02*
X76225000Y-123456250D01*
G75*
G02*
X76006250Y-123675000I-218750J0D01*
G01*
X75568750Y-123675000D01*
G75*
G02*
X75350000Y-123456250I0J218750D01*
G01*
X75350000Y-122943750D01*
G75*
G02*
X75568750Y-122725000I218750J0D01*
G01*
X76006250Y-122725000D01*
G75*
G02*
X76225000Y-122943750I0J-218750D01*
G01*
G37*
%TD*%
%TO.C,C1*%
G36*
G01*
X73050000Y-115143750D02*
X73050000Y-115656250D01*
G75*
G02*
X72831250Y-115875000I-218750J0D01*
G01*
X72393750Y-115875000D01*
G75*
G02*
X72175000Y-115656250I0J218750D01*
G01*
X72175000Y-115143750D01*
G75*
G02*
X72393750Y-114925000I218750J0D01*
G01*
X72831250Y-114925000D01*
G75*
G02*
X73050000Y-115143750I0J-218750D01*
G01*
G37*
G36*
G01*
X74625000Y-115143750D02*
X74625000Y-115656250D01*
G75*
G02*
X74406250Y-115875000I-218750J0D01*
G01*
X73968750Y-115875000D01*
G75*
G02*
X73750000Y-115656250I0J218750D01*
G01*
X73750000Y-115143750D01*
G75*
G02*
X73968750Y-114925000I218750J0D01*
G01*
X74406250Y-114925000D01*
G75*
G02*
X74625000Y-115143750I0J-218750D01*
G01*
G37*
%TD*%
D16*
%TO.C,AE1*%
G36*
X142500000Y-123200000D02*
G01*
X150000000Y-123200000D01*
X150000000Y-123750000D01*
X145500000Y-123750000D01*
X145500000Y-124600000D01*
X142500000Y-124600000D01*
X142500000Y-123200000D01*
G37*
G36*
X142500000Y-126400000D02*
G01*
X145500000Y-126400000D01*
X145500000Y-127250000D01*
X150000000Y-127250000D01*
X150000000Y-127800000D01*
X142500000Y-127800000D01*
X142500000Y-126400000D01*
G37*
D39*
X143500000Y-125500000D03*
%TD*%
M02*
