M48
; DRILL file {KiCad (5.1.6)-1} date 04/01/21 20:33:17
; FORMAT={-:-/ absolute / inch / decimal}
; #@! TF.CreationDate,2021-04-01T20:33:17-06:00
; #@! TF.GenerationSoftware,Kicad,Pcbnew,(5.1.6)-1
FMAT,2
INCH
T1C0.0079
T2C0.0157
T3C0.0200
T4C0.0315
T5C0.0394
T6C0.0866
T7C0.0354
%
G90
G05
T1
X2.2244Y-4.2323
X2.5295Y-4.9902
X2.5295Y-5.1476
X2.628Y-5.9449
X2.6575Y-4.9606
X2.6694Y-5.292
X2.6754Y-5.2676
X2.687Y-5.4134
X2.687Y-5.8465
X2.687Y-6.0433
X2.692Y-5.5856
X2.6969Y-5.2362
X2.7009Y-5.1726
X2.7165Y-4.2913
X2.7461Y-4.9409
X2.7559Y-5.0591
X2.7953Y-5.0098
X2.7953Y-5.2756
X2.8248Y-4.7343
X2.8346Y-4.8524
X2.8351Y-4.7874
X2.8543Y-4.5472
X2.8583Y-6.1063
X2.9208Y-4.5433
X2.9291Y-5.0118
X2.9429Y-6.2205
X2.9429Y-6.3386
X2.9685Y-4.7835
X2.9724Y-5.2657
X2.9724Y-6.4469
X2.9731Y-4.8872
X2.9882Y-5.0197
X2.9903Y-4.9665
X3.002Y-5.1575
X3.0217Y-4.6949
X3.0217Y-5.2657
X3.0315Y-4.8819
X3.0709Y-5.1575
X3.0807Y-5.2657
X3.0906Y-4.5768
X3.0935Y-4.6929
X3.1201Y-5.2657
X3.1293Y-4.9659
X3.1299Y-4.872
X3.1299Y-5.0187
X3.1624Y-5.4685
X3.189Y-4.7736
X3.189Y-6.6929
X3.189Y-6.7224
X3.1988Y-6.0433
X3.1988Y-6.1811
X3.2185Y-6.6929
X3.2185Y-6.7224
X3.2244Y-5.4685
X3.2283Y-5.5709
X3.2283Y-6.0433
X3.2283Y-6.1811
X3.2382Y-5.2559
X3.2402Y-5.9567
X3.248Y-6.6929
X3.248Y-6.7224
X3.2579Y-6.0433
X3.2579Y-6.1811
X3.2776Y-4.9311
X3.2874Y-5.1053
X3.2874Y-5.1673
X3.2874Y-5.2264
X3.2874Y-6.0433
X3.2874Y-6.1811
X3.2882Y-5.2875
X3.2953Y-4.7756
X3.3071Y-5.7283
X3.3268Y-6.063
X3.3346Y-5.9567
X3.3465Y-5.5709
X3.3957Y-5.1673
X3.4055Y-4.8425
X3.4154Y-4.9409
X3.4154Y-6.811
X3.4213Y-5.374
X3.4331Y-5.0787
X3.4744Y-5.3642
X3.5433Y-5.9744
X3.5433Y-6.063
X3.5433Y-6.1417
X3.5827Y-6.5256
X3.6122Y-6.811
X3.6319Y-5.9055
X3.6319Y-6.0728
X3.6378Y-6.378
X3.6811Y-5.9744
X3.7008Y-6.1024
X3.7106Y-6.1811
X3.7205Y-6.5197
X3.7205Y-6.6339
X3.75Y-5.6299
X3.7697Y-6.7224
X3.9075Y-6.0236
X3.9075Y-6.2894
X3.9173Y-6.2008
X3.9803Y-5.6772
X3.9961Y-4.5866
X4.0524Y-4.0873
X4.1043Y-4.0059
X4.1252Y-4.0859
X4.1339Y-6.4469
X4.1462Y-5.7411
X4.1634Y-5.876
X4.1634Y-5.935
X4.2028Y-6.4567
X4.2047Y-6.3898
X4.2205Y-5.811
X4.2421Y-6.3583
X4.2618Y-5.5807
X4.2717Y-6.2756
X4.311Y-6.3583
X4.3209Y-5.4232
X4.331Y-4.4681
X4.3602Y-4.065
X4.3602Y-4.9409
X4.3602Y-5.0394
X4.3701Y-3.9764
X4.378Y-5.6142
X4.4075Y-5.94
X4.438Y-6.0866
X4.4724Y-5.6142
X4.498Y-6.2008
X4.5177Y-6.2992
X4.5374Y-6.0728
X4.5374Y-6.3287
X4.5394Y-4.9252
X4.5472Y-5.0295
X4.6063Y-4.8622
X4.6161Y-6.2402
X4.617Y-6.0716
X4.6358Y-6.1713
X4.6781Y-6.0728
X4.7276Y-4.1685
X4.7411Y-6.0728
X4.7638Y-5.0236
X4.8031Y-6.0728
X4.8031Y-6.25
X4.8031Y-6.3189
X4.8327Y-4.9094
X4.8917Y-3.9272
X4.9803Y-6.1585
X4.9803Y-6.2205
X5.0354Y-4.9222
X5.0689Y-5.0098
X5.0984Y-4.8622
X5.128Y-3.9272
X5.1476Y-4.9508
X5.1575Y-4.3701
X5.1575Y-4.5768
X5.1575Y-6.0531
X5.1941Y-6.4823
X5.1969Y-5.9941
X5.2165Y-5.6791
X5.2953Y-6.0546
X5.2972Y-5.002
X5.3248Y-5.9941
X5.3346Y-4.9508
X5.3445Y-5.7972
X5.374Y-4.3701
X5.374Y-4.5768
X5.3937Y-3.9173
X5.4134Y-5.4626
X5.4154Y-5.5295
X5.4724Y-4.9705
X5.4724Y-6.0039
X5.563Y-5.4921
X5.5876Y-5.997
X5.6201Y-3.9173
X5.6299Y-4.5472
X5.6299Y-5.4232
X5.6496Y-5.3445
X5.6551Y-6.743
X5.6654Y-5.7598
X5.6693Y-4.8819
X5.6693Y-5.0098
X5.6988Y-5.1772
X5.7785Y-4.636
X5.7972Y-4.5079
X5.7992Y-4.5709
X5.8169Y-5.8366
X5.8169Y-6.0531
X5.8268Y-6.3386
X5.8268Y-6.565
X5.6929Y-4.5325
X5.6929Y-4.5837
X5.7362Y-4.5325
X5.7362Y-4.5837
T2
X2.2529Y-4.6052
X2.5098Y-5.3445
X2.6083Y-4.7441
X2.6575Y-5.1575
X2.6762Y-5.2124
X2.811Y-5.4157
X2.815Y-5.3543
X2.8247Y-5.4629
X2.8342Y-5.1282
X2.8732Y-5.123
X2.9Y-5.4674
X2.9821Y-5.4329
X2.9921Y-5.6004
X2.9921Y-5.6398
X3.002Y-5.4724
X3.0238Y-4.2465
X3.0315Y-4.311
X3.05Y-5.6189
X3.0549Y-5.0726
X3.0905Y-4.2691
X3.0923Y-5.6035
X3.0978Y-4.2048
X3.1299Y-5.5917
X3.1693Y-5.5921
X3.1708Y-5.1531
X3.189Y-5.0787
X3.2076Y-5.1936
X3.2101Y-5.1543
X3.2382Y-5.0984
X3.2383Y-5.6007
X3.3169Y-5.5315
X3.4147Y-5.2108
X3.435Y-5.128
X3.4716Y-5.2777
X3.4832Y-5.2254
X3.4843Y-5.315
X3.5039Y-5.5118
X3.5328Y-5.203
X3.5335Y-5.4429
X4.0453Y-6.2303
X4.1602Y-6.3122
X4.1963Y-6.2195
X4.2687Y-6.4203
X4.3602Y-6.0335
X4.3858Y-6.2244
X4.4961Y-6.1339
X4.685Y-6.2795
X4.7244Y-6.7696
X4.7304Y-6.1881
X4.7343Y-6.2894
X4.7746Y-6.2792
X4.824Y-6.4521
X4.8317Y-6.2819
X4.837Y-6.2193
X4.8819Y-6.4567
X4.9114Y-6.4961
X4.9606Y-6.565
X5.0723Y-6.3918
X5.0984Y-6.5748
T3
X3.6072Y-5.0194
X3.6072Y-5.0794
X3.6072Y-5.2194
X3.6072Y-5.2794
X3.6072Y-5.4194
X3.6072Y-5.4794
X3.8322Y-4.8494
X3.8322Y-4.9494
X3.8322Y-5.0494
X3.8322Y-5.1494
X3.8322Y-5.2494
X3.8322Y-5.3494
X3.8322Y-5.4494
X3.8822Y-4.8494
X3.8822Y-4.9494
X3.8822Y-5.0494
X3.8822Y-5.1494
X3.8822Y-5.2494
X3.8822Y-5.3494
X3.8822Y-5.4494
X4.1072Y-4.8194
X4.1072Y-4.8794
X4.1072Y-5.0194
X4.1072Y-5.0794
X4.1072Y-5.2194
X4.1072Y-5.2794
X4.6518Y-5.4274
X4.6518Y-5.7774
X4.7768Y-5.5524
X4.7768Y-5.6524
X4.8768Y-5.5524
X4.8768Y-5.6524
X5.0018Y-5.4274
X5.0018Y-5.7774
X3.2706Y-3.8828
X3.3006Y-4.1078
X3.3006Y-4.1578
X3.3306Y-3.8828
X3.4006Y-4.1078
X3.4006Y-4.1578
X3.4706Y-3.8828
X3.4706Y-4.3828
X3.5006Y-4.1078
X3.5006Y-4.1578
X3.5306Y-3.8828
X3.5306Y-4.3828
X3.6006Y-4.1078
X3.6006Y-4.1578
X3.6706Y-3.8828
X3.6706Y-4.3828
X3.7006Y-4.1078
X3.7006Y-4.1578
X3.7306Y-3.8828
X3.7306Y-4.3828
X3.8006Y-4.1078
X3.8006Y-4.1578
X3.8706Y-4.3828
X3.9006Y-4.1078
X3.9006Y-4.1578
X3.9306Y-4.3828
X4.066Y-4.4681
X4.231Y-4.4681
X4.231Y-4.5181
X4.231Y-4.5681
X4.231Y-4.6181
X4.231Y-4.6681
X4.396Y-4.5681
X4.396Y-4.6681
X4.6276Y-3.9685
X4.6276Y-4.0185
X4.6276Y-4.0685
X4.6276Y-4.1185
X4.6276Y-4.1685
T5
X2.6969Y-3.9961
X2.6969Y-4.0961
X2.7969Y-3.9961
X2.7969Y-4.0961
X2.8969Y-3.9961
X2.8969Y-4.0961
X2.9969Y-3.9961
X2.9969Y-4.0961
X3.9756Y-6.6323
X3.9756Y-6.7323
X4.0756Y-6.6323
X4.0756Y-6.7323
X4.1756Y-6.6323
X4.1756Y-6.7323
X4.2756Y-6.6323
X4.2756Y-6.7323
X4.3756Y-6.6323
X4.3756Y-6.7323
X4.4756Y-6.6323
X4.4756Y-6.7323
X4.5756Y-6.6323
X4.5756Y-6.7323
X4.6756Y-6.6323
X4.6756Y-6.7323
X4.7756Y-6.6323
X4.7756Y-6.7323
X4.8756Y-6.6323
X4.8756Y-6.7323
X4.9756Y-6.6323
X4.9756Y-6.7323
X5.0756Y-6.6323
X5.0756Y-6.7323
X5.1756Y-6.6323
X5.1756Y-6.7323
X5.2756Y-6.6323
X5.2756Y-6.7323
X2.3228Y-4.1402
X2.3228Y-4.2402
X2.3228Y-4.3402
X2.3228Y-4.4402
X2.3228Y-4.5402
X2.3228Y-4.6402
X2.3228Y-4.7402
X2.3228Y-4.8402
X2.3228Y-4.9402
X2.3228Y-5.0402
X2.3228Y-5.1402
X2.3228Y-5.2402
X2.4228Y-4.1402
X2.4228Y-4.2402
X2.4228Y-4.3402
X2.4228Y-4.4402
X2.4228Y-4.5402
X2.4228Y-4.6402
X2.4228Y-4.7402
X2.4228Y-4.8402
X2.4228Y-4.9402
X2.4228Y-5.0402
X2.4228Y-5.1402
X2.4228Y-5.2402
X2.3228Y-5.3992
X2.3228Y-5.4992
X2.3228Y-5.5992
X2.3228Y-5.6992
X2.3228Y-5.7992
X2.3228Y-5.8992
X2.3228Y-5.9992
X2.3228Y-6.0992
X2.4228Y-5.3992
X2.4228Y-5.4992
X2.4228Y-5.5992
X2.4228Y-5.6992
X2.4228Y-5.7992
X2.4228Y-5.8992
X2.4228Y-5.9992
X2.4228Y-6.0992
T6
X5.8071Y-6.7913
X2.2638Y-3.937
X5.8071Y-3.937
X2.2638Y-6.7913
T7
X4.252Y-4.8957
X4.252Y-5.1634
X4.7244Y-4.8957
X4.7244Y-5.1634
T4
G00X2.4902Y-6.374
M15
G01X2.4902Y-6.4606
M16
G05
G00X2.5571Y-6.6063
M15
G01X2.6437Y-6.6063
M16
G05
G00X2.7185Y-6.3661
M15
G01X2.7185Y-6.4685
M16
G05
T0
M30
